<?xml version="1.0" encoding="utf-8" standalone="no"?>
<!DOCTYPE svg PUBLIC "-//W3C//DTD SVG 1.1//EN"
  "http://www.w3.org/Graphics/SVG/1.1/DTD/svg11.dtd">
<svg xmlns:xlink="http://www.w3.org/1999/xlink" width="605.997504pt" height="402.88pt" viewBox="0 0 605.997504 402.88" xmlns="http://www.w3.org/2000/svg" version="1.1">
 <metadata>
  <rdf:RDF xmlns:dc="http://purl.org/dc/elements/1.1/" xmlns:cc="http://creativecommons.org/ns#" xmlns:rdf="http://www.w3.org/1999/02/22-rdf-syntax-ns#">
   <cc:Work>
    <dc:type rdf:resource="http://purl.org/dc/dcmitype/StillImage"/>
    <dc:date>2026-06-06T18:16:59.243665</dc:date>
    <dc:format>image/svg+xml</dc:format>
    <dc:creator>
     <cc:Agent>
      <dc:title>Matplotlib v3.10.9, https://matplotlib.org/</dc:title>
     </cc:Agent>
    </dc:creator>
   </cc:Work>
  </rdf:RDF>
 </metadata>
 <defs>
  <style type="text/css">*{stroke-linejoin: round; stroke-linecap: butt}</style>
 </defs>
 <g id="figure_1">
  <g id="patch_1">
   <path d="M 0 402.88 
L 605.997504 402.88 
L 605.997504 0 
L 0 0 
z
" style="fill: #ffffff"/>
  </g>
  <g id="axes_1">
   <g id="patch_2">
    <path d="M 337.976482 136.816685 
Q 304.227469 174.241281 272.125694 209.839239 
" clip-path="url(#pc49a83b1fb)" style="fill: none; stroke: #dce9f7; stroke-width: 2.2; stroke-linecap: round"/>
    <path d="M 281.286622 206.25073 
L 272.125694 209.839239 
L 274.751443 200.357391 
z
" clip-path="url(#pc49a83b1fb)" style="fill: #dce9f7; stroke: #dce9f7; stroke-width: 2.2; stroke-linecap: round"/>
   </g>
   <g id="patch_3">
    <path d="M 371.45992 136.816685 
Q 405.208933 174.241281 437.310708 209.839239 
" clip-path="url(#pc49a83b1fb)" style="fill: none; stroke: #dce9f7; stroke-width: 2.2; stroke-linecap: round"/>
    <path d="M 434.684958 200.357391 
L 437.310708 209.839239 
L 428.14978 206.25073 
z
" clip-path="url(#pc49a83b1fb)" style="fill: #dce9f7; stroke: #dce9f7; stroke-width: 2.2; stroke-linecap: round"/>
   </g>
   <g id="patch_4">
    <path d="M 245.189401 248.504332 
Q 226.607368 282.847316 209.195841 315.02699 
" clip-path="url(#pc49a83b1fb)" style="fill: none; stroke: #dce9f7; stroke-width: 2.2; stroke-linecap: round"/>
    <path d="M 217.253423 309.381161 
L 209.195841 315.02699 
L 209.513728 305.193427 
z
" clip-path="url(#pc49a83b1fb)" style="fill: #dce9f7; stroke: #dce9f7; stroke-width: 2.2; stroke-linecap: round"/>
   </g>
   <g id="patch_5">
    <path d="M 267.361229 249.303895 
Q 282.521619 282.92689 296.670979 314.307606 
" clip-path="url(#pc49a83b1fb)" style="fill: none; stroke: #dce9f7; stroke-width: 2.2; stroke-linecap: round"/>
    <path d="M 297.064923 304.476797 
L 296.670979 314.307606 
L 289.042698 308.093966 
z
" clip-path="url(#pc49a83b1fb)" style="fill: #dce9f7; stroke: #dce9f7; stroke-width: 2.2; stroke-linecap: round"/>
   </g>
   <g id="patch_6">
    <path d="M 442.075173 249.303895 
Q 426.914783 282.92689 412.765422 314.307606 
" clip-path="url(#pc49a83b1fb)" style="fill: none; stroke: #dce9f7; stroke-width: 2.2; stroke-linecap: round"/>
    <path d="M 420.393704 308.093966 
L 412.765422 314.307606 
L 412.371479 304.476797 
z
" clip-path="url(#pc49a83b1fb)" style="fill: #dce9f7; stroke: #dce9f7; stroke-width: 2.2; stroke-linecap: round"/>
   </g>
   <g id="patch_7">
    <path d="M 464.247 248.504332 
Q 482.829034 282.847316 500.24056 315.02699 
" clip-path="url(#pc49a83b1fb)" style="fill: none; stroke: #dce9f7; stroke-width: 2.2; stroke-linecap: round"/>
    <path d="M 499.922674 305.193427 
L 500.24056 315.02699 
L 492.182979 309.381161 
z
" clip-path="url(#pc49a83b1fb)" style="fill: #dce9f7; stroke: #dce9f7; stroke-width: 2.2; stroke-linecap: round"/>
   </g>
   <g id="PathCollection_1">
    <path d="M 354.718201 141.703715 
C 360.937765 141.703715 366.903429 139.232656 371.301325 134.83476 
C 375.699221 130.436864 378.17028 124.4712 378.17028 118.251636 
C 378.17028 112.032072 375.699221 106.066408 371.301325 101.668512 
C 366.903429 97.270617 360.937765 94.799558 354.718201 94.799558 
C 348.498637 94.799558 342.532973 97.270617 338.135077 101.668512 
C 333.737181 106.066408 331.266122 112.032072 331.266122 118.251636 
C 331.266122 124.4712 333.737181 130.436864 338.135077 134.83476 
C 342.532973 139.232656 348.498637 141.703715 354.718201 141.703715 
z
" clip-path="url(#pc49a83b1fb)" style="fill: #1e6b3c; stroke: #ffffff; stroke-width: 2.5"/>
    <path d="M 257.086479 245.88128 
C 262.222115 245.88128 267.1481 243.840871 270.779543 240.209428 
C 274.410986 236.577985 276.451396 231.652 276.451396 226.516364 
C 276.451396 221.380728 274.410986 216.454743 270.779543 212.8233 
C 267.1481 209.191857 262.222115 207.151447 257.086479 207.151447 
C 251.950844 207.151447 247.024859 209.191857 243.393416 212.8233 
C 239.761973 216.454743 237.721563 221.380728 237.721563 226.516364 
C 237.721563 231.652 239.761973 236.577985 243.393416 240.209428 
C 247.024859 243.840871 251.950844 245.88128 257.086479 245.88128 
z
" clip-path="url(#pc49a83b1fb)" style="fill: #1a4f8a; stroke: #ffffff; stroke-width: 2.5"/>
    <path d="M 452.349922 245.88128 
C 457.485558 245.88128 462.411543 243.840871 466.042986 240.209428 
C 469.674429 236.577985 471.714839 231.652 471.714839 226.516364 
C 471.714839 221.380728 469.674429 216.454743 466.042986 212.8233 
C 462.411543 209.191857 457.485558 207.151447 452.349922 207.151447 
C 447.214286 207.151447 442.288301 209.191857 438.656858 212.8233 
C 435.025415 216.454743 432.985005 221.380728 432.985005 226.516364 
C 432.985005 231.652 435.025415 236.577985 438.656858 240.209428 
C 442.288301 243.840871 447.214286 245.88128 452.349922 245.88128 
z
" clip-path="url(#pc49a83b1fb)" style="fill: #1a4f8a; stroke: #ffffff; stroke-width: 2.5"/>
    <path d="M 198.507447 351.364215 
C 202.905343 351.364215 207.123704 349.616912 210.233486 346.50713 
C 213.343268 343.397348 215.090571 339.178987 215.090571 334.781091 
C 215.090571 330.383195 213.343268 326.164834 210.233486 323.055052 
C 207.123704 319.94527 202.905343 318.197967 198.507447 318.197967 
C 194.109551 318.197967 189.891189 319.94527 186.781407 323.055052 
C 183.671625 326.164834 181.924323 330.383195 181.924323 334.781091 
C 181.924323 339.178987 183.671625 343.397348 186.781407 346.50713 
C 189.891189 349.616912 194.109551 351.364215 198.507447 351.364215 
z
" clip-path="url(#pc49a83b1fb)" style="fill: #8fa3bb; stroke: #ffffff; stroke-width: 2.5"/>
    <path d="M 305.90234 351.364215 
C 310.300236 351.364215 314.518598 349.616912 317.62838 346.50713 
C 320.738162 343.397348 322.485464 339.178987 322.485464 334.781091 
C 322.485464 330.383195 320.738162 326.164834 317.62838 323.055052 
C 314.518598 319.94527 310.300236 318.197967 305.90234 318.197967 
C 301.504444 318.197967 297.286083 319.94527 294.176301 323.055052 
C 291.066519 326.164834 289.319216 330.383195 289.319216 334.781091 
C 289.319216 339.178987 291.066519 343.397348 294.176301 346.50713 
C 297.286083 349.616912 301.504444 351.364215 305.90234 351.364215 
z
" clip-path="url(#pc49a83b1fb)" style="fill: #8fa3bb; stroke: #ffffff; stroke-width: 2.5"/>
    <path d="M 403.534061 351.364215 
C 407.931957 351.364215 412.150319 349.616912 415.260101 346.50713 
C 418.369883 343.397348 420.117185 339.178987 420.117185 334.781091 
C 420.117185 330.383195 418.369883 326.164834 415.260101 323.055052 
C 412.150319 319.94527 407.931957 318.197967 403.534061 318.197967 
C 399.136166 318.197967 394.917804 319.94527 391.808022 323.055052 
C 388.69824 326.164834 386.950937 330.383195 386.950937 334.781091 
C 386.950937 339.178987 388.69824 343.397348 391.808022 346.50713 
C 394.917804 349.616912 399.136166 351.364215 403.534061 351.364215 
z
" clip-path="url(#pc49a83b1fb)" style="fill: #8fa3bb; stroke: #ffffff; stroke-width: 2.5"/>
    <path d="M 510.928955 351.364215 
C 515.326851 351.364215 519.545212 349.616912 522.654994 346.50713 
C 525.764776 343.397348 527.512079 339.178987 527.512079 334.781091 
C 527.512079 330.383195 525.764776 326.164834 522.654994 323.055052 
C 519.545212 319.94527 515.326851 318.197967 510.928955 318.197967 
C 506.531059 318.197967 502.312697 319.94527 499.202915 323.055052 
C 496.093133 326.164834 494.345831 330.383195 494.345831 334.781091 
C 494.345831 339.178987 496.093133 343.397348 499.202915 346.50713 
C 502.312697 349.616912 506.531059 351.364215 510.928955 351.364215 
z
" clip-path="url(#pc49a83b1fb)" style="fill: #8fa3bb; stroke: #ffffff; stroke-width: 2.5"/>
   </g>
   <g id="text_1">
    <g clip-path="url(#pc49a83b1fb)">
     <!-- $v$ -->
     <g style="fill: #ffffff" transform="translate(351.118201 121.562886) scale(0.12 -0.12)">
      <defs>
       <path id="DejaVuSans-Oblique-76" d="M 459 3500 
L 1069 3500 
L 1581 525 
L 3256 3500 
L 3866 3500 
L 1875 0 
L 1100 0 
L 459 3500 
z
" transform="scale(0.015625)"/>
      </defs>
      <use xlink:href="#DejaVuSans-Oblique-76" transform="translate(0 0.3125)"/>
     </g>
    </g>
   </g>
   <g id="text_2">
    <g clip-path="url(#pc49a83b1fb)">
     <!-- $u_1$ -->
     <g style="fill: #ffffff" transform="translate(250.426479 229.827614) scale(0.12 -0.12)">
      <defs>
       <path id="DejaVuSans-Oblique-75" d="M 428 1388 
L 838 3500 
L 1416 3500 
L 1006 1409 
Q 975 1256 961 1147 
Q 947 1038 947 966 
Q 947 700 1109 554 
Q 1272 409 1569 409 
Q 2031 409 2368 721 
Q 2706 1034 2809 1563 
L 3194 3500 
L 3769 3500 
L 3091 0 
L 2516 0 
L 2631 550 
Q 2388 244 2052 76 
Q 1716 -91 1338 -91 
Q 878 -91 622 161 
Q 366 413 366 863 
Q 366 956 381 1097 
Q 397 1238 428 1388 
z
" transform="scale(0.015625)"/>
       <path id="DejaVuSans-31" d="M 794 531 
L 1825 531 
L 1825 4091 
L 703 3866 
L 703 4441 
L 1819 4666 
L 2450 4666 
L 2450 531 
L 3481 531 
L 3481 0 
L 794 0 
L 794 531 
z
" transform="scale(0.015625)"/>
      </defs>
      <use xlink:href="#DejaVuSans-Oblique-75" transform="translate(0 0.3125)"/>
      <use xlink:href="#DejaVuSans-31" transform="translate(63.378906 -16.09375) scale(0.7)"/>
     </g>
    </g>
   </g>
   <g id="text_3">
    <g clip-path="url(#pc49a83b1fb)">
     <!-- $u_2$ -->
     <g style="fill: #ffffff" transform="translate(445.689922 229.827614) scale(0.12 -0.12)">
      <defs>
       <path id="DejaVuSans-32" d="M 1228 531 
L 3431 531 
L 3431 0 
L 469 0 
L 469 531 
Q 828 903 1448 1529 
Q 2069 2156 2228 2338 
Q 2531 2678 2651 2914 
Q 2772 3150 2772 3378 
Q 2772 3750 2511 3984 
Q 2250 4219 1831 4219 
Q 1534 4219 1204 4116 
Q 875 4013 500 3803 
L 500 4441 
Q 881 4594 1212 4672 
Q 1544 4750 1819 4750 
Q 2544 4750 2975 4387 
Q 3406 4025 3406 3419 
Q 3406 3131 3298 2873 
Q 3191 2616 2906 2266 
Q 2828 2175 2409 1742 
Q 1991 1309 1228 531 
z
" transform="scale(0.015625)"/>
      </defs>
      <use xlink:href="#DejaVuSans-Oblique-75" transform="translate(0 0.3125)"/>
      <use xlink:href="#DejaVuSans-32" transform="translate(63.378906 -16.09375) scale(0.7)"/>
     </g>
    </g>
   </g>
   <g id="text_4">
    <g clip-path="url(#pc49a83b1fb)">
     <!-- $d_1$ -->
     <g style="fill: #ffffff" transform="translate(191.847447 338.092341) scale(0.12 -0.12)">
      <defs>
       <path id="DejaVuSans-Oblique-64" d="M 2675 525 
Q 2444 222 2128 65 
Q 1813 -91 1428 -91 
Q 903 -91 598 267 
Q 294 625 294 1247 
Q 294 1766 478 2236 
Q 663 2706 1013 3078 
Q 1244 3325 1534 3454 
Q 1825 3584 2144 3584 
Q 2481 3584 2739 3421 
Q 2997 3259 3138 2956 
L 3513 4863 
L 4091 4863 
L 3144 0 
L 2566 0 
L 2675 525 
z
M 891 1350 
Q 891 897 1095 644 
Q 1300 391 1663 391 
Q 1931 391 2161 520 
Q 2391 650 2566 903 
Q 2750 1166 2856 1509 
Q 2963 1853 2963 2188 
Q 2963 2622 2758 2865 
Q 2553 3109 2194 3109 
Q 1922 3109 1687 2981 
Q 1453 2853 1288 2613 
Q 1106 2353 998 2009 
Q 891 1666 891 1350 
z
" transform="scale(0.015625)"/>
      </defs>
      <use xlink:href="#DejaVuSans-Oblique-64" transform="translate(0 0.015625)"/>
      <use xlink:href="#DejaVuSans-31" transform="translate(63.476562 -16.390625) scale(0.7)"/>
     </g>
    </g>
   </g>
   <g id="text_5">
    <g clip-path="url(#pc49a83b1fb)">
     <!-- $d_2$ -->
     <g style="fill: #ffffff" transform="translate(299.24234 338.092341) scale(0.12 -0.12)">
      <use xlink:href="#DejaVuSans-Oblique-64" transform="translate(0 0.015625)"/>
      <use xlink:href="#DejaVuSans-32" transform="translate(63.476562 -16.390625) scale(0.7)"/>
     </g>
    </g>
   </g>
   <g id="text_6">
    <g clip-path="url(#pc49a83b1fb)">
     <!-- $d_3$ -->
     <g style="fill: #ffffff" transform="translate(396.874061 338.092341) scale(0.12 -0.12)">
      <defs>
       <path id="DejaVuSans-33" d="M 2597 2516 
Q 3050 2419 3304 2112 
Q 3559 1806 3559 1356 
Q 3559 666 3084 287 
Q 2609 -91 1734 -91 
Q 1441 -91 1130 -33 
Q 819 25 488 141 
L 488 750 
Q 750 597 1062 519 
Q 1375 441 1716 441 
Q 2309 441 2620 675 
Q 2931 909 2931 1356 
Q 2931 1769 2642 2001 
Q 2353 2234 1838 2234 
L 1294 2234 
L 1294 2753 
L 1863 2753 
Q 2328 2753 2575 2939 
Q 2822 3125 2822 3475 
Q 2822 3834 2567 4026 
Q 2313 4219 1838 4219 
Q 1578 4219 1281 4162 
Q 984 4106 628 3988 
L 628 4550 
Q 988 4650 1302 4700 
Q 1616 4750 1894 4750 
Q 2613 4750 3031 4423 
Q 3450 4097 3450 3541 
Q 3450 3153 3228 2886 
Q 3006 2619 2597 2516 
z
" transform="scale(0.015625)"/>
      </defs>
      <use xlink:href="#DejaVuSans-Oblique-64" transform="translate(0 0.015625)"/>
      <use xlink:href="#DejaVuSans-33" transform="translate(63.476562 -16.390625) scale(0.7)"/>
     </g>
    </g>
   </g>
   <g id="text_7">
    <g clip-path="url(#pc49a83b1fb)">
     <!-- $d_4$ -->
     <g style="fill: #ffffff" transform="translate(504.268955 338.092341) scale(0.12 -0.12)">
      <defs>
       <path id="DejaVuSans-34" d="M 2419 4116 
L 825 1625 
L 2419 1625 
L 2419 4116 
z
M 2253 4666 
L 3047 4666 
L 3047 1625 
L 3713 1625 
L 3713 1100 
L 3047 1100 
L 3047 0 
L 2419 0 
L 2419 1100 
L 313 1100 
L 313 1709 
L 2253 4666 
z
" transform="scale(0.015625)"/>
      </defs>
      <use xlink:href="#DejaVuSans-Oblique-64" transform="translate(0 0.015625)"/>
      <use xlink:href="#DejaVuSans-34" transform="translate(63.476562 -16.390625) scale(0.7)"/>
     </g>
    </g>
   </g>
   <g id="text_8">
    <g id="patch_8">
     <path d="M 64.84 126.874605 
L 144.81 126.874605 
Q 148.11 126.874605 148.11 123.574605 
L 148.11 112.928668 
Q 148.11 109.628668 144.81 109.628668 
L 64.84 109.628668 
Q 61.54 109.628668 61.54 112.928668 
L 61.54 123.574605 
Q 61.54 126.874605 64.84 126.874605 
z
" style="fill: #ffffff; opacity: 0.85; stroke: #1e6b3c; stroke-width: 1.1; stroke-linejoin: miter"/>
    </g>
    <!-- $X^2$ — ACCEPT -->
    <g style="fill: #1e6b3c" transform="translate(64.84 121.286949) scale(0.11 -0.11)">
     <defs>
      <path id="DejaVuSans-Oblique-58" d="M 878 4666 
L 1516 4666 
L 2316 2981 
L 3763 4666 
L 4500 4666 
L 2578 2438 
L 3738 0 
L 3103 0 
L 2163 1966 
L 459 0 
L -275 0 
L 1906 2509 
L 878 4666 
z
" transform="scale(0.015625)"/>
      <path id="DejaVuSans-Bold-20" transform="scale(0.015625)"/>
      <path id="DejaVuSansDisplay-2014" d="M 313 1978 
L 6088 1978 
L 6088 1528 
L 313 1528 
L 313 1978 
z
" transform="scale(0.015625)"/>
      <path id="DejaVuSans-Bold-41" d="M 3419 850 
L 1538 850 
L 1241 0 
L 31 0 
L 1759 4666 
L 3194 4666 
L 4922 0 
L 3713 0 
L 3419 850 
z
M 1838 1716 
L 3116 1716 
L 2478 3572 
L 1838 1716 
z
" transform="scale(0.015625)"/>
      <path id="DejaVuSans-Bold-43" d="M 4288 256 
Q 3956 84 3597 -3 
Q 3238 -91 2847 -91 
Q 1681 -91 1000 561 
Q 319 1213 319 2328 
Q 319 3447 1000 4098 
Q 1681 4750 2847 4750 
Q 3238 4750 3597 4662 
Q 3956 4575 4288 4403 
L 4288 3438 
Q 3953 3666 3628 3772 
Q 3303 3878 2944 3878 
Q 2300 3878 1931 3465 
Q 1563 3053 1563 2328 
Q 1563 1606 1931 1193 
Q 2300 781 2944 781 
Q 3303 781 3628 887 
Q 3953 994 4288 1222 
L 4288 256 
z
" transform="scale(0.015625)"/>
      <path id="DejaVuSans-Bold-45" d="M 588 4666 
L 3834 4666 
L 3834 3756 
L 1791 3756 
L 1791 2888 
L 3713 2888 
L 3713 1978 
L 1791 1978 
L 1791 909 
L 3903 909 
L 3903 0 
L 588 0 
L 588 4666 
z
" transform="scale(0.015625)"/>
      <path id="DejaVuSans-Bold-50" d="M 588 4666 
L 2584 4666 
Q 3475 4666 3951 4270 
Q 4428 3875 4428 3144 
Q 4428 2409 3951 2014 
Q 3475 1619 2584 1619 
L 1791 1619 
L 1791 0 
L 588 0 
L 588 4666 
z
M 1791 3794 
L 1791 2491 
L 2456 2491 
Q 2806 2491 2997 2661 
Q 3188 2831 3188 3144 
Q 3188 3456 2997 3625 
Q 2806 3794 2456 3794 
L 1791 3794 
z
" transform="scale(0.015625)"/>
      <path id="DejaVuSans-Bold-54" d="M 31 4666 
L 4331 4666 
L 4331 3756 
L 2784 3756 
L 2784 0 
L 1581 0 
L 1581 3756 
L 31 3756 
L 31 4666 
z
" transform="scale(0.015625)"/>
     </defs>
     <use xlink:href="#DejaVuSans-Oblique-58" transform="translate(0 0.765625)"/>
     <use xlink:href="#DejaVuSans-32" transform="translate(75.52263 39.046875) scale(0.7)"/>
     <use xlink:href="#DejaVuSans-Bold-20" transform="translate(122.793138 0.765625)"/>
     <use xlink:href="#DejaVuSansDisplay-2014" transform="translate(157.607591 0.765625)"/>
     <use xlink:href="#DejaVuSans-Bold-20" transform="translate(257.607591 0.765625)"/>
     <use xlink:href="#DejaVuSans-Bold-41" transform="translate(292.422044 0.765625)"/>
     <use xlink:href="#DejaVuSans-Bold-43" transform="translate(369.814622 0.765625)"/>
     <use xlink:href="#DejaVuSans-Bold-43" transform="translate(443.203294 0.765625)"/>
     <use xlink:href="#DejaVuSans-Bold-45" transform="translate(516.591966 0.765625)"/>
     <use xlink:href="#DejaVuSans-Bold-50" transform="translate(584.902513 0.765625)"/>
     <use xlink:href="#DejaVuSans-Bold-54" transform="translate(658.193529 0.765625)"/>
    </g>
   </g>
   <g id="text_9">
    <g id="patch_9">
     <path d="M 131.28 235.139332 
L 144.81 235.139332 
Q 148.11 235.139332 148.11 231.839332 
L 148.11 221.193395 
Q 148.11 217.893395 144.81 217.893395 
L 131.28 217.893395 
Q 127.98 217.893395 127.98 221.193395 
L 127.98 231.839332 
Q 127.98 235.139332 131.28 235.139332 
z
" style="fill: #ffffff; opacity: 0.85; stroke: #1a4f8a; stroke-width: 1.1; stroke-linejoin: miter"/>
    </g>
    <!-- $X^1$ -->
    <g style="fill: #1a4f8a" transform="translate(131.28 229.551676) scale(0.11 -0.11)">
     <use xlink:href="#DejaVuSans-Oblique-58" transform="translate(0 0.684375)"/>
     <use xlink:href="#DejaVuSans-31" transform="translate(75.52263 38.965625) scale(0.7)"/>
    </g>
   </g>
   <g id="text_10">
    <g id="patch_10">
     <path d="M 7.2 344.296091 
L 144.81 344.296091 
Q 148.11 344.296091 148.11 340.996091 
L 148.11 328.566091 
Q 148.11 325.266091 144.81 325.266091 
L 7.2 325.266091 
Q 3.9 325.266091 3.9 328.566091 
L 3.9 340.996091 
Q 3.9 344.296091 7.2 344.296091 
z
" style="fill: #ffffff; opacity: 0.85; stroke: #8fa3bb; stroke-width: 1.1; stroke-linejoin: miter"/>
    </g>
    <!-- $X^0$ = □⊥ (Sackgassen) -->
    <g style="fill: #8fa3bb" transform="translate(7.2 338.576091) scale(0.11 -0.11)">
     <defs>
      <path id="DejaVuSans-30" d="M 2034 4250 
Q 1547 4250 1301 3770 
Q 1056 3291 1056 2328 
Q 1056 1369 1301 889 
Q 1547 409 2034 409 
Q 2525 409 2770 889 
Q 3016 1369 3016 2328 
Q 3016 3291 2770 3770 
Q 2525 4250 2034 4250 
z
M 2034 4750 
Q 2819 4750 3233 4129 
Q 3647 3509 3647 2328 
Q 3647 1150 3233 529 
Q 2819 -91 2034 -91 
Q 1250 -91 836 529 
Q 422 1150 422 2328 
Q 422 3509 836 4129 
Q 1250 4750 2034 4750 
z
" transform="scale(0.015625)"/>
      <path id="DejaVuSans-Bold-3d" d="M 678 3084 
L 4684 3084 
L 4684 2350 
L 678 2350 
L 678 3084 
z
M 678 1663 
L 4684 1663 
L 4684 922 
L 678 922 
L 678 1663 
z
" transform="scale(0.015625)"/>
      <path id="DejaVuSans-Bold-25a1" d="M 938 -431 
L 5109 -431 
L 5109 3756 
L 938 3756 
L 938 -431 
z
M 581 -788 
L 581 4113 
L 5466 4113 
L 5466 -788 
L 581 -788 
z
" transform="scale(0.015625)"/>
      <path id="DejaVuSans-Bold-22a5" d="M 2588 675 
L 2588 4513 
L 3263 4513 
L 3263 675 
L 5303 675 
L 5303 0 
L 547 0 
L 547 675 
L 2588 675 
z
" transform="scale(0.015625)"/>
      <path id="DejaVuSans-Bold-28" d="M 2413 -844 
L 1484 -844 
Q 1006 -72 778 623 
Q 550 1319 550 2003 
Q 550 2688 779 3389 
Q 1009 4091 1484 4856 
L 2413 4856 
Q 2013 4116 1813 3408 
Q 1613 2700 1613 2009 
Q 1613 1319 1811 609 
Q 2009 -100 2413 -844 
z
" transform="scale(0.015625)"/>
      <path id="DejaVuSans-Bold-53" d="M 3834 4519 
L 3834 3531 
Q 3450 3703 3084 3790 
Q 2719 3878 2394 3878 
Q 1963 3878 1756 3759 
Q 1550 3641 1550 3391 
Q 1550 3203 1689 3098 
Q 1828 2994 2194 2919 
L 2706 2816 
Q 3484 2659 3812 2340 
Q 4141 2022 4141 1434 
Q 4141 663 3683 286 
Q 3225 -91 2284 -91 
Q 1841 -91 1394 -6 
Q 947 78 500 244 
L 500 1259 
Q 947 1022 1364 901 
Q 1781 781 2169 781 
Q 2563 781 2772 912 
Q 2981 1044 2981 1288 
Q 2981 1506 2839 1625 
Q 2697 1744 2272 1838 
L 1806 1941 
Q 1106 2091 782 2419 
Q 459 2747 459 3303 
Q 459 4000 909 4375 
Q 1359 4750 2203 4750 
Q 2588 4750 2994 4692 
Q 3400 4634 3834 4519 
z
" transform="scale(0.015625)"/>
      <path id="DejaVuSans-Bold-61" d="M 2106 1575 
Q 1756 1575 1579 1456 
Q 1403 1338 1403 1106 
Q 1403 894 1545 773 
Q 1688 653 1941 653 
Q 2256 653 2472 879 
Q 2688 1106 2688 1447 
L 2688 1575 
L 2106 1575 
z
M 3816 1997 
L 3816 0 
L 2688 0 
L 2688 519 
Q 2463 200 2181 54 
Q 1900 -91 1497 -91 
Q 953 -91 614 226 
Q 275 544 275 1050 
Q 275 1666 698 1953 
Q 1122 2241 2028 2241 
L 2688 2241 
L 2688 2328 
Q 2688 2594 2478 2717 
Q 2269 2841 1825 2841 
Q 1466 2841 1156 2769 
Q 847 2697 581 2553 
L 581 3406 
Q 941 3494 1303 3539 
Q 1666 3584 2028 3584 
Q 2975 3584 3395 3211 
Q 3816 2838 3816 1997 
z
" transform="scale(0.015625)"/>
      <path id="DejaVuSans-Bold-63" d="M 3366 3391 
L 3366 2478 
Q 3138 2634 2908 2709 
Q 2678 2784 2431 2784 
Q 1963 2784 1702 2511 
Q 1441 2238 1441 1747 
Q 1441 1256 1702 982 
Q 1963 709 2431 709 
Q 2694 709 2930 787 
Q 3166 866 3366 1019 
L 3366 103 
Q 3103 6 2833 -42 
Q 2563 -91 2291 -91 
Q 1344 -91 809 395 
Q 275 881 275 1747 
Q 275 2613 809 3098 
Q 1344 3584 2291 3584 
Q 2566 3584 2833 3536 
Q 3100 3488 3366 3391 
z
" transform="scale(0.015625)"/>
      <path id="DejaVuSans-Bold-6b" d="M 538 4863 
L 1656 4863 
L 1656 2216 
L 2944 3500 
L 4244 3500 
L 2534 1894 
L 4378 0 
L 3022 0 
L 1656 1459 
L 1656 0 
L 538 0 
L 538 4863 
z
" transform="scale(0.015625)"/>
      <path id="DejaVuSans-Bold-67" d="M 2919 594 
Q 2688 288 2409 144 
Q 2131 0 1766 0 
Q 1125 0 706 504 
Q 288 1009 288 1791 
Q 288 2575 706 3076 
Q 1125 3578 1766 3578 
Q 2131 3578 2409 3434 
Q 2688 3291 2919 2981 
L 2919 3500 
L 4044 3500 
L 4044 353 
Q 4044 -491 3511 -936 
Q 2978 -1381 1966 -1381 
Q 1638 -1381 1331 -1331 
Q 1025 -1281 716 -1178 
L 716 -306 
Q 1009 -475 1290 -558 
Q 1572 -641 1856 -641 
Q 2406 -641 2662 -400 
Q 2919 -159 2919 353 
L 2919 594 
z
M 2181 2772 
Q 1834 2772 1640 2515 
Q 1447 2259 1447 1791 
Q 1447 1309 1634 1061 
Q 1822 813 2181 813 
Q 2531 813 2725 1069 
Q 2919 1325 2919 1791 
Q 2919 2259 2725 2515 
Q 2531 2772 2181 2772 
z
" transform="scale(0.015625)"/>
      <path id="DejaVuSans-Bold-73" d="M 3272 3391 
L 3272 2541 
Q 2913 2691 2578 2766 
Q 2244 2841 1947 2841 
Q 1628 2841 1473 2761 
Q 1319 2681 1319 2516 
Q 1319 2381 1436 2309 
Q 1553 2238 1856 2203 
L 2053 2175 
Q 2913 2066 3209 1816 
Q 3506 1566 3506 1031 
Q 3506 472 3093 190 
Q 2681 -91 1863 -91 
Q 1516 -91 1145 -36 
Q 775 19 384 128 
L 384 978 
Q 719 816 1070 734 
Q 1422 653 1784 653 
Q 2113 653 2278 743 
Q 2444 834 2444 1013 
Q 2444 1163 2330 1236 
Q 2216 1309 1875 1350 
L 1678 1375 
Q 931 1469 631 1722 
Q 331 1975 331 2491 
Q 331 3047 712 3315 
Q 1094 3584 1881 3584 
Q 2191 3584 2531 3537 
Q 2872 3491 3272 3391 
z
" transform="scale(0.015625)"/>
      <path id="DejaVuSans-Bold-65" d="M 4031 1759 
L 4031 1441 
L 1416 1441 
Q 1456 1047 1700 850 
Q 1944 653 2381 653 
Q 2734 653 3104 758 
Q 3475 863 3866 1075 
L 3866 213 
Q 3469 63 3072 -14 
Q 2675 -91 2278 -91 
Q 1328 -91 801 392 
Q 275 875 275 1747 
Q 275 2603 792 3093 
Q 1309 3584 2216 3584 
Q 3041 3584 3536 3087 
Q 4031 2591 4031 1759 
z
M 2881 2131 
Q 2881 2450 2695 2645 
Q 2509 2841 2209 2841 
Q 1884 2841 1681 2658 
Q 1478 2475 1428 2131 
L 2881 2131 
z
" transform="scale(0.015625)"/>
      <path id="DejaVuSans-Bold-6e" d="M 4056 2131 
L 4056 0 
L 2931 0 
L 2931 347 
L 2931 1631 
Q 2931 2084 2911 2256 
Q 2891 2428 2841 2509 
Q 2775 2619 2662 2680 
Q 2550 2741 2406 2741 
Q 2056 2741 1856 2470 
Q 1656 2200 1656 1722 
L 1656 0 
L 538 0 
L 538 3500 
L 1656 3500 
L 1656 2988 
Q 1909 3294 2193 3439 
Q 2478 3584 2822 3584 
Q 3428 3584 3742 3212 
Q 4056 2841 4056 2131 
z
" transform="scale(0.015625)"/>
      <path id="DejaVuSans-Bold-29" d="M 513 -844 
Q 913 -100 1113 609 
Q 1313 1319 1313 2009 
Q 1313 2700 1113 3408 
Q 913 4116 513 4856 
L 1441 4856 
Q 1916 4091 2145 3389 
Q 2375 2688 2375 2003 
Q 2375 1319 2147 623 
Q 1919 -72 1441 -844 
L 513 -844 
z
" transform="scale(0.015625)"/>
     </defs>
     <use xlink:href="#DejaVuSans-Oblique-58" transform="translate(0 0.765625)"/>
     <use xlink:href="#DejaVuSans-30" transform="translate(75.52263 39.046875) scale(0.7)"/>
     <use xlink:href="#DejaVuSans-Bold-20" transform="translate(122.793138 0.765625)"/>
     <use xlink:href="#DejaVuSans-Bold-3d" transform="translate(157.607591 0.765625)"/>
     <use xlink:href="#DejaVuSans-Bold-20" transform="translate(241.396654 0.765625)"/>
     <use xlink:href="#DejaVuSans-Bold-25a1" transform="translate(276.211107 0.765625)"/>
     <use xlink:href="#DejaVuSans-Bold-22a5" transform="translate(370.693529 0.765625)"/>
     <use xlink:href="#DejaVuSans-Bold-20" transform="translate(462.099779 0.765625)"/>
     <use xlink:href="#DejaVuSans-Bold-28" transform="translate(496.914232 0.765625)"/>
     <use xlink:href="#DejaVuSans-Bold-53" transform="translate(542.617357 0.765625)"/>
     <use xlink:href="#DejaVuSans-Bold-61" transform="translate(614.638841 0.765625)"/>
     <use xlink:href="#DejaVuSans-Bold-63" transform="translate(682.11931 0.765625)"/>
     <use xlink:href="#DejaVuSans-Bold-6b" transform="translate(741.396654 0.765625)"/>
     <use xlink:href="#DejaVuSans-Bold-67" transform="translate(807.90056 0.765625)"/>
     <use xlink:href="#DejaVuSans-Bold-61" transform="translate(879.482591 0.765625)"/>
     <use xlink:href="#DejaVuSans-Bold-73" transform="translate(946.96306 0.765625)"/>
     <use xlink:href="#DejaVuSans-Bold-73" transform="translate(1006.484544 0.765625)"/>
     <use xlink:href="#DejaVuSans-Bold-65" transform="translate(1066.006029 0.765625)"/>
     <use xlink:href="#DejaVuSans-Bold-6e" transform="translate(1133.828294 0.765625)"/>
     <use xlink:href="#DejaVuSans-Bold-29" transform="translate(1205.019701 0.765625)"/>
    </g>
   </g>
   <g id="text_11">
    <!-- Tiefe 0 -->
    <g style="fill: #8fa3bb" transform="translate(559.744816 120.735074) scale(0.09 -0.09)">
     <defs>
      <path id="DejaVuSans-Oblique-54" d="M 378 4666 
L 4325 4666 
L 4225 4134 
L 2559 4134 
L 1759 0 
L 1125 0 
L 1925 4134 
L 275 4134 
L 378 4666 
z
" transform="scale(0.015625)"/>
      <path id="DejaVuSans-Oblique-69" d="M 1172 4863 
L 1747 4863 
L 1606 4134 
L 1031 4134 
L 1172 4863 
z
M 909 3500 
L 1484 3500 
L 800 0 
L 225 0 
L 909 3500 
z
" transform="scale(0.015625)"/>
      <path id="DejaVuSans-Oblique-65" d="M 3078 2063 
Q 3088 2113 3092 2166 
Q 3097 2219 3097 2272 
Q 3097 2653 2873 2875 
Q 2650 3097 2266 3097 
Q 1838 3097 1509 2826 
Q 1181 2556 1013 2059 
L 3078 2063 
z
M 3578 1613 
L 903 1613 
Q 884 1494 878 1425 
Q 872 1356 872 1306 
Q 872 872 1139 634 
Q 1406 397 1894 397 
Q 2269 397 2603 481 
Q 2938 566 3225 728 
L 3116 159 
Q 2806 34 2476 -28 
Q 2147 -91 1806 -91 
Q 1078 -91 686 257 
Q 294 606 294 1247 
Q 294 1794 489 2264 
Q 684 2734 1063 3103 
Q 1306 3334 1642 3459 
Q 1978 3584 2356 3584 
Q 2950 3584 3301 3228 
Q 3653 2872 3653 2272 
Q 3653 2128 3634 1964 
Q 3616 1800 3578 1613 
z
" transform="scale(0.015625)"/>
      <path id="DejaVuSans-Oblique-66" d="M 3059 4863 
L 2969 4384 
L 2419 4384 
Q 2106 4384 1964 4261 
Q 1822 4138 1753 3809 
L 1691 3500 
L 2638 3500 
L 2553 3053 
L 1606 3053 
L 1013 0 
L 434 0 
L 1031 3053 
L 481 3053 
L 563 3500 
L 1113 3500 
L 1159 3744 
Q 1278 4363 1576 4613 
Q 1875 4863 2516 4863 
L 3059 4863 
z
" transform="scale(0.015625)"/>
      <path id="DejaVuSans-Oblique-20" transform="scale(0.015625)"/>
      <path id="DejaVuSans-Oblique-30" d="M 2444 4750 
Q 3078 4750 3414 4328 
Q 3750 3906 3750 3116 
Q 3750 2516 3592 1923 
Q 3434 1331 3150 863 
Q 2859 394 2467 151 
Q 2075 -91 1600 -91 
Q 988 -91 653 334 
Q 319 759 319 1544 
Q 319 2138 480 2733 
Q 641 3328 928 3794 
Q 1216 4263 1602 4506 
Q 1988 4750 2444 4750 
z
M 2406 4250 
Q 2169 4250 1955 4123 
Q 1741 3997 1569 3750 
Q 1281 3338 1111 2720 
Q 941 2103 941 1453 
Q 941 938 1123 673 
Q 1306 409 1663 409 
Q 1913 409 2125 536 
Q 2338 663 2509 909 
Q 2794 1319 2961 1936 
Q 3128 2553 3128 3206 
Q 3128 3722 2945 3986 
Q 2763 4250 2406 4250 
z
" transform="scale(0.015625)"/>
     </defs>
     <use xlink:href="#DejaVuSans-Oblique-54"/>
     <use xlink:href="#DejaVuSans-Oblique-69" transform="translate(61.083984 0)"/>
     <use xlink:href="#DejaVuSans-Oblique-65" transform="translate(88.867188 0)"/>
     <use xlink:href="#DejaVuSans-Oblique-66" transform="translate(150.390625 0)"/>
     <use xlink:href="#DejaVuSans-Oblique-65" transform="translate(185.595703 0)"/>
     <use xlink:href="#DejaVuSans-Oblique-20" transform="translate(247.119141 0)"/>
     <use xlink:href="#DejaVuSans-Oblique-30" transform="translate(278.90625 0)"/>
    </g>
   </g>
   <g id="text_12">
    <!-- Tiefe 1 -->
    <g style="fill: #8fa3bb" transform="translate(559.744816 228.999801) scale(0.09 -0.09)">
     <defs>
      <path id="DejaVuSans-Oblique-31" d="M 416 531 
L 1447 531 
L 2144 4122 
L 978 3897 
L 1088 4441 
L 2247 4666 
L 2881 4666 
L 2075 531 
L 3103 531 
L 3003 0 
L 313 0 
L 416 531 
z
" transform="scale(0.015625)"/>
     </defs>
     <use xlink:href="#DejaVuSans-Oblique-54"/>
     <use xlink:href="#DejaVuSans-Oblique-69" transform="translate(61.083984 0)"/>
     <use xlink:href="#DejaVuSans-Oblique-65" transform="translate(88.867188 0)"/>
     <use xlink:href="#DejaVuSans-Oblique-66" transform="translate(150.390625 0)"/>
     <use xlink:href="#DejaVuSans-Oblique-65" transform="translate(185.595703 0)"/>
     <use xlink:href="#DejaVuSans-Oblique-20" transform="translate(247.119141 0)"/>
     <use xlink:href="#DejaVuSans-Oblique-31" transform="translate(278.90625 0)"/>
    </g>
   </g>
   <g id="text_13">
    <!-- Tiefe 2 -->
    <g style="fill: #8fa3bb" transform="translate(559.744816 337.264528) scale(0.09 -0.09)">
     <defs>
      <path id="DejaVuSans-Oblique-32" d="M 2950 2253 
L 934 525 
L 3163 525 
L 3053 0 
L 25 0 
L 128 531 
L 2234 2338 
Q 2656 2703 2832 2979 
Q 3009 3256 3009 3547 
Q 3009 3850 2796 4040 
Q 2584 4231 2241 4231 
Q 1944 4231 1581 4125 
Q 1219 4019 806 3816 
L 922 4441 
Q 1309 4594 1662 4672 
Q 2016 4750 2316 4750 
Q 2928 4750 3301 4425 
Q 3675 4100 3675 3572 
Q 3675 3216 3497 2892 
Q 3319 2569 2950 2253 
z
" transform="scale(0.015625)"/>
     </defs>
     <use xlink:href="#DejaVuSans-Oblique-54"/>
     <use xlink:href="#DejaVuSans-Oblique-69" transform="translate(61.083984 0)"/>
     <use xlink:href="#DejaVuSans-Oblique-65" transform="translate(88.867188 0)"/>
     <use xlink:href="#DejaVuSans-Oblique-66" transform="translate(150.390625 0)"/>
     <use xlink:href="#DejaVuSans-Oblique-65" transform="translate(185.595703 0)"/>
     <use xlink:href="#DejaVuSans-Oblique-20" transform="translate(247.119141 0)"/>
     <use xlink:href="#DejaVuSans-Oblique-32" transform="translate(278.90625 0)"/>
    </g>
   </g>
   <g id="patch_11">
    <path d="M 354.718201 55.972491 
Q 354.718201 70.88683 354.718201 84.124119 
" style="fill: none; stroke: #1e6b3c; stroke-width: 1.5; stroke-linecap: round"/>
    <path d="M 356.718201 80.124119 
L 354.718201 84.124119 
L 352.718201 80.124119 
z
" style="fill: #1e6b3c; stroke: #1e6b3c; stroke-width: 1.5; stroke-linecap: round"/>
   </g>
   <g id="text_14">
    <!-- akzeptiert -->
    <g style="fill: #1e6b3c" transform="translate(325.787732 47.202909) scale(0.1 -0.1)">
     <defs>
      <path id="DejaVuSans-Bold-7a" d="M 366 3500 
L 3419 3500 
L 3419 2719 
L 1575 800 
L 3419 800 
L 3419 0 
L 288 0 
L 288 781 
L 2131 2700 
L 366 2700 
L 366 3500 
z
" transform="scale(0.015625)"/>
      <path id="DejaVuSans-Bold-70" d="M 1656 506 
L 1656 -1331 
L 538 -1331 
L 538 3500 
L 1656 3500 
L 1656 2988 
Q 1888 3294 2169 3439 
Q 2450 3584 2816 3584 
Q 3463 3584 3878 3070 
Q 4294 2556 4294 1747 
Q 4294 938 3878 423 
Q 3463 -91 2816 -91 
Q 2450 -91 2169 54 
Q 1888 200 1656 506 
z
M 2400 2772 
Q 2041 2772 1848 2508 
Q 1656 2244 1656 1747 
Q 1656 1250 1848 986 
Q 2041 722 2400 722 
Q 2759 722 2948 984 
Q 3138 1247 3138 1747 
Q 3138 2247 2948 2509 
Q 2759 2772 2400 2772 
z
" transform="scale(0.015625)"/>
      <path id="DejaVuSans-Bold-74" d="M 1759 4494 
L 1759 3500 
L 2913 3500 
L 2913 2700 
L 1759 2700 
L 1759 1216 
Q 1759 972 1856 886 
Q 1953 800 2241 800 
L 2816 800 
L 2816 0 
L 1856 0 
Q 1194 0 917 276 
Q 641 553 641 1216 
L 641 2700 
L 84 2700 
L 84 3500 
L 641 3500 
L 641 4494 
L 1759 4494 
z
" transform="scale(0.015625)"/>
      <path id="DejaVuSans-Bold-69" d="M 538 3500 
L 1656 3500 
L 1656 0 
L 538 0 
L 538 3500 
z
M 538 4863 
L 1656 4863 
L 1656 3950 
L 538 3950 
L 538 4863 
z
" transform="scale(0.015625)"/>
      <path id="DejaVuSans-Bold-72" d="M 3138 2547 
Q 2991 2616 2845 2648 
Q 2700 2681 2553 2681 
Q 2122 2681 1889 2404 
Q 1656 2128 1656 1613 
L 1656 0 
L 538 0 
L 538 3500 
L 1656 3500 
L 1656 2925 
Q 1872 3269 2151 3426 
Q 2431 3584 2822 3584 
Q 2878 3584 2943 3579 
Q 3009 3575 3134 3559 
L 3138 2547 
z
" transform="scale(0.015625)"/>
     </defs>
     <use xlink:href="#DejaVuSans-Bold-61"/>
     <use xlink:href="#DejaVuSans-Bold-6b" transform="translate(67.480469 0)"/>
     <use xlink:href="#DejaVuSans-Bold-7a" transform="translate(133.984375 0)"/>
     <use xlink:href="#DejaVuSans-Bold-65" transform="translate(192.1875 0)"/>
     <use xlink:href="#DejaVuSans-Bold-70" transform="translate(260.009766 0)"/>
     <use xlink:href="#DejaVuSans-Bold-74" transform="translate(331.591797 0)"/>
     <use xlink:href="#DejaVuSans-Bold-69" transform="translate(379.394531 0)"/>
     <use xlink:href="#DejaVuSans-Bold-65" transform="translate(413.671875 0)"/>
     <use xlink:href="#DejaVuSans-Bold-72" transform="translate(481.494141 0)"/>
     <use xlink:href="#DejaVuSans-Bold-74" transform="translate(530.810547 0)"/>
    </g>
   </g>
  </g>
  <g id="text_15">
   <!-- Centre-Point: alle Pfade von $v$ enden nach genau $n = 2$ Schritten in Sackgassen -->
   <g style="fill: #1c3a5e" transform="translate(52.817504 15.56) scale(0.11 -0.11)">
    <defs>
     <path id="DejaVuSans-Bold-2d" d="M 347 2297 
L 2309 2297 
L 2309 1388 
L 347 1388 
L 347 2297 
z
" transform="scale(0.015625)"/>
     <path id="DejaVuSans-Bold-6f" d="M 2203 2784 
Q 1831 2784 1636 2517 
Q 1441 2250 1441 1747 
Q 1441 1244 1636 976 
Q 1831 709 2203 709 
Q 2569 709 2762 976 
Q 2956 1244 2956 1747 
Q 2956 2250 2762 2517 
Q 2569 2784 2203 2784 
z
M 2203 3584 
Q 3106 3584 3614 3096 
Q 4122 2609 4122 1747 
Q 4122 884 3614 396 
Q 3106 -91 2203 -91 
Q 1297 -91 786 396 
Q 275 884 275 1747 
Q 275 2609 786 3096 
Q 1297 3584 2203 3584 
z
" transform="scale(0.015625)"/>
     <path id="DejaVuSans-Bold-3a" d="M 716 3500 
L 1844 3500 
L 1844 2291 
L 716 2291 
L 716 3500 
z
M 716 1209 
L 1844 1209 
L 1844 0 
L 716 0 
L 716 1209 
z
" transform="scale(0.015625)"/>
     <path id="DejaVuSans-Bold-6c" d="M 538 4863 
L 1656 4863 
L 1656 0 
L 538 0 
L 538 4863 
z
" transform="scale(0.015625)"/>
     <path id="DejaVuSans-Bold-66" d="M 2841 4863 
L 2841 4128 
L 2222 4128 
Q 1984 4128 1890 4042 
Q 1797 3956 1797 3744 
L 1797 3500 
L 2753 3500 
L 2753 2700 
L 1797 2700 
L 1797 0 
L 678 0 
L 678 2700 
L 122 2700 
L 122 3500 
L 678 3500 
L 678 3744 
Q 678 4316 997 4589 
Q 1316 4863 1984 4863 
L 2841 4863 
z
" transform="scale(0.015625)"/>
     <path id="DejaVuSans-Bold-64" d="M 2919 2988 
L 2919 4863 
L 4044 4863 
L 4044 0 
L 2919 0 
L 2919 506 
Q 2688 197 2409 53 
Q 2131 -91 1766 -91 
Q 1119 -91 703 423 
Q 288 938 288 1747 
Q 288 2556 703 3070 
Q 1119 3584 1766 3584 
Q 2128 3584 2408 3439 
Q 2688 3294 2919 2988 
z
M 2181 722 
Q 2541 722 2730 984 
Q 2919 1247 2919 1747 
Q 2919 2247 2730 2509 
Q 2541 2772 2181 2772 
Q 1825 2772 1636 2509 
Q 1447 2247 1447 1747 
Q 1447 1247 1636 984 
Q 1825 722 2181 722 
z
" transform="scale(0.015625)"/>
     <path id="DejaVuSans-Bold-76" d="M 97 3500 
L 1216 3500 
L 2088 1081 
L 2956 3500 
L 4078 3500 
L 2700 0 
L 1472 0 
L 97 3500 
z
" transform="scale(0.015625)"/>
     <path id="DejaVuSans-Bold-68" d="M 4056 2131 
L 4056 0 
L 2931 0 
L 2931 347 
L 2931 1625 
Q 2931 2084 2911 2256 
Q 2891 2428 2841 2509 
Q 2775 2619 2662 2680 
Q 2550 2741 2406 2741 
Q 2056 2741 1856 2470 
Q 1656 2200 1656 1722 
L 1656 0 
L 538 0 
L 538 4863 
L 1656 4863 
L 1656 2988 
Q 1909 3294 2193 3439 
Q 2478 3584 2822 3584 
Q 3428 3584 3742 3212 
Q 4056 2841 4056 2131 
z
" transform="scale(0.015625)"/>
     <path id="DejaVuSans-Bold-75" d="M 500 1363 
L 500 3500 
L 1625 3500 
L 1625 3150 
Q 1625 2866 1622 2436 
Q 1619 2006 1619 1863 
Q 1619 1441 1641 1255 
Q 1663 1069 1716 984 
Q 1784 875 1895 815 
Q 2006 756 2150 756 
Q 2500 756 2700 1025 
Q 2900 1294 2900 1772 
L 2900 3500 
L 4019 3500 
L 4019 0 
L 2900 0 
L 2900 506 
Q 2647 200 2364 54 
Q 2081 -91 1741 -91 
Q 1134 -91 817 281 
Q 500 653 500 1363 
z
" transform="scale(0.015625)"/>
     <path id="DejaVuSans-Oblique-6e" d="M 3566 2113 
L 3156 0 
L 2578 0 
L 2988 2091 
Q 3016 2238 3031 2350 
Q 3047 2463 3047 2528 
Q 3047 2791 2881 2937 
Q 2716 3084 2419 3084 
Q 1956 3084 1622 2776 
Q 1288 2469 1184 1941 
L 800 0 
L 225 0 
L 903 3500 
L 1478 3500 
L 1363 2950 
Q 1603 3253 1940 3418 
Q 2278 3584 2650 3584 
Q 3113 3584 3367 3334 
Q 3622 3084 3622 2631 
Q 3622 2519 3608 2391 
Q 3594 2263 3566 2113 
z
" transform="scale(0.015625)"/>
     <path id="DejaVuSans-3d" d="M 678 2906 
L 4684 2906 
L 4684 2381 
L 678 2381 
L 678 2906 
z
M 678 1631 
L 4684 1631 
L 4684 1100 
L 678 1100 
L 678 1631 
z
" transform="scale(0.015625)"/>
    </defs>
    <use xlink:href="#DejaVuSans-Bold-43" transform="translate(0 0.015625)"/>
    <use xlink:href="#DejaVuSans-Bold-65" transform="translate(73.388672 0.015625)"/>
    <use xlink:href="#DejaVuSans-Bold-6e" transform="translate(141.210938 0.015625)"/>
    <use xlink:href="#DejaVuSans-Bold-74" transform="translate(212.402344 0.015625)"/>
    <use xlink:href="#DejaVuSans-Bold-72" transform="translate(260.205078 0.015625)"/>
    <use xlink:href="#DejaVuSans-Bold-65" transform="translate(309.521484 0.015625)"/>
    <use xlink:href="#DejaVuSans-Bold-2d" transform="translate(377.34375 0.015625)"/>
    <use xlink:href="#DejaVuSans-Bold-50" transform="translate(418.847656 0.015625)"/>
    <use xlink:href="#DejaVuSans-Bold-6f" transform="translate(492.138672 0.015625)"/>
    <use xlink:href="#DejaVuSans-Bold-69" transform="translate(560.839844 0.015625)"/>
    <use xlink:href="#DejaVuSans-Bold-6e" transform="translate(595.117188 0.015625)"/>
    <use xlink:href="#DejaVuSans-Bold-74" transform="translate(666.308594 0.015625)"/>
    <use xlink:href="#DejaVuSans-Bold-3a" transform="translate(714.111328 0.015625)"/>
    <use xlink:href="#DejaVuSans-Bold-20" transform="translate(754.101562 0.015625)"/>
    <use xlink:href="#DejaVuSans-Bold-61" transform="translate(788.916016 0.015625)"/>
    <use xlink:href="#DejaVuSans-Bold-6c" transform="translate(856.396484 0.015625)"/>
    <use xlink:href="#DejaVuSans-Bold-6c" transform="translate(890.673828 0.015625)"/>
    <use xlink:href="#DejaVuSans-Bold-65" transform="translate(924.951172 0.015625)"/>
    <use xlink:href="#DejaVuSans-Bold-20" transform="translate(992.773438 0.015625)"/>
    <use xlink:href="#DejaVuSans-Bold-50" transform="translate(1027.587891 0.015625)"/>
    <use xlink:href="#DejaVuSans-Bold-66" transform="translate(1100.878906 0.015625)"/>
    <use xlink:href="#DejaVuSans-Bold-61" transform="translate(1144.384766 0.015625)"/>
    <use xlink:href="#DejaVuSans-Bold-64" transform="translate(1211.865234 0.015625)"/>
    <use xlink:href="#DejaVuSans-Bold-65" transform="translate(1283.447266 0.015625)"/>
    <use xlink:href="#DejaVuSans-Bold-20" transform="translate(1351.269531 0.015625)"/>
    <use xlink:href="#DejaVuSans-Bold-76" transform="translate(1386.083984 0.015625)"/>
    <use xlink:href="#DejaVuSans-Bold-6f" transform="translate(1451.269531 0.015625)"/>
    <use xlink:href="#DejaVuSans-Bold-6e" transform="translate(1519.970703 0.015625)"/>
    <use xlink:href="#DejaVuSans-Bold-20" transform="translate(1591.162109 0.015625)"/>
    <use xlink:href="#DejaVuSans-Oblique-76" transform="translate(1625.976562 0.015625)"/>
    <use xlink:href="#DejaVuSans-Bold-20" transform="translate(1685.15625 0.015625)"/>
    <use xlink:href="#DejaVuSans-Bold-65" transform="translate(1719.970703 0.015625)"/>
    <use xlink:href="#DejaVuSans-Bold-6e" transform="translate(1787.792969 0.015625)"/>
    <use xlink:href="#DejaVuSans-Bold-64" transform="translate(1858.984375 0.015625)"/>
    <use xlink:href="#DejaVuSans-Bold-65" transform="translate(1930.566406 0.015625)"/>
    <use xlink:href="#DejaVuSans-Bold-6e" transform="translate(1998.388672 0.015625)"/>
    <use xlink:href="#DejaVuSans-Bold-20" transform="translate(2069.580078 0.015625)"/>
    <use xlink:href="#DejaVuSans-Bold-6e" transform="translate(2104.394531 0.015625)"/>
    <use xlink:href="#DejaVuSans-Bold-61" transform="translate(2175.585938 0.015625)"/>
    <use xlink:href="#DejaVuSans-Bold-63" transform="translate(2243.066406 0.015625)"/>
    <use xlink:href="#DejaVuSans-Bold-68" transform="translate(2302.34375 0.015625)"/>
    <use xlink:href="#DejaVuSans-Bold-20" transform="translate(2373.535156 0.015625)"/>
    <use xlink:href="#DejaVuSans-Bold-67" transform="translate(2408.349609 0.015625)"/>
    <use xlink:href="#DejaVuSans-Bold-65" transform="translate(2479.931641 0.015625)"/>
    <use xlink:href="#DejaVuSans-Bold-6e" transform="translate(2547.753906 0.015625)"/>
    <use xlink:href="#DejaVuSans-Bold-61" transform="translate(2618.945312 0.015625)"/>
    <use xlink:href="#DejaVuSans-Bold-75" transform="translate(2686.425781 0.015625)"/>
    <use xlink:href="#DejaVuSans-Bold-20" transform="translate(2757.617188 0.015625)"/>
    <use xlink:href="#DejaVuSans-Oblique-6e" transform="translate(2792.431641 0.015625)"/>
    <use xlink:href="#DejaVuSans-3d" transform="translate(2875.292969 0.015625)"/>
    <use xlink:href="#DejaVuSans-32" transform="translate(2978.564453 0.015625)"/>
    <use xlink:href="#DejaVuSans-Bold-20" transform="translate(3042.1875 0.015625)"/>
    <use xlink:href="#DejaVuSans-Bold-53" transform="translate(3077.001953 0.015625)"/>
    <use xlink:href="#DejaVuSans-Bold-63" transform="translate(3149.023438 0.015625)"/>
    <use xlink:href="#DejaVuSans-Bold-68" transform="translate(3208.300781 0.015625)"/>
    <use xlink:href="#DejaVuSans-Bold-72" transform="translate(3279.492188 0.015625)"/>
    <use xlink:href="#DejaVuSans-Bold-69" transform="translate(3328.808594 0.015625)"/>
    <use xlink:href="#DejaVuSans-Bold-74" transform="translate(3363.085938 0.015625)"/>
    <use xlink:href="#DejaVuSans-Bold-74" transform="translate(3410.888672 0.015625)"/>
    <use xlink:href="#DejaVuSans-Bold-65" transform="translate(3458.691406 0.015625)"/>
    <use xlink:href="#DejaVuSans-Bold-6e" transform="translate(3526.513672 0.015625)"/>
    <use xlink:href="#DejaVuSans-Bold-20" transform="translate(3597.705078 0.015625)"/>
    <use xlink:href="#DejaVuSans-Bold-69" transform="translate(3632.519531 0.015625)"/>
    <use xlink:href="#DejaVuSans-Bold-6e" transform="translate(3666.796875 0.015625)"/>
    <use xlink:href="#DejaVuSans-Bold-20" transform="translate(3737.988281 0.015625)"/>
    <use xlink:href="#DejaVuSans-Bold-53" transform="translate(3772.802734 0.015625)"/>
    <use xlink:href="#DejaVuSans-Bold-61" transform="translate(3844.824219 0.015625)"/>
    <use xlink:href="#DejaVuSans-Bold-63" transform="translate(3912.304688 0.015625)"/>
    <use xlink:href="#DejaVuSans-Bold-6b" transform="translate(3971.582031 0.015625)"/>
    <use xlink:href="#DejaVuSans-Bold-67" transform="translate(4038.085938 0.015625)"/>
    <use xlink:href="#DejaVuSans-Bold-61" transform="translate(4109.667969 0.015625)"/>
    <use xlink:href="#DejaVuSans-Bold-73" transform="translate(4177.148438 0.015625)"/>
    <use xlink:href="#DejaVuSans-Bold-73" transform="translate(4236.669922 0.015625)"/>
    <use xlink:href="#DejaVuSans-Bold-65" transform="translate(4296.191406 0.015625)"/>
    <use xlink:href="#DejaVuSans-Bold-6e" transform="translate(4364.013672 0.015625)"/>
   </g>
  </g>
 </g>
 <defs>
  <clipPath id="pc49a83b1fb">
   <rect x="52.059865" y="23.52" width="546.737639" height="372.16"/>
  </clipPath>
 </defs>
</svg>
