<?xml version="1.0" encoding="utf-8" standalone="no"?>
<!DOCTYPE svg PUBLIC "-//W3C//DTD SVG 1.1//EN"
  "http://www.w3.org/Graphics/SVG/1.1/DTD/svg11.dtd">
<svg xmlns:xlink="http://www.w3.org/1999/xlink" width="966.96pt" height="288.874pt" viewBox="0 0 966.96 288.874" xmlns="http://www.w3.org/2000/svg" version="1.1">
 <metadata>
  <rdf:RDF xmlns:dc="http://purl.org/dc/elements/1.1/" xmlns:cc="http://creativecommons.org/ns#" xmlns:rdf="http://www.w3.org/1999/02/22-rdf-syntax-ns#">
   <cc:Work>
    <dc:type rdf:resource="http://purl.org/dc/dcmitype/StillImage"/>
    <dc:date>2026-06-06T18:16:59.414730</dc:date>
    <dc:format>image/svg+xml</dc:format>
    <dc:creator>
     <cc:Agent>
      <dc:title>Matplotlib v3.10.9, https://matplotlib.org/</dc:title>
     </cc:Agent>
    </dc:creator>
   </cc:Work>
  </rdf:RDF>
 </metadata>
 <defs>
  <style type="text/css">*{stroke-linejoin: round; stroke-linecap: butt}</style>
 </defs>
 <g id="figure_1">
  <g id="patch_1">
   <path d="M 0 288.874 
L 966.96 288.874 
L 966.96 0 
L 0 0 
z
" style="fill: #ffffff"/>
  </g>
  <g id="axes_1">
   <g id="patch_2">
    <path d="M 7.2 248.88 
L 218.88 248.88 
L 218.88 51.888 
L 7.2 51.888 
z
" style="fill: #f4f8fc"/>
   </g>
   <g id="patch_3">
    <path d="M 62.878403 144.912 
Q 64.932358 144.912 65.309261 144.912 
" clip-path="url(#pe7a62bfbb9)" style="fill: none; stroke: #dce9f7; stroke-width: 1.5; stroke-linecap: round"/>
    <path d="M 56.509261 140.512 
L 65.309261 144.912 
L 56.509261 149.312 
z
" clip-path="url(#pe7a62bfbb9)" style="fill: #dce9f7; stroke: #dce9f7; stroke-width: 1.5; stroke-linecap: round"/>
   </g>
   <g id="patch_4">
    <path d="M 110.987494 144.912 
Q 113.041449 144.912 113.418352 144.912 
" clip-path="url(#pe7a62bfbb9)" style="fill: none; stroke: #dce9f7; stroke-width: 1.5; stroke-linecap: round"/>
    <path d="M 104.618352 140.512 
L 113.418352 144.912 
L 104.618352 149.312 
z
" clip-path="url(#pe7a62bfbb9)" style="fill: #dce9f7; stroke: #dce9f7; stroke-width: 1.5; stroke-linecap: round"/>
   </g>
   <g id="patch_5">
    <path d="M 159.096585 144.912 
Q 161.15054 144.912 161.527443 144.912 
" clip-path="url(#pe7a62bfbb9)" style="fill: none; stroke: #dce9f7; stroke-width: 1.5; stroke-linecap: round"/>
    <path d="M 152.727443 140.512 
L 161.527443 144.912 
L 152.727443 149.312 
z
" clip-path="url(#pe7a62bfbb9)" style="fill: #dce9f7; stroke: #dce9f7; stroke-width: 1.5; stroke-linecap: round"/>
   </g>
   <g id="matplotlib.axis_1"/>
   <g id="matplotlib.axis_2"/>
   <g id="PathCollection_1">
    <defs>
     <path id="C0_0_d71653ab32" d="M 0 17.320508 
C 4.593452 17.320508 8.999387 15.49551 12.247449 12.247449 
C 15.49551 8.999387 17.320508 4.593452 17.320508 -0 
C 17.320508 -4.593452 15.49551 -8.999387 12.247449 -12.247449 
C 8.999387 -15.49551 4.593452 -17.320508 0 -17.320508 
C -4.593452 -17.320508 -8.999387 -15.49551 -12.247449 -12.247449 
C -15.49551 -8.999387 -17.320508 -4.593452 -17.320508 0 
C -17.320508 4.593452 -15.49551 8.999387 -12.247449 12.247449 
C -8.999387 15.49551 -4.593452 17.320508 0 17.320508 
z
"/>
    </defs>
    <g clip-path="url(#pe7a62bfbb9)">
     <use xlink:href="#C0_0_d71653ab32" x="40.876364" y="144.912" style="fill: #1a4f8a; stroke: #ffffff; stroke-width: 2.5"/>
    </g>
    <g clip-path="url(#pe7a62bfbb9)">
     <use xlink:href="#C0_0_d71653ab32" x="88.985455" y="144.912" style="fill: #1a4f8a; stroke: #ffffff; stroke-width: 2.5"/>
    </g>
    <g clip-path="url(#pe7a62bfbb9)">
     <use xlink:href="#C0_0_d71653ab32" x="137.094545" y="144.912" style="fill: #1a4f8a; stroke: #ffffff; stroke-width: 2.5"/>
    </g>
    <g clip-path="url(#pe7a62bfbb9)">
     <use xlink:href="#C0_0_d71653ab32" x="185.203636" y="144.912" style="fill: #1e6b3c; stroke: #ffffff; stroke-width: 2.5"/>
    </g>
   </g>
   <g id="patch_6">
    <path d="M 7.2 248.88 
L 7.2 51.888 
" style="fill: none; stroke: #d0dce8; stroke-width: 0.8; stroke-linejoin: miter; stroke-linecap: square"/>
   </g>
   <g id="patch_7">
    <path d="M 218.88 248.88 
L 218.88 51.888 
" style="fill: none; stroke: #d0dce8; stroke-width: 0.8; stroke-linejoin: miter; stroke-linecap: square"/>
   </g>
   <g id="patch_8">
    <path d="M 7.2 248.88 
L 218.88 248.88 
" style="fill: none; stroke: #d0dce8; stroke-width: 0.8; stroke-linejoin: miter; stroke-linecap: square"/>
   </g>
   <g id="patch_9">
    <path d="M 7.2 51.888 
L 218.88 51.888 
" style="fill: none; stroke: #d0dce8; stroke-width: 0.8; stroke-linejoin: miter; stroke-linecap: square"/>
   </g>
   <g id="text_1">
    <g clip-path="url(#pe7a62bfbb9)">
     <!-- $v$ -->
     <g style="fill: #ffffff" transform="translate(36.976364 148.499187) scale(0.13 -0.13)">
      <defs>
       <path id="DejaVuSans-Oblique-76" d="M 459 3500 
L 1069 3500 
L 1581 525 
L 3256 3500 
L 3866 3500 
L 1875 0 
L 1100 0 
L 459 3500 
z
" transform="scale(0.015625)"/>
      </defs>
      <use xlink:href="#DejaVuSans-Oblique-76" transform="translate(0 0.3125)"/>
     </g>
    </g>
   </g>
   <g id="text_2">
    <g clip-path="url(#pe7a62bfbb9)">
     <!-- $u_1$ -->
     <g style="fill: #ffffff" transform="translate(81.770455 148.499187) scale(0.13 -0.13)">
      <defs>
       <path id="DejaVuSans-Oblique-75" d="M 428 1388 
L 838 3500 
L 1416 3500 
L 1006 1409 
Q 975 1256 961 1147 
Q 947 1038 947 966 
Q 947 700 1109 554 
Q 1272 409 1569 409 
Q 2031 409 2368 721 
Q 2706 1034 2809 1563 
L 3194 3500 
L 3769 3500 
L 3091 0 
L 2516 0 
L 2631 550 
Q 2388 244 2052 76 
Q 1716 -91 1338 -91 
Q 878 -91 622 161 
Q 366 413 366 863 
Q 366 956 381 1097 
Q 397 1238 428 1388 
z
" transform="scale(0.015625)"/>
       <path id="DejaVuSans-31" d="M 794 531 
L 1825 531 
L 1825 4091 
L 703 3866 
L 703 4441 
L 1819 4666 
L 2450 4666 
L 2450 531 
L 3481 531 
L 3481 0 
L 794 0 
L 794 531 
z
" transform="scale(0.015625)"/>
      </defs>
      <use xlink:href="#DejaVuSans-Oblique-75" transform="translate(0 0.3125)"/>
      <use xlink:href="#DejaVuSans-31" transform="translate(63.378906 -16.09375) scale(0.7)"/>
     </g>
    </g>
   </g>
   <g id="text_3">
    <g clip-path="url(#pe7a62bfbb9)">
     <!-- $u_2$ -->
     <g style="fill: #ffffff" transform="translate(129.879545 148.499187) scale(0.13 -0.13)">
      <defs>
       <path id="DejaVuSans-32" d="M 1228 531 
L 3431 531 
L 3431 0 
L 469 0 
L 469 531 
Q 828 903 1448 1529 
Q 2069 2156 2228 2338 
Q 2531 2678 2651 2914 
Q 2772 3150 2772 3378 
Q 2772 3750 2511 3984 
Q 2250 4219 1831 4219 
Q 1534 4219 1204 4116 
Q 875 4013 500 3803 
L 500 4441 
Q 881 4594 1212 4672 
Q 1544 4750 1819 4750 
Q 2544 4750 2975 4387 
Q 3406 4025 3406 3419 
Q 3406 3131 3298 2873 
Q 3191 2616 2906 2266 
Q 2828 2175 2409 1742 
Q 1991 1309 1228 531 
z
" transform="scale(0.015625)"/>
      </defs>
      <use xlink:href="#DejaVuSans-Oblique-75" transform="translate(0 0.3125)"/>
      <use xlink:href="#DejaVuSans-32" transform="translate(63.378906 -16.09375) scale(0.7)"/>
     </g>
    </g>
   </g>
   <g id="text_4">
    <g clip-path="url(#pe7a62bfbb9)">
     <!-- $p$ -->
     <g style="fill: #ffffff" transform="translate(181.043636 148.472781) scale(0.13 -0.13)">
      <defs>
       <path id="DejaVuSans-Oblique-70" d="M 3175 2156 
Q 3175 2616 2975 2859 
Q 2775 3103 2400 3103 
Q 2144 3103 1911 2972 
Q 1678 2841 1497 2591 
Q 1319 2344 1212 1994 
Q 1106 1644 1106 1300 
Q 1106 863 1306 627 
Q 1506 391 1875 391 
Q 2147 391 2380 519 
Q 2613 647 2778 891 
Q 2956 1147 3065 1494 
Q 3175 1841 3175 2156 
z
M 1394 2969 
Q 1625 3272 1939 3428 
Q 2253 3584 2638 3584 
Q 3175 3584 3472 3232 
Q 3769 2881 3769 2247 
Q 3769 1728 3584 1258 
Q 3400 788 3053 416 
Q 2822 169 2531 39 
Q 2241 -91 1919 -91 
Q 1547 -91 1294 64 
Q 1041 219 916 525 
L 556 -1331 
L -19 -1331 
L 922 3500 
L 1497 3500 
L 1394 2969 
z
" transform="scale(0.015625)"/>
      </defs>
      <use xlink:href="#DejaVuSans-Oblique-70"/>
     </g>
    </g>
   </g>
   <g id="text_5">
    <!-- 0 -->
    <g style="fill: #a0b4c8" transform="translate(37.376989 85.715544) scale(0.11 -0.11)">
     <defs>
      <path id="DejaVuSans-30" d="M 2034 4250 
Q 1547 4250 1301 3770 
Q 1056 3291 1056 2328 
Q 1056 1369 1301 889 
Q 1547 409 2034 409 
Q 2525 409 2770 889 
Q 3016 1369 3016 2328 
Q 3016 3291 2770 3770 
Q 2525 4250 2034 4250 
z
M 2034 4750 
Q 2819 4750 3233 4129 
Q 3647 3509 3647 2328 
Q 3647 1150 3233 529 
Q 2819 -91 2034 -91 
Q 1250 -91 836 529 
Q 422 1150 422 2328 
Q 422 3509 836 4129 
Q 1250 4750 2034 4750 
z
" transform="scale(0.015625)"/>
     </defs>
     <use xlink:href="#DejaVuSans-30"/>
    </g>
   </g>
   <g id="text_6">
    <!-- 0 -->
    <g style="fill: #a0b4c8" transform="translate(85.48608 85.715544) scale(0.11 -0.11)">
     <use xlink:href="#DejaVuSans-30"/>
    </g>
   </g>
   <g id="text_7">
    <!-- 0 -->
    <g style="fill: #a0b4c8" transform="translate(133.59517 85.715544) scale(0.11 -0.11)">
     <use xlink:href="#DejaVuSans-30"/>
    </g>
   </g>
   <g id="text_8">
    <!-- 1 -->
    <g style="fill: #1e6b3c" transform="translate(181.376839 85.715544) scale(0.11 -0.11)">
     <defs>
      <path id="DejaVuSans-Bold-31" d="M 750 831 
L 1813 831 
L 1813 3847 
L 722 3622 
L 722 4441 
L 1806 4666 
L 2950 4666 
L 2950 831 
L 4013 831 
L 4013 0 
L 750 0 
L 750 831 
z
" transform="scale(0.015625)"/>
     </defs>
     <use xlink:href="#DejaVuSans-Bold-31"/>
    </g>
   </g>
   <g id="text_9">
    <!-- $t = 0$ -->
    <g style="fill: #1c3a5e" transform="translate(98.35 45.888) scale(0.13 -0.13)">
     <defs>
      <path id="DejaVuSans-Oblique-74" d="M 2706 3500 
L 2619 3053 
L 1472 3053 
L 1100 1153 
Q 1081 1047 1072 975 
Q 1063 903 1063 863 
Q 1063 663 1183 572 
Q 1303 481 1569 481 
L 2150 481 
L 2053 0 
L 1503 0 
Q 991 0 739 200 
Q 488 400 488 806 
Q 488 878 497 964 
Q 506 1050 525 1153 
L 897 3053 
L 409 3053 
L 500 3500 
L 978 3500 
L 1172 4494 
L 1747 4494 
L 1556 3500 
L 2706 3500 
z
" transform="scale(0.015625)"/>
      <path id="DejaVuSans-3d" d="M 678 2906 
L 4684 2906 
L 4684 2381 
L 678 2381 
L 678 2906 
z
M 678 1631 
L 4684 1631 
L 4684 1100 
L 678 1100 
L 678 1631 
z
" transform="scale(0.015625)"/>
     </defs>
     <use xlink:href="#DejaVuSans-Oblique-74" transform="translate(0 0.78125)"/>
     <use xlink:href="#DejaVuSans-3d" transform="translate(58.691406 0.78125)"/>
     <use xlink:href="#DejaVuSans-30" transform="translate(161.962891 0.78125)"/>
    </g>
   </g>
  </g>
  <g id="axes_2">
   <g id="patch_10">
    <path d="M 254.16 248.88 
L 465.84 248.88 
L 465.84 51.888 
L 254.16 51.888 
z
" style="fill: #f4f8fc"/>
   </g>
   <g id="patch_11">
    <path d="M 309.838403 144.912 
Q 311.892358 144.912 312.269261 144.912 
" clip-path="url(#p313c1f2252)" style="fill: none; stroke: #dce9f7; stroke-width: 1.5; stroke-linecap: round"/>
    <path d="M 303.469261 140.512 
L 312.269261 144.912 
L 303.469261 149.312 
z
" clip-path="url(#p313c1f2252)" style="fill: #dce9f7; stroke: #dce9f7; stroke-width: 1.5; stroke-linecap: round"/>
   </g>
   <g id="patch_12">
    <path d="M 357.947494 144.912 
Q 360.001449 144.912 360.378352 144.912 
" clip-path="url(#p313c1f2252)" style="fill: none; stroke: #dce9f7; stroke-width: 1.5; stroke-linecap: round"/>
    <path d="M 351.578352 140.512 
L 360.378352 144.912 
L 351.578352 149.312 
z
" clip-path="url(#p313c1f2252)" style="fill: #dce9f7; stroke: #dce9f7; stroke-width: 1.5; stroke-linecap: round"/>
   </g>
   <g id="patch_13">
    <path d="M 406.056585 144.912 
Q 408.11054 144.912 407.369409 144.912 
" clip-path="url(#p313c1f2252)" style="fill: none; stroke: #1e6b3c; stroke-width: 2.5; stroke-linecap: round"/>
    <path d="M 398.569409 140.512 
L 407.369409 144.912 
L 398.569409 149.312 
z
" clip-path="url(#p313c1f2252)" style="fill: #1e6b3c; stroke: #1e6b3c; stroke-width: 2.5; stroke-linecap: round"/>
   </g>
   <g id="matplotlib.axis_3"/>
   <g id="matplotlib.axis_4"/>
   <g id="PathCollection_2">
    <defs>
     <path id="C1_0_52c6d1953c" d="M 0 17.320508 
C 4.593452 17.320508 8.999387 15.49551 12.247449 12.247449 
C 15.49551 8.999387 17.320508 4.593452 17.320508 -0 
C 17.320508 -4.593452 15.49551 -8.999387 12.247449 -12.247449 
C 8.999387 -15.49551 4.593452 -17.320508 0 -17.320508 
C -4.593452 -17.320508 -8.999387 -15.49551 -12.247449 -12.247449 
C -15.49551 -8.999387 -17.320508 -4.593452 -17.320508 0 
C -17.320508 4.593452 -15.49551 8.999387 -12.247449 12.247449 
C -8.999387 15.49551 -4.593452 17.320508 0 17.320508 
z
"/>
    </defs>
    <g clip-path="url(#p313c1f2252)">
     <use xlink:href="#C1_0_52c6d1953c" x="287.836364" y="144.912" style="fill: #1a4f8a; stroke: #ffffff; stroke-width: 2.5"/>
    </g>
    <g clip-path="url(#p313c1f2252)">
     <use xlink:href="#C1_0_52c6d1953c" x="335.945455" y="144.912" style="fill: #1a4f8a; stroke: #ffffff; stroke-width: 2.5"/>
    </g>
    <g clip-path="url(#p313c1f2252)">
     <use xlink:href="#C1_0_52c6d1953c" x="384.054545" y="144.912" style="fill: #1e6b3c; stroke: #ffffff; stroke-width: 2.5"/>
    </g>
    <g clip-path="url(#p313c1f2252)">
     <use xlink:href="#C1_0_52c6d1953c" x="432.163636" y="144.912" style="fill: #1e6b3c; stroke: #ffffff; stroke-width: 2.5"/>
    </g>
   </g>
   <g id="patch_14">
    <path d="M 254.16 248.88 
L 254.16 51.888 
" style="fill: none; stroke: #d0dce8; stroke-width: 0.8; stroke-linejoin: miter; stroke-linecap: square"/>
   </g>
   <g id="patch_15">
    <path d="M 465.84 248.88 
L 465.84 51.888 
" style="fill: none; stroke: #d0dce8; stroke-width: 0.8; stroke-linejoin: miter; stroke-linecap: square"/>
   </g>
   <g id="patch_16">
    <path d="M 254.16 248.88 
L 465.84 248.88 
" style="fill: none; stroke: #d0dce8; stroke-width: 0.8; stroke-linejoin: miter; stroke-linecap: square"/>
   </g>
   <g id="patch_17">
    <path d="M 254.16 51.888 
L 465.84 51.888 
" style="fill: none; stroke: #d0dce8; stroke-width: 0.8; stroke-linejoin: miter; stroke-linecap: square"/>
   </g>
   <g id="text_10">
    <g clip-path="url(#p313c1f2252)">
     <!-- $v$ -->
     <g style="fill: #ffffff" transform="translate(283.936364 148.499187) scale(0.13 -0.13)">
      <use xlink:href="#DejaVuSans-Oblique-76" transform="translate(0 0.3125)"/>
     </g>
    </g>
   </g>
   <g id="text_11">
    <g clip-path="url(#p313c1f2252)">
     <!-- $u_1$ -->
     <g style="fill: #ffffff" transform="translate(328.730455 148.499187) scale(0.13 -0.13)">
      <use xlink:href="#DejaVuSans-Oblique-75" transform="translate(0 0.3125)"/>
      <use xlink:href="#DejaVuSans-31" transform="translate(63.378906 -16.09375) scale(0.7)"/>
     </g>
    </g>
   </g>
   <g id="text_12">
    <g clip-path="url(#p313c1f2252)">
     <!-- $u_2$ -->
     <g style="fill: #ffffff" transform="translate(376.839545 148.499187) scale(0.13 -0.13)">
      <use xlink:href="#DejaVuSans-Oblique-75" transform="translate(0 0.3125)"/>
      <use xlink:href="#DejaVuSans-32" transform="translate(63.378906 -16.09375) scale(0.7)"/>
     </g>
    </g>
   </g>
   <g id="text_13">
    <g clip-path="url(#p313c1f2252)">
     <!-- $p$ -->
     <g style="fill: #ffffff" transform="translate(428.003636 148.472781) scale(0.13 -0.13)">
      <use xlink:href="#DejaVuSans-Oblique-70"/>
     </g>
    </g>
   </g>
   <g id="text_14">
    <!-- 0 -->
    <g style="fill: #a0b4c8" transform="translate(284.336989 85.715544) scale(0.11 -0.11)">
     <use xlink:href="#DejaVuSans-30"/>
    </g>
   </g>
   <g id="text_15">
    <!-- 0 -->
    <g style="fill: #a0b4c8" transform="translate(332.44608 85.715544) scale(0.11 -0.11)">
     <use xlink:href="#DejaVuSans-30"/>
    </g>
   </g>
   <g id="text_16">
    <!-- 1 -->
    <g style="fill: #1e6b3c" transform="translate(380.227749 85.715544) scale(0.11 -0.11)">
     <use xlink:href="#DejaVuSans-Bold-31"/>
    </g>
   </g>
   <g id="text_17">
    <!-- 1 -->
    <g style="fill: #1e6b3c" transform="translate(428.336839 85.715544) scale(0.11 -0.11)">
     <use xlink:href="#DejaVuSans-Bold-31"/>
    </g>
   </g>
   <g id="text_18">
    <!-- $t = 1$ -->
    <g style="fill: #1c3a5e" transform="translate(345.31 45.888) scale(0.13 -0.13)">
     <use xlink:href="#DejaVuSans-Oblique-74" transform="translate(0 0.09375)"/>
     <use xlink:href="#DejaVuSans-3d" transform="translate(58.691406 0.09375)"/>
     <use xlink:href="#DejaVuSans-31" transform="translate(161.962891 0.09375)"/>
    </g>
   </g>
  </g>
  <g id="axes_3">
   <g id="patch_18">
    <path d="M 501.12 248.88 
L 712.8 248.88 
L 712.8 51.888 
L 501.12 51.888 
z
" style="fill: #f4f8fc"/>
   </g>
   <g id="patch_19">
    <path d="M 556.798403 144.912 
Q 558.852358 144.912 559.229261 144.912 
" clip-path="url(#p34cb708c73)" style="fill: none; stroke: #dce9f7; stroke-width: 1.5; stroke-linecap: round"/>
    <path d="M 550.429261 140.512 
L 559.229261 144.912 
L 550.429261 149.312 
z
" clip-path="url(#p34cb708c73)" style="fill: #dce9f7; stroke: #dce9f7; stroke-width: 1.5; stroke-linecap: round"/>
   </g>
   <g id="patch_20">
    <path d="M 604.907494 144.912 
Q 606.961449 144.912 606.220318 144.912 
" clip-path="url(#p34cb708c73)" style="fill: none; stroke: #1e6b3c; stroke-width: 2.5; stroke-linecap: round"/>
    <path d="M 597.420318 140.512 
L 606.220318 144.912 
L 597.420318 149.312 
z
" clip-path="url(#p34cb708c73)" style="fill: #1e6b3c; stroke: #1e6b3c; stroke-width: 2.5; stroke-linecap: round"/>
   </g>
   <g id="patch_21">
    <path d="M 653.016585 144.912 
Q 655.07054 144.912 654.329409 144.912 
" clip-path="url(#p34cb708c73)" style="fill: none; stroke: #1e6b3c; stroke-width: 2.5; stroke-linecap: round"/>
    <path d="M 645.529409 140.512 
L 654.329409 144.912 
L 645.529409 149.312 
z
" clip-path="url(#p34cb708c73)" style="fill: #1e6b3c; stroke: #1e6b3c; stroke-width: 2.5; stroke-linecap: round"/>
   </g>
   <g id="matplotlib.axis_5"/>
   <g id="matplotlib.axis_6"/>
   <g id="PathCollection_3">
    <defs>
     <path id="C2_0_85340b34ff" d="M 0 17.320508 
C 4.593452 17.320508 8.999387 15.49551 12.247449 12.247449 
C 15.49551 8.999387 17.320508 4.593452 17.320508 -0 
C 17.320508 -4.593452 15.49551 -8.999387 12.247449 -12.247449 
C 8.999387 -15.49551 4.593452 -17.320508 0 -17.320508 
C -4.593452 -17.320508 -8.999387 -15.49551 -12.247449 -12.247449 
C -15.49551 -8.999387 -17.320508 -4.593452 -17.320508 0 
C -17.320508 4.593452 -15.49551 8.999387 -12.247449 12.247449 
C -8.999387 15.49551 -4.593452 17.320508 0 17.320508 
z
"/>
    </defs>
    <g clip-path="url(#p34cb708c73)">
     <use xlink:href="#C2_0_85340b34ff" x="534.796364" y="144.912" style="fill: #1a4f8a; stroke: #ffffff; stroke-width: 2.5"/>
    </g>
    <g clip-path="url(#p34cb708c73)">
     <use xlink:href="#C2_0_85340b34ff" x="582.905455" y="144.912" style="fill: #1e6b3c; stroke: #ffffff; stroke-width: 2.5"/>
    </g>
    <g clip-path="url(#p34cb708c73)">
     <use xlink:href="#C2_0_85340b34ff" x="631.014545" y="144.912" style="fill: #1e6b3c; stroke: #ffffff; stroke-width: 2.5"/>
    </g>
    <g clip-path="url(#p34cb708c73)">
     <use xlink:href="#C2_0_85340b34ff" x="679.123636" y="144.912" style="fill: #1e6b3c; stroke: #ffffff; stroke-width: 2.5"/>
    </g>
   </g>
   <g id="patch_22">
    <path d="M 501.12 248.88 
L 501.12 51.888 
" style="fill: none; stroke: #d0dce8; stroke-width: 0.8; stroke-linejoin: miter; stroke-linecap: square"/>
   </g>
   <g id="patch_23">
    <path d="M 712.8 248.88 
L 712.8 51.888 
" style="fill: none; stroke: #d0dce8; stroke-width: 0.8; stroke-linejoin: miter; stroke-linecap: square"/>
   </g>
   <g id="patch_24">
    <path d="M 501.12 248.88 
L 712.8 248.88 
" style="fill: none; stroke: #d0dce8; stroke-width: 0.8; stroke-linejoin: miter; stroke-linecap: square"/>
   </g>
   <g id="patch_25">
    <path d="M 501.12 51.888 
L 712.8 51.888 
" style="fill: none; stroke: #d0dce8; stroke-width: 0.8; stroke-linejoin: miter; stroke-linecap: square"/>
   </g>
   <g id="text_19">
    <g clip-path="url(#p34cb708c73)">
     <!-- $v$ -->
     <g style="fill: #ffffff" transform="translate(530.896364 148.499187) scale(0.13 -0.13)">
      <use xlink:href="#DejaVuSans-Oblique-76" transform="translate(0 0.3125)"/>
     </g>
    </g>
   </g>
   <g id="text_20">
    <g clip-path="url(#p34cb708c73)">
     <!-- $u_1$ -->
     <g style="fill: #ffffff" transform="translate(575.690455 148.499187) scale(0.13 -0.13)">
      <use xlink:href="#DejaVuSans-Oblique-75" transform="translate(0 0.3125)"/>
      <use xlink:href="#DejaVuSans-31" transform="translate(63.378906 -16.09375) scale(0.7)"/>
     </g>
    </g>
   </g>
   <g id="text_21">
    <g clip-path="url(#p34cb708c73)">
     <!-- $u_2$ -->
     <g style="fill: #ffffff" transform="translate(623.799545 148.499187) scale(0.13 -0.13)">
      <use xlink:href="#DejaVuSans-Oblique-75" transform="translate(0 0.3125)"/>
      <use xlink:href="#DejaVuSans-32" transform="translate(63.378906 -16.09375) scale(0.7)"/>
     </g>
    </g>
   </g>
   <g id="text_22">
    <g clip-path="url(#p34cb708c73)">
     <!-- $p$ -->
     <g style="fill: #ffffff" transform="translate(674.963636 148.472781) scale(0.13 -0.13)">
      <use xlink:href="#DejaVuSans-Oblique-70"/>
     </g>
    </g>
   </g>
   <g id="text_23">
    <!-- 0 -->
    <g style="fill: #a0b4c8" transform="translate(531.296989 85.715544) scale(0.11 -0.11)">
     <use xlink:href="#DejaVuSans-30"/>
    </g>
   </g>
   <g id="text_24">
    <!-- 1 -->
    <g style="fill: #1e6b3c" transform="translate(579.078658 85.715544) scale(0.11 -0.11)">
     <use xlink:href="#DejaVuSans-Bold-31"/>
    </g>
   </g>
   <g id="text_25">
    <!-- 1 -->
    <g style="fill: #1e6b3c" transform="translate(627.187749 85.715544) scale(0.11 -0.11)">
     <use xlink:href="#DejaVuSans-Bold-31"/>
    </g>
   </g>
   <g id="text_26">
    <!-- 1 -->
    <g style="fill: #1e6b3c" transform="translate(675.296839 85.715544) scale(0.11 -0.11)">
     <use xlink:href="#DejaVuSans-Bold-31"/>
    </g>
   </g>
   <g id="text_27">
    <!-- $t = 2$ -->
    <g style="fill: #1c3a5e" transform="translate(592.27 45.888) scale(0.13 -0.13)">
     <use xlink:href="#DejaVuSans-Oblique-74" transform="translate(0 0.78125)"/>
     <use xlink:href="#DejaVuSans-3d" transform="translate(58.691406 0.78125)"/>
     <use xlink:href="#DejaVuSans-32" transform="translate(161.962891 0.78125)"/>
    </g>
   </g>
  </g>
  <g id="axes_4">
   <g id="patch_26">
    <path d="M 748.08 248.88 
L 959.76 248.88 
L 959.76 51.888 
L 748.08 51.888 
z
" style="fill: #e4f4ec"/>
   </g>
   <g id="patch_27">
    <path d="M 803.758403 144.912 
Q 805.812358 144.912 805.071227 144.912 
" clip-path="url(#pa131583a72)" style="fill: none; stroke: #1e6b3c; stroke-width: 2.5; stroke-linecap: round"/>
    <path d="M 796.271227 140.512 
L 805.071227 144.912 
L 796.271227 149.312 
z
" clip-path="url(#pa131583a72)" style="fill: #1e6b3c; stroke: #1e6b3c; stroke-width: 2.5; stroke-linecap: round"/>
   </g>
   <g id="patch_28">
    <path d="M 851.867494 144.912 
Q 853.921449 144.912 853.180318 144.912 
" clip-path="url(#pa131583a72)" style="fill: none; stroke: #1e6b3c; stroke-width: 2.5; stroke-linecap: round"/>
    <path d="M 844.380318 140.512 
L 853.180318 144.912 
L 844.380318 149.312 
z
" clip-path="url(#pa131583a72)" style="fill: #1e6b3c; stroke: #1e6b3c; stroke-width: 2.5; stroke-linecap: round"/>
   </g>
   <g id="patch_29">
    <path d="M 899.976585 144.912 
Q 902.03054 144.912 901.289409 144.912 
" clip-path="url(#pa131583a72)" style="fill: none; stroke: #1e6b3c; stroke-width: 2.5; stroke-linecap: round"/>
    <path d="M 892.489409 140.512 
L 901.289409 144.912 
L 892.489409 149.312 
z
" clip-path="url(#pa131583a72)" style="fill: #1e6b3c; stroke: #1e6b3c; stroke-width: 2.5; stroke-linecap: round"/>
   </g>
   <g id="matplotlib.axis_7"/>
   <g id="matplotlib.axis_8"/>
   <g id="PathCollection_4">
    <defs>
     <path id="C3_0_f609001666" d="M 0 17.320508 
C 4.593452 17.320508 8.999387 15.49551 12.247449 12.247449 
C 15.49551 8.999387 17.320508 4.593452 17.320508 -0 
C 17.320508 -4.593452 15.49551 -8.999387 12.247449 -12.247449 
C 8.999387 -15.49551 4.593452 -17.320508 0 -17.320508 
C -4.593452 -17.320508 -8.999387 -15.49551 -12.247449 -12.247449 
C -15.49551 -8.999387 -17.320508 -4.593452 -17.320508 0 
C -17.320508 4.593452 -15.49551 8.999387 -12.247449 12.247449 
C -8.999387 15.49551 -4.593452 17.320508 0 17.320508 
z
"/>
    </defs>
    <g clip-path="url(#pa131583a72)">
     <use xlink:href="#C3_0_f609001666" x="781.756364" y="144.912" style="fill: #1e6b3c; stroke: #ffffff; stroke-width: 2.5"/>
    </g>
    <g clip-path="url(#pa131583a72)">
     <use xlink:href="#C3_0_f609001666" x="829.865455" y="144.912" style="fill: #1e6b3c; stroke: #ffffff; stroke-width: 2.5"/>
    </g>
    <g clip-path="url(#pa131583a72)">
     <use xlink:href="#C3_0_f609001666" x="877.974545" y="144.912" style="fill: #1e6b3c; stroke: #ffffff; stroke-width: 2.5"/>
    </g>
    <g clip-path="url(#pa131583a72)">
     <use xlink:href="#C3_0_f609001666" x="926.083636" y="144.912" style="fill: #1e6b3c; stroke: #ffffff; stroke-width: 2.5"/>
    </g>
   </g>
   <g id="patch_30">
    <path d="M 748.08 248.88 
L 748.08 51.888 
" style="fill: none; stroke: #1e6b3c; stroke-width: 2.2; stroke-linejoin: miter; stroke-linecap: square"/>
   </g>
   <g id="patch_31">
    <path d="M 959.76 248.88 
L 959.76 51.888 
" style="fill: none; stroke: #1e6b3c; stroke-width: 2.2; stroke-linejoin: miter; stroke-linecap: square"/>
   </g>
   <g id="patch_32">
    <path d="M 748.08 248.88 
L 959.76 248.88 
" style="fill: none; stroke: #1e6b3c; stroke-width: 2.2; stroke-linejoin: miter; stroke-linecap: square"/>
   </g>
   <g id="patch_33">
    <path d="M 748.08 51.888 
L 959.76 51.888 
" style="fill: none; stroke: #1e6b3c; stroke-width: 2.2; stroke-linejoin: miter; stroke-linecap: square"/>
   </g>
   <g id="text_28">
    <g clip-path="url(#pa131583a72)">
     <!-- $v$ -->
     <g style="fill: #ffffff" transform="translate(777.856364 148.499187) scale(0.13 -0.13)">
      <use xlink:href="#DejaVuSans-Oblique-76" transform="translate(0 0.3125)"/>
     </g>
    </g>
   </g>
   <g id="text_29">
    <g clip-path="url(#pa131583a72)">
     <!-- $u_1$ -->
     <g style="fill: #ffffff" transform="translate(822.650455 148.499187) scale(0.13 -0.13)">
      <use xlink:href="#DejaVuSans-Oblique-75" transform="translate(0 0.3125)"/>
      <use xlink:href="#DejaVuSans-31" transform="translate(63.378906 -16.09375) scale(0.7)"/>
     </g>
    </g>
   </g>
   <g id="text_30">
    <g clip-path="url(#pa131583a72)">
     <!-- $u_2$ -->
     <g style="fill: #ffffff" transform="translate(870.759545 148.499187) scale(0.13 -0.13)">
      <use xlink:href="#DejaVuSans-Oblique-75" transform="translate(0 0.3125)"/>
      <use xlink:href="#DejaVuSans-32" transform="translate(63.378906 -16.09375) scale(0.7)"/>
     </g>
    </g>
   </g>
   <g id="text_31">
    <g clip-path="url(#pa131583a72)">
     <!-- $p$ -->
     <g style="fill: #ffffff" transform="translate(921.923636 148.472781) scale(0.13 -0.13)">
      <use xlink:href="#DejaVuSans-Oblique-70"/>
     </g>
    </g>
   </g>
   <g id="text_32">
    <!-- 1 -->
    <g style="fill: #1e6b3c" transform="translate(777.929567 85.715544) scale(0.11 -0.11)">
     <use xlink:href="#DejaVuSans-Bold-31"/>
    </g>
   </g>
   <g id="text_33">
    <!-- 1 -->
    <g style="fill: #1e6b3c" transform="translate(826.038658 85.715544) scale(0.11 -0.11)">
     <use xlink:href="#DejaVuSans-Bold-31"/>
    </g>
   </g>
   <g id="text_34">
    <!-- 1 -->
    <g style="fill: #1e6b3c" transform="translate(874.147749 85.715544) scale(0.11 -0.11)">
     <use xlink:href="#DejaVuSans-Bold-31"/>
    </g>
   </g>
   <g id="text_35">
    <!-- 1 -->
    <g style="fill: #1e6b3c" transform="translate(922.256839 85.715544) scale(0.11 -0.11)">
     <use xlink:href="#DejaVuSans-Bold-31"/>
    </g>
   </g>
   <g id="patch_34">
    <path d="M 781.756364 211.06646 
Q 781.756364 195.403846 781.756364 180.97107 
" style="fill: none; stroke: #1e6b3c; stroke-width: 1.1; stroke-linecap: round"/>
    <path d="M 780.056364 184.37107 
L 781.756364 180.97107 
L 783.456364 184.37107 
z
" style="fill: #1e6b3c; stroke: #1e6b3c; stroke-width: 1.1; stroke-linecap: round"/>
   </g>
   <g id="text_36">
    <!-- ACCEPT -->
    <g style="fill: #1e6b3c" transform="translate(763.311364 221.52) scale(0.085 -0.085)">
     <defs>
      <path id="DejaVuSans-Bold-41" d="M 3419 850 
L 1538 850 
L 1241 0 
L 31 0 
L 1759 4666 
L 3194 4666 
L 4922 0 
L 3713 0 
L 3419 850 
z
M 1838 1716 
L 3116 1716 
L 2478 3572 
L 1838 1716 
z
" transform="scale(0.015625)"/>
      <path id="DejaVuSans-Bold-43" d="M 4288 256 
Q 3956 84 3597 -3 
Q 3238 -91 2847 -91 
Q 1681 -91 1000 561 
Q 319 1213 319 2328 
Q 319 3447 1000 4098 
Q 1681 4750 2847 4750 
Q 3238 4750 3597 4662 
Q 3956 4575 4288 4403 
L 4288 3438 
Q 3953 3666 3628 3772 
Q 3303 3878 2944 3878 
Q 2300 3878 1931 3465 
Q 1563 3053 1563 2328 
Q 1563 1606 1931 1193 
Q 2300 781 2944 781 
Q 3303 781 3628 887 
Q 3953 994 4288 1222 
L 4288 256 
z
" transform="scale(0.015625)"/>
      <path id="DejaVuSans-Bold-45" d="M 588 4666 
L 3834 4666 
L 3834 3756 
L 1791 3756 
L 1791 2888 
L 3713 2888 
L 3713 1978 
L 1791 1978 
L 1791 909 
L 3903 909 
L 3903 0 
L 588 0 
L 588 4666 
z
" transform="scale(0.015625)"/>
      <path id="DejaVuSans-Bold-50" d="M 588 4666 
L 2584 4666 
Q 3475 4666 3951 4270 
Q 4428 3875 4428 3144 
Q 4428 2409 3951 2014 
Q 3475 1619 2584 1619 
L 1791 1619 
L 1791 0 
L 588 0 
L 588 4666 
z
M 1791 3794 
L 1791 2491 
L 2456 2491 
Q 2806 2491 2997 2661 
Q 3188 2831 3188 3144 
Q 3188 3456 2997 3625 
Q 2806 3794 2456 3794 
L 1791 3794 
z
" transform="scale(0.015625)"/>
      <path id="DejaVuSans-Bold-54" d="M 31 4666 
L 4331 4666 
L 4331 3756 
L 2784 3756 
L 2784 0 
L 1581 0 
L 1581 3756 
L 31 3756 
L 31 4666 
z
" transform="scale(0.015625)"/>
     </defs>
     <use xlink:href="#DejaVuSans-Bold-41"/>
     <use xlink:href="#DejaVuSans-Bold-43" transform="translate(77.392578 0)"/>
     <use xlink:href="#DejaVuSans-Bold-43" transform="translate(150.78125 0)"/>
     <use xlink:href="#DejaVuSans-Bold-45" transform="translate(224.169922 0)"/>
     <use xlink:href="#DejaVuSans-Bold-50" transform="translate(292.480469 0)"/>
     <use xlink:href="#DejaVuSans-Bold-54" transform="translate(365.771484 0)"/>
    </g>
   </g>
   <g id="text_37">
    <!-- $t = t^*$ -->
    <g style="fill: #1e6b3c" transform="translate(836.175 45.888) scale(0.13 -0.13)">
     <defs>
      <path id="DejaVuSans-2a" d="M 3009 3897 
L 1888 3291 
L 3009 2681 
L 2828 2375 
L 1778 3009 
L 1778 1831 
L 1422 1831 
L 1422 3009 
L 372 2375 
L 191 2681 
L 1313 3291 
L 191 3897 
L 372 4206 
L 1422 3572 
L 1422 4750 
L 1778 4750 
L 1778 3572 
L 2828 4206 
L 3009 3897 
z
" transform="scale(0.015625)"/>
     </defs>
     <use xlink:href="#DejaVuSans-Oblique-74" transform="translate(0 0.765625)"/>
     <use xlink:href="#DejaVuSans-3d" transform="translate(58.691406 0.765625)"/>
     <use xlink:href="#DejaVuSans-Oblique-74" transform="translate(161.962891 0.765625)"/>
     <use xlink:href="#DejaVuSans-2a" transform="translate(221.450091 39.046875) scale(0.7)"/>
    </g>
   </g>
  </g>
  <g id="text_38">
   <!-- → -->
   <g style="fill: #8fa3bb" transform="translate(220.580313 153.16675) scale(0.2 -0.2)">
    <defs>
     <path id="DejaVuSans-2192" d="M 5050 2147 
L 5050 1866 
L 3822 638 
L 3447 1013 
L 4175 1741 
L 366 1741 
L 366 2272 
L 4175 2272 
L 3447 3000 
L 3822 3375 
L 5050 2147 
z
" transform="scale(0.015625)"/>
    </defs>
    <use xlink:href="#DejaVuSans-2192"/>
   </g>
  </g>
  <g id="text_39">
   <!-- → -->
   <g style="fill: #8fa3bb" transform="translate(467.540312 153.16675) scale(0.2 -0.2)">
    <use xlink:href="#DejaVuSans-2192"/>
   </g>
  </g>
  <g id="text_40">
   <!-- → -->
   <g style="fill: #8fa3bb" transform="translate(714.500312 153.16675) scale(0.2 -0.2)">
    <use xlink:href="#DejaVuSans-2192"/>
   </g>
  </g>
  <g id="text_41">
   <!-- Erreichbarkeit von $p$ — Propagation durch rekurrentes GNN -->
   <g style="fill: #1c3a5e" transform="translate(280.08 16.32) scale(0.12 -0.12)">
    <defs>
     <path id="DejaVuSans-Bold-72" d="M 3138 2547 
Q 2991 2616 2845 2648 
Q 2700 2681 2553 2681 
Q 2122 2681 1889 2404 
Q 1656 2128 1656 1613 
L 1656 0 
L 538 0 
L 538 3500 
L 1656 3500 
L 1656 2925 
Q 1872 3269 2151 3426 
Q 2431 3584 2822 3584 
Q 2878 3584 2943 3579 
Q 3009 3575 3134 3559 
L 3138 2547 
z
" transform="scale(0.015625)"/>
     <path id="DejaVuSans-Bold-65" d="M 4031 1759 
L 4031 1441 
L 1416 1441 
Q 1456 1047 1700 850 
Q 1944 653 2381 653 
Q 2734 653 3104 758 
Q 3475 863 3866 1075 
L 3866 213 
Q 3469 63 3072 -14 
Q 2675 -91 2278 -91 
Q 1328 -91 801 392 
Q 275 875 275 1747 
Q 275 2603 792 3093 
Q 1309 3584 2216 3584 
Q 3041 3584 3536 3087 
Q 4031 2591 4031 1759 
z
M 2881 2131 
Q 2881 2450 2695 2645 
Q 2509 2841 2209 2841 
Q 1884 2841 1681 2658 
Q 1478 2475 1428 2131 
L 2881 2131 
z
" transform="scale(0.015625)"/>
     <path id="DejaVuSans-Bold-69" d="M 538 3500 
L 1656 3500 
L 1656 0 
L 538 0 
L 538 3500 
z
M 538 4863 
L 1656 4863 
L 1656 3950 
L 538 3950 
L 538 4863 
z
" transform="scale(0.015625)"/>
     <path id="DejaVuSans-Bold-63" d="M 3366 3391 
L 3366 2478 
Q 3138 2634 2908 2709 
Q 2678 2784 2431 2784 
Q 1963 2784 1702 2511 
Q 1441 2238 1441 1747 
Q 1441 1256 1702 982 
Q 1963 709 2431 709 
Q 2694 709 2930 787 
Q 3166 866 3366 1019 
L 3366 103 
Q 3103 6 2833 -42 
Q 2563 -91 2291 -91 
Q 1344 -91 809 395 
Q 275 881 275 1747 
Q 275 2613 809 3098 
Q 1344 3584 2291 3584 
Q 2566 3584 2833 3536 
Q 3100 3488 3366 3391 
z
" transform="scale(0.015625)"/>
     <path id="DejaVuSans-Bold-68" d="M 4056 2131 
L 4056 0 
L 2931 0 
L 2931 347 
L 2931 1625 
Q 2931 2084 2911 2256 
Q 2891 2428 2841 2509 
Q 2775 2619 2662 2680 
Q 2550 2741 2406 2741 
Q 2056 2741 1856 2470 
Q 1656 2200 1656 1722 
L 1656 0 
L 538 0 
L 538 4863 
L 1656 4863 
L 1656 2988 
Q 1909 3294 2193 3439 
Q 2478 3584 2822 3584 
Q 3428 3584 3742 3212 
Q 4056 2841 4056 2131 
z
" transform="scale(0.015625)"/>
     <path id="DejaVuSans-Bold-62" d="M 2400 722 
Q 2759 722 2948 984 
Q 3138 1247 3138 1747 
Q 3138 2247 2948 2509 
Q 2759 2772 2400 2772 
Q 2041 2772 1848 2508 
Q 1656 2244 1656 1747 
Q 1656 1250 1848 986 
Q 2041 722 2400 722 
z
M 1656 2988 
Q 1888 3294 2169 3439 
Q 2450 3584 2816 3584 
Q 3463 3584 3878 3070 
Q 4294 2556 4294 1747 
Q 4294 938 3878 423 
Q 3463 -91 2816 -91 
Q 2450 -91 2169 54 
Q 1888 200 1656 506 
L 1656 0 
L 538 0 
L 538 4863 
L 1656 4863 
L 1656 2988 
z
" transform="scale(0.015625)"/>
     <path id="DejaVuSans-Bold-61" d="M 2106 1575 
Q 1756 1575 1579 1456 
Q 1403 1338 1403 1106 
Q 1403 894 1545 773 
Q 1688 653 1941 653 
Q 2256 653 2472 879 
Q 2688 1106 2688 1447 
L 2688 1575 
L 2106 1575 
z
M 3816 1997 
L 3816 0 
L 2688 0 
L 2688 519 
Q 2463 200 2181 54 
Q 1900 -91 1497 -91 
Q 953 -91 614 226 
Q 275 544 275 1050 
Q 275 1666 698 1953 
Q 1122 2241 2028 2241 
L 2688 2241 
L 2688 2328 
Q 2688 2594 2478 2717 
Q 2269 2841 1825 2841 
Q 1466 2841 1156 2769 
Q 847 2697 581 2553 
L 581 3406 
Q 941 3494 1303 3539 
Q 1666 3584 2028 3584 
Q 2975 3584 3395 3211 
Q 3816 2838 3816 1997 
z
" transform="scale(0.015625)"/>
     <path id="DejaVuSans-Bold-6b" d="M 538 4863 
L 1656 4863 
L 1656 2216 
L 2944 3500 
L 4244 3500 
L 2534 1894 
L 4378 0 
L 3022 0 
L 1656 1459 
L 1656 0 
L 538 0 
L 538 4863 
z
" transform="scale(0.015625)"/>
     <path id="DejaVuSans-Bold-74" d="M 1759 4494 
L 1759 3500 
L 2913 3500 
L 2913 2700 
L 1759 2700 
L 1759 1216 
Q 1759 972 1856 886 
Q 1953 800 2241 800 
L 2816 800 
L 2816 0 
L 1856 0 
Q 1194 0 917 276 
Q 641 553 641 1216 
L 641 2700 
L 84 2700 
L 84 3500 
L 641 3500 
L 641 4494 
L 1759 4494 
z
" transform="scale(0.015625)"/>
     <path id="DejaVuSans-Bold-20" transform="scale(0.015625)"/>
     <path id="DejaVuSans-Bold-76" d="M 97 3500 
L 1216 3500 
L 2088 1081 
L 2956 3500 
L 4078 3500 
L 2700 0 
L 1472 0 
L 97 3500 
z
" transform="scale(0.015625)"/>
     <path id="DejaVuSans-Bold-6f" d="M 2203 2784 
Q 1831 2784 1636 2517 
Q 1441 2250 1441 1747 
Q 1441 1244 1636 976 
Q 1831 709 2203 709 
Q 2569 709 2762 976 
Q 2956 1244 2956 1747 
Q 2956 2250 2762 2517 
Q 2569 2784 2203 2784 
z
M 2203 3584 
Q 3106 3584 3614 3096 
Q 4122 2609 4122 1747 
Q 4122 884 3614 396 
Q 3106 -91 2203 -91 
Q 1297 -91 786 396 
Q 275 884 275 1747 
Q 275 2609 786 3096 
Q 1297 3584 2203 3584 
z
" transform="scale(0.015625)"/>
     <path id="DejaVuSans-Bold-6e" d="M 4056 2131 
L 4056 0 
L 2931 0 
L 2931 347 
L 2931 1631 
Q 2931 2084 2911 2256 
Q 2891 2428 2841 2509 
Q 2775 2619 2662 2680 
Q 2550 2741 2406 2741 
Q 2056 2741 1856 2470 
Q 1656 2200 1656 1722 
L 1656 0 
L 538 0 
L 538 3500 
L 1656 3500 
L 1656 2988 
Q 1909 3294 2193 3439 
Q 2478 3584 2822 3584 
Q 3428 3584 3742 3212 
Q 4056 2841 4056 2131 
z
" transform="scale(0.015625)"/>
     <path id="DejaVuSansDisplay-2014" d="M 313 1978 
L 6088 1978 
L 6088 1528 
L 313 1528 
L 313 1978 
z
" transform="scale(0.015625)"/>
     <path id="DejaVuSans-Bold-70" d="M 1656 506 
L 1656 -1331 
L 538 -1331 
L 538 3500 
L 1656 3500 
L 1656 2988 
Q 1888 3294 2169 3439 
Q 2450 3584 2816 3584 
Q 3463 3584 3878 3070 
Q 4294 2556 4294 1747 
Q 4294 938 3878 423 
Q 3463 -91 2816 -91 
Q 2450 -91 2169 54 
Q 1888 200 1656 506 
z
M 2400 2772 
Q 2041 2772 1848 2508 
Q 1656 2244 1656 1747 
Q 1656 1250 1848 986 
Q 2041 722 2400 722 
Q 2759 722 2948 984 
Q 3138 1247 3138 1747 
Q 3138 2247 2948 2509 
Q 2759 2772 2400 2772 
z
" transform="scale(0.015625)"/>
     <path id="DejaVuSans-Bold-67" d="M 2919 594 
Q 2688 288 2409 144 
Q 2131 0 1766 0 
Q 1125 0 706 504 
Q 288 1009 288 1791 
Q 288 2575 706 3076 
Q 1125 3578 1766 3578 
Q 2131 3578 2409 3434 
Q 2688 3291 2919 2981 
L 2919 3500 
L 4044 3500 
L 4044 353 
Q 4044 -491 3511 -936 
Q 2978 -1381 1966 -1381 
Q 1638 -1381 1331 -1331 
Q 1025 -1281 716 -1178 
L 716 -306 
Q 1009 -475 1290 -558 
Q 1572 -641 1856 -641 
Q 2406 -641 2662 -400 
Q 2919 -159 2919 353 
L 2919 594 
z
M 2181 2772 
Q 1834 2772 1640 2515 
Q 1447 2259 1447 1791 
Q 1447 1309 1634 1061 
Q 1822 813 2181 813 
Q 2531 813 2725 1069 
Q 2919 1325 2919 1791 
Q 2919 2259 2725 2515 
Q 2531 2772 2181 2772 
z
" transform="scale(0.015625)"/>
     <path id="DejaVuSans-Bold-64" d="M 2919 2988 
L 2919 4863 
L 4044 4863 
L 4044 0 
L 2919 0 
L 2919 506 
Q 2688 197 2409 53 
Q 2131 -91 1766 -91 
Q 1119 -91 703 423 
Q 288 938 288 1747 
Q 288 2556 703 3070 
Q 1119 3584 1766 3584 
Q 2128 3584 2408 3439 
Q 2688 3294 2919 2988 
z
M 2181 722 
Q 2541 722 2730 984 
Q 2919 1247 2919 1747 
Q 2919 2247 2730 2509 
Q 2541 2772 2181 2772 
Q 1825 2772 1636 2509 
Q 1447 2247 1447 1747 
Q 1447 1247 1636 984 
Q 1825 722 2181 722 
z
" transform="scale(0.015625)"/>
     <path id="DejaVuSans-Bold-75" d="M 500 1363 
L 500 3500 
L 1625 3500 
L 1625 3150 
Q 1625 2866 1622 2436 
Q 1619 2006 1619 1863 
Q 1619 1441 1641 1255 
Q 1663 1069 1716 984 
Q 1784 875 1895 815 
Q 2006 756 2150 756 
Q 2500 756 2700 1025 
Q 2900 1294 2900 1772 
L 2900 3500 
L 4019 3500 
L 4019 0 
L 2900 0 
L 2900 506 
Q 2647 200 2364 54 
Q 2081 -91 1741 -91 
Q 1134 -91 817 281 
Q 500 653 500 1363 
z
" transform="scale(0.015625)"/>
     <path id="DejaVuSans-Bold-73" d="M 3272 3391 
L 3272 2541 
Q 2913 2691 2578 2766 
Q 2244 2841 1947 2841 
Q 1628 2841 1473 2761 
Q 1319 2681 1319 2516 
Q 1319 2381 1436 2309 
Q 1553 2238 1856 2203 
L 2053 2175 
Q 2913 2066 3209 1816 
Q 3506 1566 3506 1031 
Q 3506 472 3093 190 
Q 2681 -91 1863 -91 
Q 1516 -91 1145 -36 
Q 775 19 384 128 
L 384 978 
Q 719 816 1070 734 
Q 1422 653 1784 653 
Q 2113 653 2278 743 
Q 2444 834 2444 1013 
Q 2444 1163 2330 1236 
Q 2216 1309 1875 1350 
L 1678 1375 
Q 931 1469 631 1722 
Q 331 1975 331 2491 
Q 331 3047 712 3315 
Q 1094 3584 1881 3584 
Q 2191 3584 2531 3537 
Q 2872 3491 3272 3391 
z
" transform="scale(0.015625)"/>
     <path id="DejaVuSans-Bold-47" d="M 4781 347 
Q 4331 128 3847 18 
Q 3363 -91 2847 -91 
Q 1681 -91 1000 561 
Q 319 1213 319 2328 
Q 319 3456 1012 4103 
Q 1706 4750 2913 4750 
Q 3378 4750 3804 4662 
Q 4231 4575 4609 4403 
L 4609 3438 
Q 4219 3659 3833 3768 
Q 3447 3878 3059 3878 
Q 2341 3878 1952 3476 
Q 1563 3075 1563 2328 
Q 1563 1588 1938 1184 
Q 2313 781 3003 781 
Q 3191 781 3352 804 
Q 3513 828 3641 878 
L 3641 1784 
L 2906 1784 
L 2906 2591 
L 4781 2591 
L 4781 347 
z
" transform="scale(0.015625)"/>
     <path id="DejaVuSans-Bold-4e" d="M 588 4666 
L 1931 4666 
L 3628 1466 
L 3628 4666 
L 4769 4666 
L 4769 0 
L 3425 0 
L 1728 3200 
L 1728 0 
L 588 0 
L 588 4666 
z
" transform="scale(0.015625)"/>
    </defs>
    <use xlink:href="#DejaVuSans-Bold-45" transform="translate(0 0.015625)"/>
    <use xlink:href="#DejaVuSans-Bold-72" transform="translate(68.310547 0.015625)"/>
    <use xlink:href="#DejaVuSans-Bold-72" transform="translate(117.626953 0.015625)"/>
    <use xlink:href="#DejaVuSans-Bold-65" transform="translate(166.943359 0.015625)"/>
    <use xlink:href="#DejaVuSans-Bold-69" transform="translate(234.765625 0.015625)"/>
    <use xlink:href="#DejaVuSans-Bold-63" transform="translate(269.042969 0.015625)"/>
    <use xlink:href="#DejaVuSans-Bold-68" transform="translate(328.320312 0.015625)"/>
    <use xlink:href="#DejaVuSans-Bold-62" transform="translate(399.511719 0.015625)"/>
    <use xlink:href="#DejaVuSans-Bold-61" transform="translate(471.09375 0.015625)"/>
    <use xlink:href="#DejaVuSans-Bold-72" transform="translate(538.574219 0.015625)"/>
    <use xlink:href="#DejaVuSans-Bold-6b" transform="translate(587.890625 0.015625)"/>
    <use xlink:href="#DejaVuSans-Bold-65" transform="translate(654.394531 0.015625)"/>
    <use xlink:href="#DejaVuSans-Bold-69" transform="translate(722.216797 0.015625)"/>
    <use xlink:href="#DejaVuSans-Bold-74" transform="translate(756.494141 0.015625)"/>
    <use xlink:href="#DejaVuSans-Bold-20" transform="translate(804.296875 0.015625)"/>
    <use xlink:href="#DejaVuSans-Bold-76" transform="translate(839.111328 0.015625)"/>
    <use xlink:href="#DejaVuSans-Bold-6f" transform="translate(904.296875 0.015625)"/>
    <use xlink:href="#DejaVuSans-Bold-6e" transform="translate(972.998047 0.015625)"/>
    <use xlink:href="#DejaVuSans-Bold-20" transform="translate(1044.189453 0.015625)"/>
    <use xlink:href="#DejaVuSans-Oblique-70" transform="translate(1079.003906 0.015625)"/>
    <use xlink:href="#DejaVuSans-Bold-20" transform="translate(1142.480469 0.015625)"/>
    <use xlink:href="#DejaVuSansDisplay-2014" transform="translate(1177.294922 0.015625)"/>
    <use xlink:href="#DejaVuSans-Bold-20" transform="translate(1277.294922 0.015625)"/>
    <use xlink:href="#DejaVuSans-Bold-50" transform="translate(1312.109375 0.015625)"/>
    <use xlink:href="#DejaVuSans-Bold-72" transform="translate(1385.400391 0.015625)"/>
    <use xlink:href="#DejaVuSans-Bold-6f" transform="translate(1434.716797 0.015625)"/>
    <use xlink:href="#DejaVuSans-Bold-70" transform="translate(1503.417969 0.015625)"/>
    <use xlink:href="#DejaVuSans-Bold-61" transform="translate(1575 0.015625)"/>
    <use xlink:href="#DejaVuSans-Bold-67" transform="translate(1642.480469 0.015625)"/>
    <use xlink:href="#DejaVuSans-Bold-61" transform="translate(1714.0625 0.015625)"/>
    <use xlink:href="#DejaVuSans-Bold-74" transform="translate(1781.542969 0.015625)"/>
    <use xlink:href="#DejaVuSans-Bold-69" transform="translate(1829.345703 0.015625)"/>
    <use xlink:href="#DejaVuSans-Bold-6f" transform="translate(1863.623047 0.015625)"/>
    <use xlink:href="#DejaVuSans-Bold-6e" transform="translate(1932.324219 0.015625)"/>
    <use xlink:href="#DejaVuSans-Bold-20" transform="translate(2003.515625 0.015625)"/>
    <use xlink:href="#DejaVuSans-Bold-64" transform="translate(2038.330078 0.015625)"/>
    <use xlink:href="#DejaVuSans-Bold-75" transform="translate(2109.912109 0.015625)"/>
    <use xlink:href="#DejaVuSans-Bold-72" transform="translate(2181.103516 0.015625)"/>
    <use xlink:href="#DejaVuSans-Bold-63" transform="translate(2230.419922 0.015625)"/>
    <use xlink:href="#DejaVuSans-Bold-68" transform="translate(2289.697266 0.015625)"/>
    <use xlink:href="#DejaVuSans-Bold-20" transform="translate(2360.888672 0.015625)"/>
    <use xlink:href="#DejaVuSans-Bold-72" transform="translate(2395.703125 0.015625)"/>
    <use xlink:href="#DejaVuSans-Bold-65" transform="translate(2445.019531 0.015625)"/>
    <use xlink:href="#DejaVuSans-Bold-6b" transform="translate(2512.841797 0.015625)"/>
    <use xlink:href="#DejaVuSans-Bold-75" transform="translate(2579.345703 0.015625)"/>
    <use xlink:href="#DejaVuSans-Bold-72" transform="translate(2650.537109 0.015625)"/>
    <use xlink:href="#DejaVuSans-Bold-72" transform="translate(2699.853516 0.015625)"/>
    <use xlink:href="#DejaVuSans-Bold-65" transform="translate(2749.169922 0.015625)"/>
    <use xlink:href="#DejaVuSans-Bold-6e" transform="translate(2816.992188 0.015625)"/>
    <use xlink:href="#DejaVuSans-Bold-74" transform="translate(2888.183594 0.015625)"/>
    <use xlink:href="#DejaVuSans-Bold-65" transform="translate(2935.986328 0.015625)"/>
    <use xlink:href="#DejaVuSans-Bold-73" transform="translate(3003.808594 0.015625)"/>
    <use xlink:href="#DejaVuSans-Bold-20" transform="translate(3063.330078 0.015625)"/>
    <use xlink:href="#DejaVuSans-Bold-47" transform="translate(3098.144531 0.015625)"/>
    <use xlink:href="#DejaVuSans-Bold-4e" transform="translate(3180.224609 0.015625)"/>
    <use xlink:href="#DejaVuSans-Bold-4e" transform="translate(3263.916016 0.015625)"/>
   </g>
  </g>
  <g id="text_42">
   <!-- Update: $x_v^{(t)} = \mathrm{ReLU^*}(x_v^{(t-1)} + \sum_{u} x_u^{(t-1)})$   mit  $A = C = 1,\; b = 0$ -->
   <g style="fill: #8fa3bb" transform="translate(339.7425 273.504) scale(0.095 -0.095)">
    <defs>
     <path id="DejaVuSans-Oblique-55" d="M 991 4666 
L 1625 4666 
L 1075 1831 
Q 1041 1641 1027 1517 
Q 1013 1394 1013 1300 
Q 1013 869 1253 645 
Q 1494 422 1959 422 
Q 2563 422 2898 753 
Q 3234 1084 3378 1831 
L 3928 4666 
L 4563 4666 
L 4000 1753 
Q 3816 809 3300 359 
Q 2784 -91 1888 -91 
Q 1188 -91 780 261 
Q 372 613 372 1216 
Q 372 1325 387 1461 
Q 403 1597 434 1753 
L 991 4666 
z
" transform="scale(0.015625)"/>
     <path id="DejaVuSans-Oblique-64" d="M 2675 525 
Q 2444 222 2128 65 
Q 1813 -91 1428 -91 
Q 903 -91 598 267 
Q 294 625 294 1247 
Q 294 1766 478 2236 
Q 663 2706 1013 3078 
Q 1244 3325 1534 3454 
Q 1825 3584 2144 3584 
Q 2481 3584 2739 3421 
Q 2997 3259 3138 2956 
L 3513 4863 
L 4091 4863 
L 3144 0 
L 2566 0 
L 2675 525 
z
M 891 1350 
Q 891 897 1095 644 
Q 1300 391 1663 391 
Q 1931 391 2161 520 
Q 2391 650 2566 903 
Q 2750 1166 2856 1509 
Q 2963 1853 2963 2188 
Q 2963 2622 2758 2865 
Q 2553 3109 2194 3109 
Q 1922 3109 1687 2981 
Q 1453 2853 1288 2613 
Q 1106 2353 998 2009 
Q 891 1666 891 1350 
z
" transform="scale(0.015625)"/>
     <path id="DejaVuSans-Oblique-61" d="M 3438 1997 
L 3047 0 
L 2472 0 
L 2578 531 
Q 2325 219 2001 64 
Q 1678 -91 1281 -91 
Q 834 -91 548 182 
Q 263 456 263 884 
Q 263 1497 752 1853 
Q 1241 2209 2100 2209 
L 2900 2209 
L 2931 2363 
Q 2938 2388 2941 2417 
Q 2944 2447 2944 2509 
Q 2944 2788 2717 2942 
Q 2491 3097 2081 3097 
Q 1800 3097 1504 3025 
Q 1209 2953 897 2809 
L 997 3341 
Q 1322 3463 1633 3523 
Q 1944 3584 2234 3584 
Q 2853 3584 3176 3315 
Q 3500 3047 3500 2534 
Q 3500 2431 3484 2292 
Q 3469 2153 3438 1997 
z
M 2816 1759 
L 2241 1759 
Q 1534 1759 1195 1570 
Q 856 1381 856 984 
Q 856 709 1029 553 
Q 1203 397 1509 397 
Q 1978 397 2328 733 
Q 2678 1069 2791 1631 
L 2816 1759 
z
" transform="scale(0.015625)"/>
     <path id="DejaVuSans-Oblique-65" d="M 3078 2063 
Q 3088 2113 3092 2166 
Q 3097 2219 3097 2272 
Q 3097 2653 2873 2875 
Q 2650 3097 2266 3097 
Q 1838 3097 1509 2826 
Q 1181 2556 1013 2059 
L 3078 2063 
z
M 3578 1613 
L 903 1613 
Q 884 1494 878 1425 
Q 872 1356 872 1306 
Q 872 872 1139 634 
Q 1406 397 1894 397 
Q 2269 397 2603 481 
Q 2938 566 3225 728 
L 3116 159 
Q 2806 34 2476 -28 
Q 2147 -91 1806 -91 
Q 1078 -91 686 257 
Q 294 606 294 1247 
Q 294 1794 489 2264 
Q 684 2734 1063 3103 
Q 1306 3334 1642 3459 
Q 1978 3584 2356 3584 
Q 2950 3584 3301 3228 
Q 3653 2872 3653 2272 
Q 3653 2128 3634 1964 
Q 3616 1800 3578 1613 
z
" transform="scale(0.015625)"/>
     <path id="DejaVuSans-Oblique-3a" d="M 978 3309 
L 1638 3309 
L 1484 2516 
L 825 2516 
L 978 3309 
z
M 488 794 
L 1147 794 
L 991 0 
L 331 0 
L 488 794 
z
" transform="scale(0.015625)"/>
     <path id="DejaVuSans-Oblique-20" transform="scale(0.015625)"/>
     <path id="DejaVuSans-Oblique-78" d="M 3841 3500 
L 2234 1784 
L 3219 0 
L 2559 0 
L 1819 1388 
L 531 0 
L -166 0 
L 1556 1844 
L 641 3500 
L 1300 3500 
L 1972 2234 
L 3144 3500 
L 3841 3500 
z
" transform="scale(0.015625)"/>
     <path id="DejaVuSans-28" d="M 1984 4856 
Q 1566 4138 1362 3434 
Q 1159 2731 1159 2009 
Q 1159 1288 1364 580 
Q 1569 -128 1984 -844 
L 1484 -844 
Q 1016 -109 783 600 
Q 550 1309 550 2009 
Q 550 2706 781 3412 
Q 1013 4119 1484 4856 
L 1984 4856 
z
" transform="scale(0.015625)"/>
     <path id="DejaVuSans-29" d="M 513 4856 
L 1013 4856 
Q 1481 4119 1714 3412 
Q 1947 2706 1947 2009 
Q 1947 1309 1714 600 
Q 1481 -109 1013 -844 
L 513 -844 
Q 928 -128 1133 580 
Q 1338 1288 1338 2009 
Q 1338 2731 1133 3434 
Q 928 4138 513 4856 
z
" transform="scale(0.015625)"/>
     <path id="DejaVuSans-52" d="M 2841 2188 
Q 3044 2119 3236 1894 
Q 3428 1669 3622 1275 
L 4263 0 
L 3584 0 
L 2988 1197 
Q 2756 1666 2539 1819 
Q 2322 1972 1947 1972 
L 1259 1972 
L 1259 0 
L 628 0 
L 628 4666 
L 2053 4666 
Q 2853 4666 3247 4331 
Q 3641 3997 3641 3322 
Q 3641 2881 3436 2590 
Q 3231 2300 2841 2188 
z
M 1259 4147 
L 1259 2491 
L 2053 2491 
Q 2509 2491 2742 2702 
Q 2975 2913 2975 3322 
Q 2975 3731 2742 3939 
Q 2509 4147 2053 4147 
L 1259 4147 
z
" transform="scale(0.015625)"/>
     <path id="DejaVuSans-65" d="M 3597 1894 
L 3597 1613 
L 953 1613 
Q 991 1019 1311 708 
Q 1631 397 2203 397 
Q 2534 397 2845 478 
Q 3156 559 3463 722 
L 3463 178 
Q 3153 47 2828 -22 
Q 2503 -91 2169 -91 
Q 1331 -91 842 396 
Q 353 884 353 1716 
Q 353 2575 817 3079 
Q 1281 3584 2069 3584 
Q 2775 3584 3186 3129 
Q 3597 2675 3597 1894 
z
M 3022 2063 
Q 3016 2534 2758 2815 
Q 2500 3097 2075 3097 
Q 1594 3097 1305 2825 
Q 1016 2553 972 2059 
L 3022 2063 
z
" transform="scale(0.015625)"/>
     <path id="DejaVuSans-4c" d="M 628 4666 
L 1259 4666 
L 1259 531 
L 3531 531 
L 3531 0 
L 628 0 
L 628 4666 
z
" transform="scale(0.015625)"/>
     <path id="DejaVuSans-55" d="M 556 4666 
L 1191 4666 
L 1191 1831 
Q 1191 1081 1462 751 
Q 1734 422 2344 422 
Q 2950 422 3222 751 
Q 3494 1081 3494 1831 
L 3494 4666 
L 4128 4666 
L 4128 1753 
Q 4128 841 3676 375 
Q 3225 -91 2344 -91 
Q 1459 -91 1007 375 
Q 556 841 556 1753 
L 556 4666 
z
" transform="scale(0.015625)"/>
     <path id="DejaVuSans-2212" d="M 678 2272 
L 4684 2272 
L 4684 1741 
L 678 1741 
L 678 2272 
z
" transform="scale(0.015625)"/>
     <path id="DejaVuSans-2b" d="M 2944 4013 
L 2944 2272 
L 4684 2272 
L 4684 1741 
L 2944 1741 
L 2944 0 
L 2419 0 
L 2419 1741 
L 678 1741 
L 678 2272 
L 2419 2272 
L 2419 4013 
L 2944 4013 
z
" transform="scale(0.015625)"/>
     <path id="DejaVuSansDisplay-2211" d="M 244 6509 
L 5803 6509 
L 5803 5656 
L 1566 5656 
L 4534 2488 
L 1469 -888 
L 5919 -888 
L 5919 -1738 
L 109 -1738 
L 109 -1078 
L 3316 2463 
L 244 5728 
L 244 6509 
z
" transform="scale(0.015625)"/>
     <path id="DejaVuSans-Oblique-6d" d="M 5747 2113 
L 5338 0 
L 4763 0 
L 5166 2094 
Q 5191 2228 5203 2325 
Q 5216 2422 5216 2491 
Q 5216 2772 5059 2928 
Q 4903 3084 4622 3084 
Q 4203 3084 3875 2770 
Q 3547 2456 3450 1953 
L 3066 0 
L 2491 0 
L 2900 2094 
Q 2925 2209 2937 2307 
Q 2950 2406 2950 2484 
Q 2950 2769 2794 2926 
Q 2638 3084 2363 3084 
Q 1938 3084 1609 2770 
Q 1281 2456 1184 1953 
L 800 0 
L 225 0 
L 909 3500 
L 1484 3500 
L 1375 2956 
Q 1609 3263 1923 3423 
Q 2238 3584 2597 3584 
Q 2978 3584 3223 3384 
Q 3469 3184 3519 2828 
Q 3781 3197 4126 3390 
Q 4472 3584 4856 3584 
Q 5306 3584 5551 3325 
Q 5797 3066 5797 2591 
Q 5797 2488 5784 2364 
Q 5772 2241 5747 2113 
z
" transform="scale(0.015625)"/>
     <path id="DejaVuSans-Oblique-69" d="M 1172 4863 
L 1747 4863 
L 1606 4134 
L 1031 4134 
L 1172 4863 
z
M 909 3500 
L 1484 3500 
L 800 0 
L 225 0 
L 909 3500 
z
" transform="scale(0.015625)"/>
     <path id="DejaVuSans-Oblique-41" d="M 2356 4666 
L 3072 4666 
L 3938 0 
L 3278 0 
L 3084 1197 
L 984 1197 
L 325 0 
L -341 0 
L 2356 4666 
z
M 2584 4044 
L 1275 1722 
L 2988 1722 
L 2584 4044 
z
" transform="scale(0.015625)"/>
     <path id="DejaVuSans-Oblique-43" d="M 4447 4306 
L 4319 3641 
Q 4019 3944 3683 4091 
Q 3347 4238 2956 4238 
Q 2422 4238 2017 3981 
Q 1613 3725 1319 3200 
Q 1131 2863 1032 2486 
Q 934 2109 934 1728 
Q 934 1091 1264 756 
Q 1594 422 2222 422 
Q 2656 422 3056 561 
Q 3456 700 3834 978 
L 3688 231 
Q 3316 72 2936 -9 
Q 2556 -91 2175 -91 
Q 1278 -91 773 396 
Q 269 884 269 1753 
Q 269 2309 461 2846 
Q 653 3384 1013 3828 
Q 1394 4300 1883 4525 
Q 2372 4750 3022 4750 
Q 3422 4750 3780 4639 
Q 4138 4528 4447 4306 
z
" transform="scale(0.015625)"/>
     <path id="DejaVuSans-2c" d="M 750 794 
L 1409 794 
L 1409 256 
L 897 -744 
L 494 -744 
L 750 256 
L 750 794 
z
" transform="scale(0.015625)"/>
     <path id="DejaVuSans-Oblique-62" d="M 3169 2138 
Q 3169 2591 2961 2847 
Q 2753 3103 2388 3103 
Q 2122 3103 1889 2973 
Q 1656 2844 1484 2597 
Q 1303 2338 1198 1995 
Q 1094 1653 1094 1313 
Q 1094 881 1298 636 
Q 1503 391 1863 391 
Q 2134 391 2365 517 
Q 2597 644 2772 891 
Q 2950 1147 3059 1487 
Q 3169 1828 3169 2138 
z
M 1381 2969 
Q 1594 3256 1914 3420 
Q 2234 3584 2584 3584 
Q 3122 3584 3439 3221 
Q 3756 2859 3756 2241 
Q 3756 1734 3570 1259 
Q 3384 784 3041 416 
Q 2816 172 2522 40 
Q 2228 -91 1906 -91 
Q 1566 -91 1316 65 
Q 1066 222 909 531 
L 806 0 
L 231 0 
L 1178 4863 
L 1753 4863 
L 1381 2969 
z
" transform="scale(0.015625)"/>
    </defs>
    <use xlink:href="#DejaVuSans-Oblique-55" transform="translate(0 0.296875)"/>
    <use xlink:href="#DejaVuSans-Oblique-70" transform="translate(73.193359 0.296875)"/>
    <use xlink:href="#DejaVuSans-Oblique-64" transform="translate(136.669922 0.296875)"/>
    <use xlink:href="#DejaVuSans-Oblique-61" transform="translate(200.146484 0.296875)"/>
    <use xlink:href="#DejaVuSans-Oblique-74" transform="translate(261.425781 0.296875)"/>
    <use xlink:href="#DejaVuSans-Oblique-65" transform="translate(300.634766 0.296875)"/>
    <use xlink:href="#DejaVuSans-Oblique-3a" transform="translate(362.158203 0.296875)"/>
    <use xlink:href="#DejaVuSans-Oblique-20" transform="translate(395.849609 0.296875)"/>
    <use xlink:href="#DejaVuSans-Oblique-78" transform="translate(427.636719 0.296875)"/>
    <use xlink:href="#DejaVuSans-28" transform="translate(491.282552 38.578125) scale(0.7)"/>
    <use xlink:href="#DejaVuSans-Oblique-74" transform="translate(518.592122 38.578125) scale(0.7)"/>
    <use xlink:href="#DejaVuSans-29" transform="translate(546.038411 38.578125) scale(0.7)"/>
    <use xlink:href="#DejaVuSans-Oblique-76" transform="translate(486.816406 -27.046875) scale(0.7)"/>
    <use xlink:href="#DejaVuSans-3d" transform="translate(595.564779 0.296875)"/>
    <use xlink:href="#DejaVuSans-52" transform="translate(698.836263 0.296875)"/>
    <use xlink:href="#DejaVuSans-65" transform="translate(768.318685 0.296875)"/>
    <use xlink:href="#DejaVuSans-4c" transform="translate(829.842122 0.296875)"/>
    <use xlink:href="#DejaVuSans-55" transform="translate(885.555013 0.296875)"/>
    <use xlink:href="#DejaVuSans-2a" transform="translate(973.343099 38.578125) scale(0.7)"/>
    <use xlink:href="#DejaVuSans-28" transform="translate(1024.715169 0.296875)"/>
    <use xlink:href="#DejaVuSans-Oblique-78" transform="translate(1063.728841 0.296875)"/>
    <use xlink:href="#DejaVuSans-28" transform="translate(1127.374674 38.578125) scale(0.7)"/>
    <use xlink:href="#DejaVuSans-Oblique-74" transform="translate(1154.684245 38.578125) scale(0.7)"/>
    <use xlink:href="#DejaVuSans-2212" transform="translate(1195.768229 38.578125) scale(0.7)"/>
    <use xlink:href="#DejaVuSans-31" transform="translate(1268.058268 38.578125) scale(0.7)"/>
    <use xlink:href="#DejaVuSans-29" transform="translate(1312.594401 38.578125) scale(0.7)"/>
    <use xlink:href="#DejaVuSans-Oblique-76" transform="translate(1122.908529 -27.046875) scale(0.7)"/>
    <use xlink:href="#DejaVuSans-2b" transform="translate(1362.120768 0.296875)"/>
    <use xlink:href="#DejaVuSansDisplay-2211" transform="translate(1465.392253 0.296875)"/>
    <use xlink:href="#DejaVuSans-Oblique-75" transform="translate(1488.392253 -83.890625) scale(0.7)"/>
    <use xlink:href="#DejaVuSans-Oblique-78" transform="translate(1556.157878 0.296875)"/>
    <use xlink:href="#DejaVuSans-28" transform="translate(1619.803711 38.578125) scale(0.7)"/>
    <use xlink:href="#DejaVuSans-Oblique-74" transform="translate(1647.113281 38.578125) scale(0.7)"/>
    <use xlink:href="#DejaVuSans-2212" transform="translate(1688.197266 38.578125) scale(0.7)"/>
    <use xlink:href="#DejaVuSans-31" transform="translate(1760.487305 38.578125) scale(0.7)"/>
    <use xlink:href="#DejaVuSans-29" transform="translate(1805.023437 38.578125) scale(0.7)"/>
    <use xlink:href="#DejaVuSans-Oblique-75" transform="translate(1615.337565 -27.046875) scale(0.7)"/>
    <use xlink:href="#DejaVuSans-29" transform="translate(1835.067383 0.296875)"/>
    <use xlink:href="#DejaVuSans-Oblique-20" transform="translate(1874.081055 0.296875)"/>
    <use xlink:href="#DejaVuSans-Oblique-20" transform="translate(1905.868164 0.296875)"/>
    <use xlink:href="#DejaVuSans-Oblique-20" transform="translate(1937.655273 0.296875)"/>
    <use xlink:href="#DejaVuSans-Oblique-6d" transform="translate(1969.442383 0.296875)"/>
    <use xlink:href="#DejaVuSans-Oblique-69" transform="translate(2066.854492 0.296875)"/>
    <use xlink:href="#DejaVuSans-Oblique-74" transform="translate(2094.637695 0.296875)"/>
    <use xlink:href="#DejaVuSans-Oblique-20" transform="translate(2133.84668 0.296875)"/>
    <use xlink:href="#DejaVuSans-Oblique-20" transform="translate(2165.633789 0.296875)"/>
    <use xlink:href="#DejaVuSans-Oblique-41" transform="translate(2197.420898 0.296875)"/>
    <use xlink:href="#DejaVuSans-3d" transform="translate(2285.311523 0.296875)"/>
    <use xlink:href="#DejaVuSans-Oblique-43" transform="translate(2388.583008 0.296875)"/>
    <use xlink:href="#DejaVuSans-3d" transform="translate(2477.889648 0.296875)"/>
    <use xlink:href="#DejaVuSans-31" transform="translate(2581.161133 0.296875)"/>
    <use xlink:href="#DejaVuSans-2c" transform="translate(2644.78418 0.296875)"/>
    <use xlink:href="#DejaVuSans-Oblique-62" transform="translate(2723.112847 0.296875)"/>
    <use xlink:href="#DejaVuSans-3d" transform="translate(2806.071831 0.296875)"/>
    <use xlink:href="#DejaVuSans-30" transform="translate(2909.343315 0.296875)"/>
   </g>
  </g>
 </g>
 <defs>
  <clipPath id="pe7a62bfbb9">
   <rect x="7.2" y="51.888" width="211.68" height="196.992"/>
  </clipPath>
  <clipPath id="p313c1f2252">
   <rect x="254.16" y="51.888" width="211.68" height="196.992"/>
  </clipPath>
  <clipPath id="p34cb708c73">
   <rect x="501.12" y="51.888" width="211.68" height="196.992"/>
  </clipPath>
  <clipPath id="pa131583a72">
   <rect x="748.08" y="51.888" width="211.68" height="196.992"/>
  </clipPath>
 </defs>
</svg>
