<?xml version="1.0" encoding="utf-8" standalone="no"?>
<!DOCTYPE svg PUBLIC "-//W3C//DTD SVG 1.1//EN"
  "http://www.w3.org/Graphics/SVG/1.1/DTD/svg11.dtd">
<svg xmlns:xlink="http://www.w3.org/1999/xlink" width="728.4pt" height="400.678125pt" viewBox="0 0 728.4 400.678125" xmlns="http://www.w3.org/2000/svg" version="1.1">
 <metadata>
  <rdf:RDF xmlns:dc="http://purl.org/dc/elements/1.1/" xmlns:cc="http://creativecommons.org/ns#" xmlns:rdf="http://www.w3.org/1999/02/22-rdf-syntax-ns#">
   <cc:Work>
    <dc:type rdf:resource="http://purl.org/dc/dcmitype/StillImage"/>
    <dc:date>2026-06-06T18:16:59.658225</dc:date>
    <dc:format>image/svg+xml</dc:format>
    <dc:creator>
     <cc:Agent>
      <dc:title>Matplotlib v3.10.9, https://matplotlib.org/</dc:title>
     </cc:Agent>
    </dc:creator>
   </cc:Work>
  </rdf:RDF>
 </metadata>
 <defs>
  <style type="text/css">*{stroke-linejoin: round; stroke-linecap: butt}</style>
 </defs>
 <g id="figure_1">
  <g id="patch_1">
   <path d="M 0 400.678125 
L 728.4 400.678125 
L 728.4 0 
L 0 0 
z
" style="fill: #ffffff"/>
  </g>
  <g id="axes_1">
   <g id="patch_2">
    <path d="M 28.62 381.362489 
L 699.78 381.362489 
Q 708.348 381.362489 708.348 373.285398 
L 708.348 50.201761 
Q 708.348 42.12467 699.78 42.12467 
L 28.62 42.12467 
Q 20.052 42.12467 20.052 50.201761 
L 20.052 373.285398 
Q 20.052 381.362489 28.62 381.362489 
z
" clip-path="url(#p08ef3a78c5)" style="fill: #1c3a5e; opacity: 0.18"/>
   </g>
   <g id="patch_3">
    <path d="M 92.88 354.438852 
L 635.52 354.438852 
Q 644.088 354.438852 644.088 346.361761 
L 644.088 97.318125 
Q 644.088 89.241034 635.52 89.241034 
L 92.88 89.241034 
Q 84.312 89.241034 84.312 97.318125 
L 84.312 346.361761 
Q 84.312 354.438852 92.88 354.438852 
z
" clip-path="url(#p08ef3a78c5)" style="fill: #1a4f8a; opacity: 0.18"/>
   </g>
   <g id="patch_4">
    <path d="M 164.28 327.515216 
L 564.12 327.515216 
Q 572.688 327.515216 572.688 319.438125 
L 572.688 151.165398 
Q 572.688 143.088307 564.12 143.088307 
L 164.28 143.088307 
Q 155.712 143.088307 155.712 151.165398 
L 155.712 319.438125 
Q 155.712 327.515216 164.28 327.515216 
z
" clip-path="url(#p08ef3a78c5)" style="fill: #dce9f7; opacity: 0.18"/>
   </g>
   <g id="patch_5">
    <path d="M 28.62 381.362489 
L 699.78 381.362489 
Q 708.348 381.362489 708.348 373.285398 
L 708.348 50.201761 
Q 708.348 42.12467 699.78 42.12467 
L 28.62 42.12467 
Q 20.052 42.12467 20.052 50.201761 
L 20.052 373.285398 
Q 20.052 381.362489 28.62 381.362489 
L 28.62 381.362489 
z
" clip-path="url(#p08ef3a78c5)" style="fill: none; opacity: 0.8; stroke: #1c3a5e; stroke-width: 2.2; stroke-linejoin: miter"/>
   </g>
   <g id="patch_6">
    <path d="M 92.88 354.438852 
L 635.52 354.438852 
Q 644.088 354.438852 644.088 346.361761 
L 644.088 97.318125 
Q 644.088 89.241034 635.52 89.241034 
L 92.88 89.241034 
Q 84.312 89.241034 84.312 97.318125 
L 84.312 346.361761 
Q 84.312 354.438852 92.88 354.438852 
L 92.88 354.438852 
z
" clip-path="url(#p08ef3a78c5)" style="fill: none; opacity: 0.8; stroke: #1a4f8a; stroke-width: 2.2; stroke-linejoin: miter"/>
   </g>
   <g id="patch_7">
    <path d="M 164.28 327.515216 
L 564.12 327.515216 
Q 572.688 327.515216 572.688 319.438125 
L 572.688 151.165398 
Q 572.688 143.088307 564.12 143.088307 
L 164.28 143.088307 
Q 155.712 143.088307 155.712 151.165398 
L 155.712 319.438125 
Q 155.712 327.515216 164.28 327.515216 
L 164.28 327.515216 
z
" clip-path="url(#p08ef3a78c5)" style="fill: none; opacity: 0.8; stroke: #dce9f7; stroke-width: 2.2; stroke-linejoin: miter"/>
   </g>
   <g id="text_1">
    <!-- ω-GML -->
    <g style="fill: #1c3a5e" transform="translate(341.775937 77.071193) scale(0.12 -0.12)">
     <defs>
      <path id="DejaVuSans-Bold-3c9" d="M 2781 816 
Q 2675 -81 1656 -84 
Q 275 -88 275 1775 
Q 275 2575 888 3500 
L 1847 3500 
Q 1441 2763 1441 1788 
Q 1441 809 1878 803 
Q 2238 797 2222 2225 
L 3341 2225 
Q 3325 797 3684 803 
Q 4122 809 4122 1788 
Q 4122 2763 3716 3500 
L 4675 3500 
Q 5288 2575 5288 1775 
Q 5288 -88 3906 -84 
Q 2888 -81 2781 816 
z
" transform="scale(0.015625)"/>
      <path id="DejaVuSans-Bold-2d" d="M 347 2297 
L 2309 2297 
L 2309 1388 
L 347 1388 
L 347 2297 
z
" transform="scale(0.015625)"/>
      <path id="DejaVuSans-Bold-47" d="M 4781 347 
Q 4331 128 3847 18 
Q 3363 -91 2847 -91 
Q 1681 -91 1000 561 
Q 319 1213 319 2328 
Q 319 3456 1012 4103 
Q 1706 4750 2913 4750 
Q 3378 4750 3804 4662 
Q 4231 4575 4609 4403 
L 4609 3438 
Q 4219 3659 3833 3768 
Q 3447 3878 3059 3878 
Q 2341 3878 1952 3476 
Q 1563 3075 1563 2328 
Q 1563 1588 1938 1184 
Q 2313 781 3003 781 
Q 3191 781 3352 804 
Q 3513 828 3641 878 
L 3641 1784 
L 2906 1784 
L 2906 2591 
L 4781 2591 
L 4781 347 
z
" transform="scale(0.015625)"/>
      <path id="DejaVuSans-Bold-4d" d="M 588 4666 
L 2119 4666 
L 3181 2169 
L 4250 4666 
L 5778 4666 
L 5778 0 
L 4641 0 
L 4641 3413 
L 3566 897 
L 2803 897 
L 1728 3413 
L 1728 0 
L 588 0 
L 588 4666 
z
" transform="scale(0.015625)"/>
      <path id="DejaVuSans-Bold-4c" d="M 588 4666 
L 1791 4666 
L 1791 909 
L 3903 909 
L 3903 0 
L 588 0 
L 588 4666 
z
" transform="scale(0.015625)"/>
     </defs>
     <use xlink:href="#DejaVuSans-Bold-3c9"/>
     <use xlink:href="#DejaVuSans-Bold-2d" transform="translate(86.914062 0)"/>
     <use xlink:href="#DejaVuSans-Bold-47" transform="translate(128.417969 0)"/>
     <use xlink:href="#DejaVuSans-Bold-4d" transform="translate(210.498047 0)"/>
     <use xlink:href="#DejaVuSans-Bold-4c" transform="translate(310.009766 0)"/>
    </g>
   </g>
   <g id="text_2">
    <!-- GMSC -->
    <g style="fill: #1a4f8a" transform="translate(344.58 122.168284) scale(0.12 -0.12)">
     <defs>
      <path id="DejaVuSans-Bold-53" d="M 3834 4519 
L 3834 3531 
Q 3450 3703 3084 3790 
Q 2719 3878 2394 3878 
Q 1963 3878 1756 3759 
Q 1550 3641 1550 3391 
Q 1550 3203 1689 3098 
Q 1828 2994 2194 2919 
L 2706 2816 
Q 3484 2659 3812 2340 
Q 4141 2022 4141 1434 
Q 4141 663 3683 286 
Q 3225 -91 2284 -91 
Q 1841 -91 1394 -6 
Q 947 78 500 244 
L 500 1259 
Q 947 1022 1364 901 
Q 1781 781 2169 781 
Q 2563 781 2772 912 
Q 2981 1044 2981 1288 
Q 2981 1506 2839 1625 
Q 2697 1744 2272 1838 
L 1806 1941 
Q 1106 2091 782 2419 
Q 459 2747 459 3303 
Q 459 4000 909 4375 
Q 1359 4750 2203 4750 
Q 2588 4750 2994 4692 
Q 3400 4634 3834 4519 
z
" transform="scale(0.015625)"/>
      <path id="DejaVuSans-Bold-43" d="M 4288 256 
Q 3956 84 3597 -3 
Q 3238 -91 2847 -91 
Q 1681 -91 1000 561 
Q 319 1213 319 2328 
Q 319 3447 1000 4098 
Q 1681 4750 2847 4750 
Q 3238 4750 3597 4662 
Q 3956 4575 4288 4403 
L 4288 3438 
Q 3953 3666 3628 3772 
Q 3303 3878 2944 3878 
Q 2300 3878 1931 3465 
Q 1563 3053 1563 2328 
Q 1563 1606 1931 1193 
Q 2300 781 2944 781 
Q 3303 781 3628 887 
Q 3953 994 4288 1222 
L 4288 256 
z
" transform="scale(0.015625)"/>
     </defs>
     <use xlink:href="#DejaVuSans-Bold-47"/>
     <use xlink:href="#DejaVuSans-Bold-4d" transform="translate(82.080078 0)"/>
     <use xlink:href="#DejaVuSans-Bold-53" transform="translate(181.591797 0)"/>
     <use xlink:href="#DejaVuSans-Bold-43" transform="translate(253.613281 0)"/>
    </g>
   </g>
   <g id="text_3">
    <!-- GML -->
    <g style="fill: #dce9f7" transform="translate(349.48125 176.015557) scale(0.12 -0.12)">
     <use xlink:href="#DejaVuSans-Bold-47"/>
     <use xlink:href="#DejaVuSans-Bold-4d" transform="translate(82.080078 0)"/>
     <use xlink:href="#DejaVuSans-Bold-4c" transform="translate(181.591797 0)"/>
    </g>
   </g>
   <g id="text_4">
    <!-- GML ⊊ GMSC -->
    <g style="fill: #8fa3bb" transform="translate(555.413125 383.381761) scale(0.08 -0.08)">
     <defs>
      <path id="DejaVuSans-47" d="M 3809 666 
L 3809 1919 
L 2778 1919 
L 2778 2438 
L 4434 2438 
L 4434 434 
Q 4069 175 3628 42 
Q 3188 -91 2688 -91 
Q 1594 -91 976 548 
Q 359 1188 359 2328 
Q 359 3472 976 4111 
Q 1594 4750 2688 4750 
Q 3144 4750 3555 4637 
Q 3966 4525 4313 4306 
L 4313 3634 
Q 3963 3931 3569 4081 
Q 3175 4231 2741 4231 
Q 1884 4231 1454 3753 
Q 1025 3275 1025 2328 
Q 1025 1384 1454 906 
Q 1884 428 2741 428 
Q 3075 428 3337 486 
Q 3600 544 3809 666 
z
" transform="scale(0.015625)"/>
      <path id="DejaVuSans-4d" d="M 628 4666 
L 1569 4666 
L 2759 1491 
L 3956 4666 
L 4897 4666 
L 4897 0 
L 4281 0 
L 4281 4097 
L 3078 897 
L 2444 897 
L 1241 4097 
L 1241 0 
L 628 0 
L 628 4666 
z
" transform="scale(0.015625)"/>
      <path id="DejaVuSans-4c" d="M 628 4666 
L 1259 4666 
L 1259 531 
L 3531 531 
L 3531 0 
L 628 0 
L 628 4666 
z
" transform="scale(0.015625)"/>
      <path id="DejaVuSans-20" transform="scale(0.015625)"/>
      <path id="DejaVuSans-228a" d="M 2213 0 
L 756 0 
L 756 469 
L 2563 469 
L 2916 938 
L 3291 656 
L 3150 469 
L 4684 469 
L 4684 0 
L 2800 0 
L 2447 -469 
L 2072 -188 
L 2213 0 
z
M 4684 941 
L 2088 941 
Q 1459 941 1028 1375 
Q 594 1809 594 2434 
Q 594 3053 1028 3494 
Q 1459 3928 2084 3928 
L 4684 3928 
L 4684 3459 
L 2084 3459 
Q 1656 3459 1359 3159 
Q 1063 2859 1063 2434 
Q 1063 2003 1359 1709 
Q 1659 1409 2084 1409 
L 4684 1409 
L 4684 941 
z
" transform="scale(0.015625)"/>
      <path id="DejaVuSans-53" d="M 3425 4513 
L 3425 3897 
Q 3066 4069 2747 4153 
Q 2428 4238 2131 4238 
Q 1616 4238 1336 4038 
Q 1056 3838 1056 3469 
Q 1056 3159 1242 3001 
Q 1428 2844 1947 2747 
L 2328 2669 
Q 3034 2534 3370 2195 
Q 3706 1856 3706 1288 
Q 3706 609 3251 259 
Q 2797 -91 1919 -91 
Q 1588 -91 1214 -16 
Q 841 59 441 206 
L 441 856 
Q 825 641 1194 531 
Q 1563 422 1919 422 
Q 2459 422 2753 634 
Q 3047 847 3047 1241 
Q 3047 1584 2836 1778 
Q 2625 1972 2144 2069 
L 1759 2144 
Q 1053 2284 737 2584 
Q 422 2884 422 3419 
Q 422 4038 858 4394 
Q 1294 4750 2059 4750 
Q 2388 4750 2728 4690 
Q 3069 4631 3425 4513 
z
" transform="scale(0.015625)"/>
      <path id="DejaVuSans-43" d="M 4122 4306 
L 4122 3641 
Q 3803 3938 3442 4084 
Q 3081 4231 2675 4231 
Q 1875 4231 1450 3742 
Q 1025 3253 1025 2328 
Q 1025 1406 1450 917 
Q 1875 428 2675 428 
Q 3081 428 3442 575 
Q 3803 722 4122 1019 
L 4122 359 
Q 3791 134 3420 21 
Q 3050 -91 2638 -91 
Q 1578 -91 968 557 
Q 359 1206 359 2328 
Q 359 3453 968 4101 
Q 1578 4750 2638 4750 
Q 3056 4750 3426 4639 
Q 3797 4528 4122 4306 
z
" transform="scale(0.015625)"/>
     </defs>
     <use xlink:href="#DejaVuSans-47"/>
     <use xlink:href="#DejaVuSans-4d" transform="translate(77.490234 0)"/>
     <use xlink:href="#DejaVuSans-4c" transform="translate(163.769531 0)"/>
     <use xlink:href="#DejaVuSans-20" transform="translate(219.482422 0)"/>
     <use xlink:href="#DejaVuSans-228a" transform="translate(251.269531 0)"/>
     <use xlink:href="#DejaVuSans-20" transform="translate(335.058594 0)"/>
     <use xlink:href="#DejaVuSans-47" transform="translate(366.845703 0)"/>
     <use xlink:href="#DejaVuSans-4d" transform="translate(444.335938 0)"/>
     <use xlink:href="#DejaVuSans-53" transform="translate(530.615234 0)"/>
     <use xlink:href="#DejaVuSans-43" transform="translate(594.091797 0)"/>
    </g>
   </g>
   <g id="text_5">
    <!-- GMSC ⊊ ω-GML -->
    <g style="fill: #8fa3bb" transform="translate(625.445625 383.381761) scale(0.08 -0.08)">
     <defs>
      <path id="DejaVuSans-3c9" d="M 1719 -91 
Q 422 -91 422 1766 
Q 422 2500 906 3500 
L 1525 3500 
Q 1078 2500 1078 1750 
Q 1078 397 1772 397 
Q 2406 397 2406 2078 
L 2938 2078 
Q 2938 397 3572 397 
Q 4266 397 4266 1750 
Q 4266 2500 3819 3500 
L 4438 3500 
Q 4922 2500 4922 1766 
Q 4922 -91 3625 -91 
Q 2775 -91 2672 844 
Q 2544 -91 1719 -91 
z
" transform="scale(0.015625)"/>
      <path id="DejaVuSans-2d" d="M 313 2009 
L 1997 2009 
L 1997 1497 
L 313 1497 
L 313 2009 
z
" transform="scale(0.015625)"/>
     </defs>
     <use xlink:href="#DejaVuSans-47"/>
     <use xlink:href="#DejaVuSans-4d" transform="translate(77.490234 0)"/>
     <use xlink:href="#DejaVuSans-53" transform="translate(163.769531 0)"/>
     <use xlink:href="#DejaVuSans-43" transform="translate(227.246094 0)"/>
     <use xlink:href="#DejaVuSans-20" transform="translate(297.070312 0)"/>
     <use xlink:href="#DejaVuSans-228a" transform="translate(328.857422 0)"/>
     <use xlink:href="#DejaVuSans-20" transform="translate(412.646484 0)"/>
     <use xlink:href="#DejaVuSans-3c9" transform="translate(444.433594 0)"/>
     <use xlink:href="#DejaVuSans-2d" transform="translate(528.173828 0)"/>
     <use xlink:href="#DejaVuSans-47" transform="translate(567.882812 0)"/>
     <use xlink:href="#DejaVuSans-4d" transform="translate(645.373047 0)"/>
     <use xlink:href="#DejaVuSans-4c" transform="translate(731.652344 0)"/>
    </g>
   </g>
   <g id="text_6">
    <g id="patch_8">
     <path d="M 19.156445 222.792223 
L 73.783555 222.792223 
Q 76.333555 222.792223 76.333555 220.242223 
L 76.333555 192.979536 
Q 76.333555 190.429536 73.783555 190.429536 
L 19.156445 190.429536 
Q 16.606445 190.429536 16.606445 192.979536 
L 16.606445 220.242223 
Q 16.606445 222.792223 19.156445 222.792223 
z
" style="fill: #e4f4ec; opacity: 0.9; stroke: #1e6b3c; stroke-width: 1.2; stroke-linejoin: miter"/>
    </g>
    <!-- GNN[F] -->
    <g style="fill: #1e6b3c" transform="translate(29.080195 199.438207) scale(0.085 -0.085)">
     <defs>
      <path id="DejaVuSans-Bold-4e" d="M 588 4666 
L 1931 4666 
L 3628 1466 
L 3628 4666 
L 4769 4666 
L 4769 0 
L 3425 0 
L 1728 3200 
L 1728 0 
L 588 0 
L 588 4666 
z
" transform="scale(0.015625)"/>
      <path id="DejaVuSans-Bold-5b" d="M 550 4863 
L 2491 4863 
L 2491 4159 
L 1613 4159 
L 1613 -141 
L 2491 -141 
L 2491 -844 
L 550 -844 
L 550 4863 
z
" transform="scale(0.015625)"/>
      <path id="DejaVuSans-Bold-46" d="M 588 4666 
L 3834 4666 
L 3834 3756 
L 1791 3756 
L 1791 2888 
L 3713 2888 
L 3713 1978 
L 1791 1978 
L 1791 0 
L 588 0 
L 588 4666 
z
" transform="scale(0.015625)"/>
      <path id="DejaVuSans-Bold-5d" d="M 2375 -844 
L 434 -844 
L 434 -141 
L 1313 -141 
L 1313 4159 
L 434 4159 
L 434 4863 
L 2375 4863 
L 2375 -844 
z
" transform="scale(0.015625)"/>
     </defs>
     <use xlink:href="#DejaVuSans-Bold-47"/>
     <use xlink:href="#DejaVuSans-Bold-4e" transform="translate(82.080078 0)"/>
     <use xlink:href="#DejaVuSans-Bold-4e" transform="translate(165.771484 0)"/>
     <use xlink:href="#DejaVuSans-Bold-5b" transform="translate(249.462891 0)"/>
     <use xlink:href="#DejaVuSans-Bold-46" transform="translate(295.166016 0)"/>
     <use xlink:href="#DejaVuSans-Bold-5d" transform="translate(363.476562 0)"/>
    </g>
    <!-- $\equiv$ GNN[R] -->
    <g style="fill: #1e6b3c" transform="translate(21.99 208.956348) scale(0.085 -0.085)">
     <defs>
      <path id="DejaVuSans-2261" d="M 678 2272 
L 4684 2272 
L 4684 1741 
L 678 1741 
L 678 2272 
z
M 678 3438 
L 4684 3438 
L 4684 2906 
L 678 2906 
L 678 3438 
z
M 678 1106 
L 4684 1106 
L 4684 575 
L 678 575 
L 678 1106 
z
" transform="scale(0.015625)"/>
      <path id="DejaVuSans-Bold-20" transform="scale(0.015625)"/>
      <path id="DejaVuSans-Bold-52" d="M 2297 2597 
Q 2675 2597 2839 2737 
Q 3003 2878 3003 3200 
Q 3003 3519 2839 3656 
Q 2675 3794 2297 3794 
L 1791 3794 
L 1791 2597 
L 2297 2597 
z
M 1791 1766 
L 1791 0 
L 588 0 
L 588 4666 
L 2425 4666 
Q 3347 4666 3776 4356 
Q 4206 4047 4206 3378 
Q 4206 2916 3982 2619 
Q 3759 2322 3309 2181 
Q 3556 2125 3751 1926 
Q 3947 1728 4147 1325 
L 4800 0 
L 3519 0 
L 2950 1159 
Q 2778 1509 2601 1637 
Q 2425 1766 2131 1766 
L 1791 1766 
z
" transform="scale(0.015625)"/>
     </defs>
     <use xlink:href="#DejaVuSans-2261" transform="translate(19.482422 0.015625)"/>
     <use xlink:href="#DejaVuSans-Bold-20" transform="translate(122.753906 0.015625)"/>
     <use xlink:href="#DejaVuSans-Bold-47" transform="translate(157.568359 0.015625)"/>
     <use xlink:href="#DejaVuSans-Bold-4e" transform="translate(239.648438 0.015625)"/>
     <use xlink:href="#DejaVuSans-Bold-4e" transform="translate(323.339844 0.015625)"/>
     <use xlink:href="#DejaVuSans-Bold-5b" transform="translate(407.03125 0.015625)"/>
     <use xlink:href="#DejaVuSans-Bold-52" transform="translate(452.734375 0.015625)"/>
     <use xlink:href="#DejaVuSans-Bold-5d" transform="translate(529.736328 0.015625)"/>
    </g>
    <!-- (über MSO) -->
    <g style="fill: #1e6b3c" transform="translate(19.156445 218.474489) scale(0.085 -0.085)">
     <defs>
      <path id="DejaVuSans-Bold-28" d="M 2413 -844 
L 1484 -844 
Q 1006 -72 778 623 
Q 550 1319 550 2003 
Q 550 2688 779 3389 
Q 1009 4091 1484 4856 
L 2413 4856 
Q 2013 4116 1813 3408 
Q 1613 2700 1613 2009 
Q 1613 1319 1811 609 
Q 2009 -100 2413 -844 
z
" transform="scale(0.015625)"/>
      <path id="DejaVuSans-Bold-fc" d="M 500 1363 
L 500 3500 
L 1625 3500 
L 1625 3150 
Q 1625 2866 1622 2436 
Q 1619 2006 1619 1863 
Q 1619 1441 1641 1255 
Q 1663 1069 1716 984 
Q 1784 875 1895 815 
Q 2006 756 2150 756 
Q 2500 756 2700 1025 
Q 2900 1294 2900 1772 
L 2900 3500 
L 4019 3500 
L 4019 0 
L 2900 0 
L 2900 506 
Q 2647 200 2364 54 
Q 2081 -91 1741 -91 
Q 1134 -91 817 281 
Q 500 653 500 1363 
z
M 1280 4953 
L 2014 4953 
L 2014 4184 
L 1280 4184 
L 1280 4953 
z
M 2514 4953 
L 3248 4953 
L 3248 4184 
L 2514 4184 
L 2514 4953 
z
" transform="scale(0.015625)"/>
      <path id="DejaVuSans-Bold-62" d="M 2400 722 
Q 2759 722 2948 984 
Q 3138 1247 3138 1747 
Q 3138 2247 2948 2509 
Q 2759 2772 2400 2772 
Q 2041 2772 1848 2508 
Q 1656 2244 1656 1747 
Q 1656 1250 1848 986 
Q 2041 722 2400 722 
z
M 1656 2988 
Q 1888 3294 2169 3439 
Q 2450 3584 2816 3584 
Q 3463 3584 3878 3070 
Q 4294 2556 4294 1747 
Q 4294 938 3878 423 
Q 3463 -91 2816 -91 
Q 2450 -91 2169 54 
Q 1888 200 1656 506 
L 1656 0 
L 538 0 
L 538 4863 
L 1656 4863 
L 1656 2988 
z
" transform="scale(0.015625)"/>
      <path id="DejaVuSans-Bold-65" d="M 4031 1759 
L 4031 1441 
L 1416 1441 
Q 1456 1047 1700 850 
Q 1944 653 2381 653 
Q 2734 653 3104 758 
Q 3475 863 3866 1075 
L 3866 213 
Q 3469 63 3072 -14 
Q 2675 -91 2278 -91 
Q 1328 -91 801 392 
Q 275 875 275 1747 
Q 275 2603 792 3093 
Q 1309 3584 2216 3584 
Q 3041 3584 3536 3087 
Q 4031 2591 4031 1759 
z
M 2881 2131 
Q 2881 2450 2695 2645 
Q 2509 2841 2209 2841 
Q 1884 2841 1681 2658 
Q 1478 2475 1428 2131 
L 2881 2131 
z
" transform="scale(0.015625)"/>
      <path id="DejaVuSans-Bold-72" d="M 3138 2547 
Q 2991 2616 2845 2648 
Q 2700 2681 2553 2681 
Q 2122 2681 1889 2404 
Q 1656 2128 1656 1613 
L 1656 0 
L 538 0 
L 538 3500 
L 1656 3500 
L 1656 2925 
Q 1872 3269 2151 3426 
Q 2431 3584 2822 3584 
Q 2878 3584 2943 3579 
Q 3009 3575 3134 3559 
L 3138 2547 
z
" transform="scale(0.015625)"/>
      <path id="DejaVuSans-Bold-4f" d="M 2719 3878 
Q 2169 3878 1866 3472 
Q 1563 3066 1563 2328 
Q 1563 1594 1866 1187 
Q 2169 781 2719 781 
Q 3272 781 3575 1187 
Q 3878 1594 3878 2328 
Q 3878 3066 3575 3472 
Q 3272 3878 2719 3878 
z
M 2719 4750 
Q 3844 4750 4481 4106 
Q 5119 3463 5119 2328 
Q 5119 1197 4481 553 
Q 3844 -91 2719 -91 
Q 1597 -91 958 553 
Q 319 1197 319 2328 
Q 319 3463 958 4106 
Q 1597 4750 2719 4750 
z
" transform="scale(0.015625)"/>
      <path id="DejaVuSans-Bold-29" d="M 513 -844 
Q 913 -100 1113 609 
Q 1313 1319 1313 2009 
Q 1313 2700 1113 3408 
Q 913 4116 513 4856 
L 1441 4856 
Q 1916 4091 2145 3389 
Q 2375 2688 2375 2003 
Q 2375 1319 2147 623 
Q 1919 -72 1441 -844 
L 513 -844 
z
" transform="scale(0.015625)"/>
     </defs>
     <use xlink:href="#DejaVuSans-Bold-28"/>
     <use xlink:href="#DejaVuSans-Bold-fc" transform="translate(45.703125 0)"/>
     <use xlink:href="#DejaVuSans-Bold-62" transform="translate(116.894531 0)"/>
     <use xlink:href="#DejaVuSans-Bold-65" transform="translate(188.476562 0)"/>
     <use xlink:href="#DejaVuSans-Bold-72" transform="translate(256.298828 0)"/>
     <use xlink:href="#DejaVuSans-Bold-20" transform="translate(305.615234 0)"/>
     <use xlink:href="#DejaVuSans-Bold-4d" transform="translate(340.429688 0)"/>
     <use xlink:href="#DejaVuSans-Bold-53" transform="translate(439.941406 0)"/>
     <use xlink:href="#DejaVuSans-Bold-4f" transform="translate(511.962891 0)"/>
     <use xlink:href="#DejaVuSans-Bold-29" transform="translate(596.972656 0)"/>
    </g>
   </g>
   <g id="text_7">
    <!-- ◇_{≥k} φ  —  Zählmodalitäten -->
    <g style="fill: #1c3a5e" transform="translate(298.529531 203.874482) scale(0.085 -0.085)">
     <defs>
      <path id="DejaVuSans-25c7" d="M 494 1663 
L 2459 -313 
L 4428 1663 
L 2459 3638 
L 494 1663 
z
M 19 1663 
L 2459 4113 
L 4903 1663 
L 2459 -788 
L 19 1663 
z
" transform="scale(0.015625)"/>
      <path id="DejaVuSans-5f" d="M 3263 -1063 
L 3263 -1509 
L -63 -1509 
L -63 -1063 
L 3263 -1063 
z
" transform="scale(0.015625)"/>
      <path id="DejaVuSans-7b" d="M 3272 -594 
L 3272 -1044 
L 3078 -1044 
Q 2300 -1044 2036 -812 
Q 1772 -581 1772 109 
L 1772 856 
Q 1772 1328 1603 1509 
Q 1434 1691 991 1691 
L 800 1691 
L 800 2138 
L 991 2138 
Q 1438 2138 1605 2317 
Q 1772 2497 1772 2963 
L 1772 3713 
Q 1772 4403 2036 4633 
Q 2300 4863 3078 4863 
L 3272 4863 
L 3272 4416 
L 3059 4416 
Q 2619 4416 2484 4278 
Q 2350 4141 2350 3700 
L 2350 2925 
Q 2350 2434 2208 2212 
Q 2066 1991 1722 1913 
Q 2069 1828 2209 1606 
Q 2350 1384 2350 897 
L 2350 122 
Q 2350 -319 2484 -456 
Q 2619 -594 3059 -594 
L 3272 -594 
z
" transform="scale(0.015625)"/>
      <path id="DejaVuSans-2265" d="M 678 3175 
L 678 3725 
L 4684 2578 
L 4684 2047 
L 678 897 
L 678 1453 
L 3681 2309 
L 678 3175 
z
M 4684 531 
L 4684 0 
L 678 0 
L 678 531 
L 4684 531 
z
" transform="scale(0.015625)"/>
      <path id="DejaVuSans-6b" d="M 581 4863 
L 1159 4863 
L 1159 1991 
L 2875 3500 
L 3609 3500 
L 1753 1863 
L 3688 0 
L 2938 0 
L 1159 1709 
L 1159 0 
L 581 0 
L 581 4863 
z
" transform="scale(0.015625)"/>
      <path id="DejaVuSans-7d" d="M 800 -594 
L 1019 -594 
Q 1456 -594 1589 -459 
Q 1722 -325 1722 122 
L 1722 897 
Q 1722 1384 1862 1606 
Q 2003 1828 2350 1913 
Q 2003 1991 1862 2212 
Q 1722 2434 1722 2925 
L 1722 3700 
Q 1722 4144 1589 4280 
Q 1456 4416 1019 4416 
L 800 4416 
L 800 4863 
L 997 4863 
Q 1775 4863 2036 4633 
Q 2297 4403 2297 3713 
L 2297 2963 
Q 2297 2497 2465 2317 
Q 2634 2138 3078 2138 
L 3272 2138 
L 3272 1691 
L 3078 1691 
Q 2634 1691 2465 1509 
Q 2297 1328 2297 856 
L 2297 109 
Q 2297 -581 2036 -812 
Q 1775 -1044 997 -1044 
L 800 -1044 
L 800 -594 
z
" transform="scale(0.015625)"/>
      <path id="DejaVuSans-3c6" d="M 2591 3034 
Q 2388 3034 2388 2581 
L 2388 438 
Q 2684 438 2981 763 
Q 3247 1053 3247 1750 
Q 3247 2400 2978 2750 
Q 2759 3034 2591 3034 
z
M 2591 3525 
Q 3028 3525 3425 3113 
Q 3853 2672 3853 1750 
Q 3853 903 3425 400 
Q 3022 -75 2388 -75 
L 2388 -1331 
L 1816 -1331 
L 1816 -78 
Q 1194 -78 775 400 
Q 350 888 350 1747 
Q 350 2641 775 3097 
Q 1094 3438 1613 3525 
L 1613 3016 
Q 1406 2944 1225 2700 
Q 956 2341 956 1747 
Q 956 1116 1225 756 
Q 1466 434 1816 434 
L 1816 2581 
Q 1816 3525 2591 3525 
z
" transform="scale(0.015625)"/>
      <path id="DejaVuSans-2014" d="M 313 1978 
L 6088 1978 
L 6088 1528 
L 313 1528 
L 313 1978 
z
" transform="scale(0.015625)"/>
      <path id="DejaVuSans-5a" d="M 359 4666 
L 4025 4666 
L 4025 4184 
L 1075 531 
L 4097 531 
L 4097 0 
L 288 0 
L 288 481 
L 3238 4134 
L 359 4134 
L 359 4666 
z
" transform="scale(0.015625)"/>
      <path id="DejaVuSans-e4" d="M 2194 1759 
Q 1497 1759 1228 1600 
Q 959 1441 959 1056 
Q 959 750 1161 570 
Q 1363 391 1709 391 
Q 2188 391 2477 730 
Q 2766 1069 2766 1631 
L 2766 1759 
L 2194 1759 
z
M 3341 1997 
L 3341 0 
L 2766 0 
L 2766 531 
Q 2569 213 2275 61 
Q 1981 -91 1556 -91 
Q 1019 -91 701 211 
Q 384 513 384 1019 
Q 384 1609 779 1909 
Q 1175 2209 1959 2209 
L 2766 2209 
L 2766 2266 
Q 2766 2663 2505 2880 
Q 2244 3097 1772 3097 
Q 1472 3097 1187 3025 
Q 903 2953 641 2809 
L 641 3341 
Q 956 3463 1253 3523 
Q 1550 3584 1831 3584 
Q 2591 3584 2966 3190 
Q 3341 2797 3341 1997 
z
M 2150 4850 
L 2784 4850 
L 2784 4219 
L 2150 4219 
L 2150 4850 
z
M 928 4850 
L 1562 4850 
L 1562 4219 
L 928 4219 
L 928 4850 
z
" transform="scale(0.015625)"/>
      <path id="DejaVuSans-68" d="M 3513 2113 
L 3513 0 
L 2938 0 
L 2938 2094 
Q 2938 2591 2744 2837 
Q 2550 3084 2163 3084 
Q 1697 3084 1428 2787 
Q 1159 2491 1159 1978 
L 1159 0 
L 581 0 
L 581 4863 
L 1159 4863 
L 1159 2956 
Q 1366 3272 1645 3428 
Q 1925 3584 2291 3584 
Q 2894 3584 3203 3211 
Q 3513 2838 3513 2113 
z
" transform="scale(0.015625)"/>
      <path id="DejaVuSans-6c" d="M 603 4863 
L 1178 4863 
L 1178 0 
L 603 0 
L 603 4863 
z
" transform="scale(0.015625)"/>
      <path id="DejaVuSans-6d" d="M 3328 2828 
Q 3544 3216 3844 3400 
Q 4144 3584 4550 3584 
Q 5097 3584 5394 3201 
Q 5691 2819 5691 2113 
L 5691 0 
L 5113 0 
L 5113 2094 
Q 5113 2597 4934 2840 
Q 4756 3084 4391 3084 
Q 3944 3084 3684 2787 
Q 3425 2491 3425 1978 
L 3425 0 
L 2847 0 
L 2847 2094 
Q 2847 2600 2669 2842 
Q 2491 3084 2119 3084 
Q 1678 3084 1418 2786 
Q 1159 2488 1159 1978 
L 1159 0 
L 581 0 
L 581 3500 
L 1159 3500 
L 1159 2956 
Q 1356 3278 1631 3431 
Q 1906 3584 2284 3584 
Q 2666 3584 2933 3390 
Q 3200 3197 3328 2828 
z
" transform="scale(0.015625)"/>
      <path id="DejaVuSans-6f" d="M 1959 3097 
Q 1497 3097 1228 2736 
Q 959 2375 959 1747 
Q 959 1119 1226 758 
Q 1494 397 1959 397 
Q 2419 397 2687 759 
Q 2956 1122 2956 1747 
Q 2956 2369 2687 2733 
Q 2419 3097 1959 3097 
z
M 1959 3584 
Q 2709 3584 3137 3096 
Q 3566 2609 3566 1747 
Q 3566 888 3137 398 
Q 2709 -91 1959 -91 
Q 1206 -91 779 398 
Q 353 888 353 1747 
Q 353 2609 779 3096 
Q 1206 3584 1959 3584 
z
" transform="scale(0.015625)"/>
      <path id="DejaVuSans-64" d="M 2906 2969 
L 2906 4863 
L 3481 4863 
L 3481 0 
L 2906 0 
L 2906 525 
Q 2725 213 2448 61 
Q 2172 -91 1784 -91 
Q 1150 -91 751 415 
Q 353 922 353 1747 
Q 353 2572 751 3078 
Q 1150 3584 1784 3584 
Q 2172 3584 2448 3432 
Q 2725 3281 2906 2969 
z
M 947 1747 
Q 947 1113 1208 752 
Q 1469 391 1925 391 
Q 2381 391 2643 752 
Q 2906 1113 2906 1747 
Q 2906 2381 2643 2742 
Q 2381 3103 1925 3103 
Q 1469 3103 1208 2742 
Q 947 2381 947 1747 
z
" transform="scale(0.015625)"/>
      <path id="DejaVuSans-61" d="M 2194 1759 
Q 1497 1759 1228 1600 
Q 959 1441 959 1056 
Q 959 750 1161 570 
Q 1363 391 1709 391 
Q 2188 391 2477 730 
Q 2766 1069 2766 1631 
L 2766 1759 
L 2194 1759 
z
M 3341 1997 
L 3341 0 
L 2766 0 
L 2766 531 
Q 2569 213 2275 61 
Q 1981 -91 1556 -91 
Q 1019 -91 701 211 
Q 384 513 384 1019 
Q 384 1609 779 1909 
Q 1175 2209 1959 2209 
L 2766 2209 
L 2766 2266 
Q 2766 2663 2505 2880 
Q 2244 3097 1772 3097 
Q 1472 3097 1187 3025 
Q 903 2953 641 2809 
L 641 3341 
Q 956 3463 1253 3523 
Q 1550 3584 1831 3584 
Q 2591 3584 2966 3190 
Q 3341 2797 3341 1997 
z
" transform="scale(0.015625)"/>
      <path id="DejaVuSans-69" d="M 603 3500 
L 1178 3500 
L 1178 0 
L 603 0 
L 603 3500 
z
M 603 4863 
L 1178 4863 
L 1178 4134 
L 603 4134 
L 603 4863 
z
" transform="scale(0.015625)"/>
      <path id="DejaVuSans-74" d="M 1172 4494 
L 1172 3500 
L 2356 3500 
L 2356 3053 
L 1172 3053 
L 1172 1153 
Q 1172 725 1289 603 
Q 1406 481 1766 481 
L 2356 481 
L 2356 0 
L 1766 0 
Q 1100 0 847 248 
Q 594 497 594 1153 
L 594 3053 
L 172 3053 
L 172 3500 
L 594 3500 
L 594 4494 
L 1172 4494 
z
" transform="scale(0.015625)"/>
      <path id="DejaVuSans-65" d="M 3597 1894 
L 3597 1613 
L 953 1613 
Q 991 1019 1311 708 
Q 1631 397 2203 397 
Q 2534 397 2845 478 
Q 3156 559 3463 722 
L 3463 178 
Q 3153 47 2828 -22 
Q 2503 -91 2169 -91 
Q 1331 -91 842 396 
Q 353 884 353 1716 
Q 353 2575 817 3079 
Q 1281 3584 2069 3584 
Q 2775 3584 3186 3129 
Q 3597 2675 3597 1894 
z
M 3022 2063 
Q 3016 2534 2758 2815 
Q 2500 3097 2075 3097 
Q 1594 3097 1305 2825 
Q 1016 2553 972 2059 
L 3022 2063 
z
" transform="scale(0.015625)"/>
      <path id="DejaVuSans-6e" d="M 3513 2113 
L 3513 0 
L 2938 0 
L 2938 2094 
Q 2938 2591 2744 2837 
Q 2550 3084 2163 3084 
Q 1697 3084 1428 2787 
Q 1159 2491 1159 1978 
L 1159 0 
L 581 0 
L 581 3500 
L 1159 3500 
L 1159 2956 
Q 1366 3272 1645 3428 
Q 1925 3584 2291 3584 
Q 2894 3584 3203 3211 
Q 3513 2838 3513 2113 
z
" transform="scale(0.015625)"/>
     </defs>
     <use xlink:href="#DejaVuSans-25c7"/>
     <use xlink:href="#DejaVuSans-5f" transform="translate(76.904297 0)"/>
     <use xlink:href="#DejaVuSans-7b" transform="translate(126.904297 0)"/>
     <use xlink:href="#DejaVuSans-2265" transform="translate(190.527344 0)"/>
     <use xlink:href="#DejaVuSans-6b" transform="translate(274.316406 0)"/>
     <use xlink:href="#DejaVuSans-7d" transform="translate(332.226562 0)"/>
     <use xlink:href="#DejaVuSans-20" transform="translate(395.849609 0)"/>
     <use xlink:href="#DejaVuSans-3c6" transform="translate(427.636719 0)"/>
     <use xlink:href="#DejaVuSans-20" transform="translate(493.603516 0)"/>
     <use xlink:href="#DejaVuSans-20" transform="translate(525.390625 0)"/>
     <use xlink:href="#DejaVuSans-2014" transform="translate(557.177734 0)"/>
     <use xlink:href="#DejaVuSans-20" transform="translate(657.177734 0)"/>
     <use xlink:href="#DejaVuSans-20" transform="translate(688.964844 0)"/>
     <use xlink:href="#DejaVuSans-5a" transform="translate(720.751953 0)"/>
     <use xlink:href="#DejaVuSans-e4" transform="translate(789.257812 0)"/>
     <use xlink:href="#DejaVuSans-68" transform="translate(850.537109 0)"/>
     <use xlink:href="#DejaVuSans-6c" transform="translate(913.916016 0)"/>
     <use xlink:href="#DejaVuSans-6d" transform="translate(941.699219 0)"/>
     <use xlink:href="#DejaVuSans-6f" transform="translate(1039.111328 0)"/>
     <use xlink:href="#DejaVuSans-64" transform="translate(1100.292969 0)"/>
     <use xlink:href="#DejaVuSans-61" transform="translate(1163.769531 0)"/>
     <use xlink:href="#DejaVuSans-6c" transform="translate(1225.048828 0)"/>
     <use xlink:href="#DejaVuSans-69" transform="translate(1252.832031 0)"/>
     <use xlink:href="#DejaVuSans-74" transform="translate(1280.615234 0)"/>
     <use xlink:href="#DejaVuSans-e4" transform="translate(1319.824219 0)"/>
     <use xlink:href="#DejaVuSans-74" transform="translate(1381.103516 0)"/>
     <use xlink:href="#DejaVuSans-65" transform="translate(1420.3125 0)"/>
     <use xlink:href="#DejaVuSans-6e" transform="translate(1481.835938 0)"/>
    </g>
   </g>
   <g id="text_8">
    <!-- Konstantiterations-GNNs ≡ GML -->
    <g style="fill: #1c3a5e" transform="translate(296.174766 232.262503) scale(0.085 -0.085)">
     <defs>
      <path id="DejaVuSans-4b" d="M 628 4666 
L 1259 4666 
L 1259 2694 
L 3353 4666 
L 4166 4666 
L 1850 2491 
L 4331 0 
L 3500 0 
L 1259 2247 
L 1259 0 
L 628 0 
L 628 4666 
z
" transform="scale(0.015625)"/>
      <path id="DejaVuSans-73" d="M 2834 3397 
L 2834 2853 
Q 2591 2978 2328 3040 
Q 2066 3103 1784 3103 
Q 1356 3103 1142 2972 
Q 928 2841 928 2578 
Q 928 2378 1081 2264 
Q 1234 2150 1697 2047 
L 1894 2003 
Q 2506 1872 2764 1633 
Q 3022 1394 3022 966 
Q 3022 478 2636 193 
Q 2250 -91 1575 -91 
Q 1294 -91 989 -36 
Q 684 19 347 128 
L 347 722 
Q 666 556 975 473 
Q 1284 391 1588 391 
Q 1994 391 2212 530 
Q 2431 669 2431 922 
Q 2431 1156 2273 1281 
Q 2116 1406 1581 1522 
L 1381 1569 
Q 847 1681 609 1914 
Q 372 2147 372 2553 
Q 372 3047 722 3315 
Q 1072 3584 1716 3584 
Q 2034 3584 2315 3537 
Q 2597 3491 2834 3397 
z
" transform="scale(0.015625)"/>
      <path id="DejaVuSans-72" d="M 2631 2963 
Q 2534 3019 2420 3045 
Q 2306 3072 2169 3072 
Q 1681 3072 1420 2755 
Q 1159 2438 1159 1844 
L 1159 0 
L 581 0 
L 581 3500 
L 1159 3500 
L 1159 2956 
Q 1341 3275 1631 3429 
Q 1922 3584 2338 3584 
Q 2397 3584 2469 3576 
Q 2541 3569 2628 3553 
L 2631 2963 
z
" transform="scale(0.015625)"/>
      <path id="DejaVuSans-4e" d="M 628 4666 
L 1478 4666 
L 3547 763 
L 3547 4666 
L 4159 4666 
L 4159 0 
L 3309 0 
L 1241 3903 
L 1241 0 
L 628 0 
L 628 4666 
z
" transform="scale(0.015625)"/>
     </defs>
     <use xlink:href="#DejaVuSans-4b"/>
     <use xlink:href="#DejaVuSans-6f" transform="translate(60.576172 0)"/>
     <use xlink:href="#DejaVuSans-6e" transform="translate(121.757812 0)"/>
     <use xlink:href="#DejaVuSans-73" transform="translate(185.136719 0)"/>
     <use xlink:href="#DejaVuSans-74" transform="translate(237.236328 0)"/>
     <use xlink:href="#DejaVuSans-61" transform="translate(276.445312 0)"/>
     <use xlink:href="#DejaVuSans-6e" transform="translate(337.724609 0)"/>
     <use xlink:href="#DejaVuSans-74" transform="translate(401.103516 0)"/>
     <use xlink:href="#DejaVuSans-69" transform="translate(440.3125 0)"/>
     <use xlink:href="#DejaVuSans-74" transform="translate(468.095703 0)"/>
     <use xlink:href="#DejaVuSans-65" transform="translate(507.304688 0)"/>
     <use xlink:href="#DejaVuSans-72" transform="translate(568.828125 0)"/>
     <use xlink:href="#DejaVuSans-61" transform="translate(609.941406 0)"/>
     <use xlink:href="#DejaVuSans-74" transform="translate(671.220703 0)"/>
     <use xlink:href="#DejaVuSans-69" transform="translate(710.429688 0)"/>
     <use xlink:href="#DejaVuSans-6f" transform="translate(738.212891 0)"/>
     <use xlink:href="#DejaVuSans-6e" transform="translate(799.394531 0)"/>
     <use xlink:href="#DejaVuSans-73" transform="translate(862.773438 0)"/>
     <use xlink:href="#DejaVuSans-2d" transform="translate(914.873047 0)"/>
     <use xlink:href="#DejaVuSans-47" transform="translate(954.582031 0)"/>
     <use xlink:href="#DejaVuSans-4e" transform="translate(1032.072266 0)"/>
     <use xlink:href="#DejaVuSans-4e" transform="translate(1106.876953 0)"/>
     <use xlink:href="#DejaVuSans-73" transform="translate(1181.681641 0)"/>
     <use xlink:href="#DejaVuSans-20" transform="translate(1233.78125 0)"/>
     <use xlink:href="#DejaVuSans-2261" transform="translate(1265.568359 0)"/>
     <use xlink:href="#DejaVuSans-20" transform="translate(1349.357422 0)"/>
     <use xlink:href="#DejaVuSans-47" transform="translate(1381.144531 0)"/>
     <use xlink:href="#DejaVuSans-4d" transform="translate(1458.634766 0)"/>
     <use xlink:href="#DejaVuSans-4c" transform="translate(1544.914062 0)"/>
    </g>
   </g>
   <g id="text_9">
    <!-- Reachability in $k$ Schritten (festes $k$) -->
    <g style="fill: #1c3a5e" transform="translate(286.9775 260.524352) scale(0.085 -0.085)">
     <defs>
      <path id="DejaVuSans-52" d="M 2841 2188 
Q 3044 2119 3236 1894 
Q 3428 1669 3622 1275 
L 4263 0 
L 3584 0 
L 2988 1197 
Q 2756 1666 2539 1819 
Q 2322 1972 1947 1972 
L 1259 1972 
L 1259 0 
L 628 0 
L 628 4666 
L 2053 4666 
Q 2853 4666 3247 4331 
Q 3641 3997 3641 3322 
Q 3641 2881 3436 2590 
Q 3231 2300 2841 2188 
z
M 1259 4147 
L 1259 2491 
L 2053 2491 
Q 2509 2491 2742 2702 
Q 2975 2913 2975 3322 
Q 2975 3731 2742 3939 
Q 2509 4147 2053 4147 
L 1259 4147 
z
" transform="scale(0.015625)"/>
      <path id="DejaVuSans-63" d="M 3122 3366 
L 3122 2828 
Q 2878 2963 2633 3030 
Q 2388 3097 2138 3097 
Q 1578 3097 1268 2742 
Q 959 2388 959 1747 
Q 959 1106 1268 751 
Q 1578 397 2138 397 
Q 2388 397 2633 464 
Q 2878 531 3122 666 
L 3122 134 
Q 2881 22 2623 -34 
Q 2366 -91 2075 -91 
Q 1284 -91 818 406 
Q 353 903 353 1747 
Q 353 2603 823 3093 
Q 1294 3584 2113 3584 
Q 2378 3584 2631 3529 
Q 2884 3475 3122 3366 
z
" transform="scale(0.015625)"/>
      <path id="DejaVuSans-62" d="M 3116 1747 
Q 3116 2381 2855 2742 
Q 2594 3103 2138 3103 
Q 1681 3103 1420 2742 
Q 1159 2381 1159 1747 
Q 1159 1113 1420 752 
Q 1681 391 2138 391 
Q 2594 391 2855 752 
Q 3116 1113 3116 1747 
z
M 1159 2969 
Q 1341 3281 1617 3432 
Q 1894 3584 2278 3584 
Q 2916 3584 3314 3078 
Q 3713 2572 3713 1747 
Q 3713 922 3314 415 
Q 2916 -91 2278 -91 
Q 1894 -91 1617 61 
Q 1341 213 1159 525 
L 1159 0 
L 581 0 
L 581 4863 
L 1159 4863 
L 1159 2969 
z
" transform="scale(0.015625)"/>
      <path id="DejaVuSans-79" d="M 2059 -325 
Q 1816 -950 1584 -1140 
Q 1353 -1331 966 -1331 
L 506 -1331 
L 506 -850 
L 844 -850 
Q 1081 -850 1212 -737 
Q 1344 -625 1503 -206 
L 1606 56 
L 191 3500 
L 800 3500 
L 1894 763 
L 2988 3500 
L 3597 3500 
L 2059 -325 
z
" transform="scale(0.015625)"/>
      <path id="DejaVuSans-Oblique-6b" d="M 1172 4863 
L 1747 4863 
L 1197 2028 
L 3169 3500 
L 3916 3500 
L 1716 1825 
L 3322 0 
L 2625 0 
L 1131 1709 
L 800 0 
L 225 0 
L 1172 4863 
z
" transform="scale(0.015625)"/>
      <path id="DejaVuSans-28" d="M 1984 4856 
Q 1566 4138 1362 3434 
Q 1159 2731 1159 2009 
Q 1159 1288 1364 580 
Q 1569 -128 1984 -844 
L 1484 -844 
Q 1016 -109 783 600 
Q 550 1309 550 2009 
Q 550 2706 781 3412 
Q 1013 4119 1484 4856 
L 1984 4856 
z
" transform="scale(0.015625)"/>
      <path id="DejaVuSans-66" d="M 2375 4863 
L 2375 4384 
L 1825 4384 
Q 1516 4384 1395 4259 
Q 1275 4134 1275 3809 
L 1275 3500 
L 2222 3500 
L 2222 3053 
L 1275 3053 
L 1275 0 
L 697 0 
L 697 3053 
L 147 3053 
L 147 3500 
L 697 3500 
L 697 3744 
Q 697 4328 969 4595 
Q 1241 4863 1831 4863 
L 2375 4863 
z
" transform="scale(0.015625)"/>
      <path id="DejaVuSans-29" d="M 513 4856 
L 1013 4856 
Q 1481 4119 1714 3412 
Q 1947 2706 1947 2009 
Q 1947 1309 1714 600 
Q 1481 -109 1013 -844 
L 513 -844 
Q 928 -128 1133 580 
Q 1338 1288 1338 2009 
Q 1338 2731 1133 3434 
Q 928 4138 513 4856 
z
" transform="scale(0.015625)"/>
     </defs>
     <use xlink:href="#DejaVuSans-52" transform="translate(0 0.015625)"/>
     <use xlink:href="#DejaVuSans-65" transform="translate(69.482422 0.015625)"/>
     <use xlink:href="#DejaVuSans-61" transform="translate(131.005859 0.015625)"/>
     <use xlink:href="#DejaVuSans-63" transform="translate(192.285156 0.015625)"/>
     <use xlink:href="#DejaVuSans-68" transform="translate(247.265625 0.015625)"/>
     <use xlink:href="#DejaVuSans-61" transform="translate(310.644531 0.015625)"/>
     <use xlink:href="#DejaVuSans-62" transform="translate(371.923828 0.015625)"/>
     <use xlink:href="#DejaVuSans-69" transform="translate(435.400391 0.015625)"/>
     <use xlink:href="#DejaVuSans-6c" transform="translate(463.183594 0.015625)"/>
     <use xlink:href="#DejaVuSans-69" transform="translate(490.966797 0.015625)"/>
     <use xlink:href="#DejaVuSans-74" transform="translate(518.75 0.015625)"/>
     <use xlink:href="#DejaVuSans-79" transform="translate(557.958984 0.015625)"/>
     <use xlink:href="#DejaVuSans-20" transform="translate(617.138672 0.015625)"/>
     <use xlink:href="#DejaVuSans-69" transform="translate(648.925781 0.015625)"/>
     <use xlink:href="#DejaVuSans-6e" transform="translate(676.708984 0.015625)"/>
     <use xlink:href="#DejaVuSans-20" transform="translate(740.087891 0.015625)"/>
     <use xlink:href="#DejaVuSans-Oblique-6b" transform="translate(771.875 0.015625)"/>
     <use xlink:href="#DejaVuSans-20" transform="translate(829.785156 0.015625)"/>
     <use xlink:href="#DejaVuSans-53" transform="translate(861.572266 0.015625)"/>
     <use xlink:href="#DejaVuSans-63" transform="translate(925.048828 0.015625)"/>
     <use xlink:href="#DejaVuSans-68" transform="translate(980.029297 0.015625)"/>
     <use xlink:href="#DejaVuSans-72" transform="translate(1043.408203 0.015625)"/>
     <use xlink:href="#DejaVuSans-69" transform="translate(1084.521484 0.015625)"/>
     <use xlink:href="#DejaVuSans-74" transform="translate(1112.304688 0.015625)"/>
     <use xlink:href="#DejaVuSans-74" transform="translate(1151.513672 0.015625)"/>
     <use xlink:href="#DejaVuSans-65" transform="translate(1190.722656 0.015625)"/>
     <use xlink:href="#DejaVuSans-6e" transform="translate(1252.246094 0.015625)"/>
     <use xlink:href="#DejaVuSans-20" transform="translate(1315.625 0.015625)"/>
     <use xlink:href="#DejaVuSans-28" transform="translate(1347.412109 0.015625)"/>
     <use xlink:href="#DejaVuSans-66" transform="translate(1386.425781 0.015625)"/>
     <use xlink:href="#DejaVuSans-65" transform="translate(1421.630859 0.015625)"/>
     <use xlink:href="#DejaVuSans-73" transform="translate(1483.154297 0.015625)"/>
     <use xlink:href="#DejaVuSans-74" transform="translate(1535.253906 0.015625)"/>
     <use xlink:href="#DejaVuSans-65" transform="translate(1574.462891 0.015625)"/>
     <use xlink:href="#DejaVuSans-73" transform="translate(1635.986328 0.015625)"/>
     <use xlink:href="#DejaVuSans-20" transform="translate(1688.085938 0.015625)"/>
     <use xlink:href="#DejaVuSans-Oblique-6b" transform="translate(1719.873047 0.015625)"/>
     <use xlink:href="#DejaVuSans-29" transform="translate(1777.783203 0.015625)"/>
    </g>
   </g>
   <g id="text_10">
    <!-- $X^n$ = ◇$X^{n-1}$ ∧ □$X^{n-1}$ -->
    <g style="fill: #1a4f8a" transform="translate(222.268 301.701648) scale(0.08 -0.08)">
     <defs>
      <path id="DejaVuSans-Oblique-58" d="M 878 4666 
L 1516 4666 
L 2316 2981 
L 3763 4666 
L 4500 4666 
L 2578 2438 
L 3738 0 
L 3103 0 
L 2163 1966 
L 459 0 
L -275 0 
L 1906 2509 
L 878 4666 
z
" transform="scale(0.015625)"/>
      <path id="DejaVuSans-Oblique-6e" d="M 3566 2113 
L 3156 0 
L 2578 0 
L 2988 2091 
Q 3016 2238 3031 2350 
Q 3047 2463 3047 2528 
Q 3047 2791 2881 2937 
Q 2716 3084 2419 3084 
Q 1956 3084 1622 2776 
Q 1288 2469 1184 1941 
L 800 0 
L 225 0 
L 903 3500 
L 1478 3500 
L 1363 2950 
Q 1603 3253 1940 3418 
Q 2278 3584 2650 3584 
Q 3113 3584 3367 3334 
Q 3622 3084 3622 2631 
Q 3622 2519 3608 2391 
Q 3594 2263 3566 2113 
z
" transform="scale(0.015625)"/>
      <path id="DejaVuSans-Oblique-20" transform="scale(0.015625)"/>
      <path id="DejaVuSans-Oblique-3d" d="M 678 2906 
L 4684 2906 
L 4684 2381 
L 678 2381 
L 678 2906 
z
M 678 1631 
L 4684 1631 
L 4684 1100 
L 678 1100 
L 678 1631 
z
" transform="scale(0.015625)"/>
      <path id="DejaVuSans-Oblique-25c7" d="M 494 1663 
L 2459 -313 
L 4428 1663 
L 2459 3638 
L 494 1663 
z
M 19 1663 
L 2459 4113 
L 4903 1663 
L 2459 -788 
L 19 1663 
z
" transform="scale(0.015625)"/>
      <path id="DejaVuSans-2212" d="M 678 2272 
L 4684 2272 
L 4684 1741 
L 678 1741 
L 678 2272 
z
" transform="scale(0.015625)"/>
      <path id="DejaVuSans-31" d="M 794 531 
L 1825 531 
L 1825 4091 
L 703 3866 
L 703 4441 
L 1819 4666 
L 2450 4666 
L 2450 531 
L 3481 531 
L 3481 0 
L 794 0 
L 794 531 
z
" transform="scale(0.015625)"/>
      <path id="DejaVuSans-Oblique-2227" d="M 825 0 
L 1953 3706 
L 2734 3706 
L 3859 0 
L 3250 0 
L 2344 2938 
L 1434 0 
L 825 0 
z
" transform="scale(0.015625)"/>
      <path id="DejaVuSans-Oblique-25a1" d="M 938 -431 
L 5109 -431 
L 5109 3756 
L 938 3756 
L 938 -431 
z
M 581 -788 
L 581 4113 
L 5466 4113 
L 5466 -788 
L 581 -788 
z
" transform="scale(0.015625)"/>
     </defs>
     <use xlink:href="#DejaVuSans-Oblique-58" transform="translate(0 0.684375)"/>
     <use xlink:href="#DejaVuSans-Oblique-6e" transform="translate(75.52263 38.965625) scale(0.7)"/>
     <use xlink:href="#DejaVuSans-Oblique-20" transform="translate(122.62224 0.684375)"/>
     <use xlink:href="#DejaVuSans-Oblique-3d" transform="translate(154.409349 0.684375)"/>
     <use xlink:href="#DejaVuSans-Oblique-20" transform="translate(238.198411 0.684375)"/>
     <use xlink:href="#DejaVuSans-Oblique-25c7" transform="translate(269.985521 0.684375)"/>
     <use xlink:href="#DejaVuSans-Oblique-58" transform="translate(346.889818 0.684375)"/>
     <use xlink:href="#DejaVuSans-Oblique-6e" transform="translate(422.412448 38.965625) scale(0.7)"/>
     <use xlink:href="#DejaVuSans-2212" transform="translate(480.415378 38.965625) scale(0.7)"/>
     <use xlink:href="#DejaVuSans-31" transform="translate(552.705417 38.965625) scale(0.7)"/>
     <use xlink:href="#DejaVuSans-Oblique-20" transform="translate(599.975924 0.684375)"/>
     <use xlink:href="#DejaVuSans-Oblique-2227" transform="translate(631.763034 0.684375)"/>
     <use xlink:href="#DejaVuSans-Oblique-20" transform="translate(704.956393 0.684375)"/>
     <use xlink:href="#DejaVuSans-Oblique-25a1" transform="translate(736.743503 0.684375)"/>
     <use xlink:href="#DejaVuSans-Oblique-58" transform="translate(831.225924 0.684375)"/>
     <use xlink:href="#DejaVuSans-Oblique-6e" transform="translate(906.748555 38.965625) scale(0.7)"/>
     <use xlink:href="#DejaVuSans-2212" transform="translate(964.751484 38.965625) scale(0.7)"/>
     <use xlink:href="#DejaVuSans-31" transform="translate(1037.041523 38.965625) scale(0.7)"/>
    </g>
   </g>
   <g id="text_11">
    <!-- Centre-Point-Eigenschaft -->
    <g style="fill: #1a4f8a" transform="translate(215.824875 321.645625) scale(0.08 -0.08)">
     <defs>
      <path id="DejaVuSans-Oblique-43" d="M 4447 4306 
L 4319 3641 
Q 4019 3944 3683 4091 
Q 3347 4238 2956 4238 
Q 2422 4238 2017 3981 
Q 1613 3725 1319 3200 
Q 1131 2863 1032 2486 
Q 934 2109 934 1728 
Q 934 1091 1264 756 
Q 1594 422 2222 422 
Q 2656 422 3056 561 
Q 3456 700 3834 978 
L 3688 231 
Q 3316 72 2936 -9 
Q 2556 -91 2175 -91 
Q 1278 -91 773 396 
Q 269 884 269 1753 
Q 269 2309 461 2846 
Q 653 3384 1013 3828 
Q 1394 4300 1883 4525 
Q 2372 4750 3022 4750 
Q 3422 4750 3780 4639 
Q 4138 4528 4447 4306 
z
" transform="scale(0.015625)"/>
      <path id="DejaVuSans-Oblique-65" d="M 3078 2063 
Q 3088 2113 3092 2166 
Q 3097 2219 3097 2272 
Q 3097 2653 2873 2875 
Q 2650 3097 2266 3097 
Q 1838 3097 1509 2826 
Q 1181 2556 1013 2059 
L 3078 2063 
z
M 3578 1613 
L 903 1613 
Q 884 1494 878 1425 
Q 872 1356 872 1306 
Q 872 872 1139 634 
Q 1406 397 1894 397 
Q 2269 397 2603 481 
Q 2938 566 3225 728 
L 3116 159 
Q 2806 34 2476 -28 
Q 2147 -91 1806 -91 
Q 1078 -91 686 257 
Q 294 606 294 1247 
Q 294 1794 489 2264 
Q 684 2734 1063 3103 
Q 1306 3334 1642 3459 
Q 1978 3584 2356 3584 
Q 2950 3584 3301 3228 
Q 3653 2872 3653 2272 
Q 3653 2128 3634 1964 
Q 3616 1800 3578 1613 
z
" transform="scale(0.015625)"/>
      <path id="DejaVuSans-Oblique-74" d="M 2706 3500 
L 2619 3053 
L 1472 3053 
L 1100 1153 
Q 1081 1047 1072 975 
Q 1063 903 1063 863 
Q 1063 663 1183 572 
Q 1303 481 1569 481 
L 2150 481 
L 2053 0 
L 1503 0 
Q 991 0 739 200 
Q 488 400 488 806 
Q 488 878 497 964 
Q 506 1050 525 1153 
L 897 3053 
L 409 3053 
L 500 3500 
L 978 3500 
L 1172 4494 
L 1747 4494 
L 1556 3500 
L 2706 3500 
z
" transform="scale(0.015625)"/>
      <path id="DejaVuSans-Oblique-72" d="M 2853 2969 
Q 2766 3016 2653 3041 
Q 2541 3066 2413 3066 
Q 1953 3066 1609 2717 
Q 1266 2369 1153 1784 
L 800 0 
L 225 0 
L 909 3500 
L 1484 3500 
L 1375 2956 
Q 1603 3259 1920 3421 
Q 2238 3584 2597 3584 
Q 2691 3584 2781 3573 
Q 2872 3563 2963 3538 
L 2853 2969 
z
" transform="scale(0.015625)"/>
      <path id="DejaVuSans-Oblique-2d" d="M 391 2009 
L 2075 2009 
L 1978 1497 
L 288 1497 
L 391 2009 
z
" transform="scale(0.015625)"/>
      <path id="DejaVuSans-Oblique-50" d="M 1081 4666 
L 2541 4666 
Q 3178 4666 3512 4369 
Q 3847 4072 3847 3500 
Q 3847 2731 3353 2303 
Q 2859 1875 1966 1875 
L 1172 1875 
L 806 0 
L 172 0 
L 1081 4666 
z
M 1613 4147 
L 1275 2394 
L 2069 2394 
Q 2606 2394 2893 2669 
Q 3181 2944 3181 3456 
Q 3181 3784 2986 3965 
Q 2791 4147 2438 4147 
L 1613 4147 
z
" transform="scale(0.015625)"/>
      <path id="DejaVuSans-Oblique-6f" d="M 1625 -91 
Q 1009 -91 651 289 
Q 294 669 294 1325 
Q 294 1706 417 2101 
Q 541 2497 738 2766 
Q 1047 3184 1428 3384 
Q 1809 3584 2291 3584 
Q 2888 3584 3255 3212 
Q 3622 2841 3622 2241 
Q 3622 1825 3500 1412 
Q 3378 1000 3181 728 
Q 2875 309 2494 109 
Q 2113 -91 1625 -91 
z
M 891 1344 
Q 891 869 1089 633 
Q 1288 397 1691 397 
Q 2269 397 2648 901 
Q 3028 1406 3028 2181 
Q 3028 2634 2825 2865 
Q 2622 3097 2228 3097 
Q 1903 3097 1650 2945 
Q 1397 2794 1197 2484 
Q 1050 2253 970 1956 
Q 891 1659 891 1344 
z
" transform="scale(0.015625)"/>
      <path id="DejaVuSans-Oblique-69" d="M 1172 4863 
L 1747 4863 
L 1606 4134 
L 1031 4134 
L 1172 4863 
z
M 909 3500 
L 1484 3500 
L 800 0 
L 225 0 
L 909 3500 
z
" transform="scale(0.015625)"/>
      <path id="DejaVuSans-Oblique-45" d="M 1081 4666 
L 4031 4666 
L 3928 4134 
L 1606 4134 
L 1338 2753 
L 3566 2753 
L 3463 2222 
L 1234 2222 
L 909 531 
L 3284 531 
L 3181 0 
L 172 0 
L 1081 4666 
z
" transform="scale(0.015625)"/>
      <path id="DejaVuSans-Oblique-67" d="M 3816 3500 
L 3219 434 
Q 3047 -456 2561 -893 
Q 2075 -1331 1253 -1331 
Q 950 -1331 690 -1286 
Q 431 -1241 206 -1147 
L 313 -588 
Q 525 -725 762 -790 
Q 1000 -856 1269 -856 
Q 1816 -856 2167 -557 
Q 2519 -259 2631 300 
L 2681 563 
Q 2441 288 2122 144 
Q 1803 0 1434 0 
Q 903 0 598 351 
Q 294 703 294 1319 
Q 294 1803 478 2267 
Q 663 2731 997 3091 
Q 1219 3328 1514 3456 
Q 1809 3584 2131 3584 
Q 2484 3584 2746 3420 
Q 3009 3256 3138 2956 
L 3238 3500 
L 3816 3500 
z
M 2950 2216 
Q 2950 2641 2750 2872 
Q 2550 3103 2181 3103 
Q 1953 3103 1747 3012 
Q 1541 2922 1394 2759 
Q 1156 2491 1023 2127 
Q 891 1763 891 1375 
Q 891 944 1092 712 
Q 1294 481 1672 481 
Q 2219 481 2584 976 
Q 2950 1472 2950 2216 
z
" transform="scale(0.015625)"/>
      <path id="DejaVuSans-Oblique-73" d="M 3200 3397 
L 3091 2853 
Q 2863 2978 2609 3040 
Q 2356 3103 2088 3103 
Q 1634 3103 1373 2948 
Q 1113 2794 1113 2528 
Q 1113 2219 1719 2053 
Q 1766 2041 1788 2034 
L 1972 1978 
Q 2547 1819 2739 1644 
Q 2931 1469 2931 1166 
Q 2931 609 2489 259 
Q 2047 -91 1331 -91 
Q 1053 -91 747 -37 
Q 441 16 72 128 
L 184 722 
Q 500 559 806 475 
Q 1113 391 1394 391 
Q 1816 391 2080 572 
Q 2344 753 2344 1031 
Q 2344 1331 1650 1516 
L 1591 1531 
L 1394 1581 
Q 956 1697 753 1886 
Q 550 2075 550 2369 
Q 550 2928 970 3256 
Q 1391 3584 2113 3584 
Q 2397 3584 2667 3537 
Q 2938 3491 3200 3397 
z
" transform="scale(0.015625)"/>
      <path id="DejaVuSans-Oblique-63" d="M 3431 3366 
L 3316 2797 
Q 3109 2947 2876 3022 
Q 2644 3097 2394 3097 
Q 2119 3097 1870 3000 
Q 1622 2903 1453 2725 
Q 1184 2453 1037 2087 
Q 891 1722 891 1331 
Q 891 859 1127 628 
Q 1363 397 1844 397 
Q 2081 397 2348 469 
Q 2616 541 2906 684 
L 2797 116 
Q 2547 13 2283 -39 
Q 2019 -91 1741 -91 
Q 1044 -91 669 257 
Q 294 606 294 1253 
Q 294 1797 489 2255 
Q 684 2713 1069 3078 
Q 1331 3328 1684 3456 
Q 2038 3584 2456 3584 
Q 2700 3584 2940 3529 
Q 3181 3475 3431 3366 
z
" transform="scale(0.015625)"/>
      <path id="DejaVuSans-Oblique-68" d="M 3566 2113 
L 3156 0 
L 2578 0 
L 2988 2091 
Q 3016 2238 3031 2350 
Q 3047 2463 3047 2528 
Q 3047 2791 2881 2937 
Q 2716 3084 2419 3084 
Q 1956 3084 1617 2771 
Q 1278 2459 1178 1941 
L 800 0 
L 225 0 
L 1172 4863 
L 1747 4863 
L 1375 2950 
Q 1594 3244 1934 3414 
Q 2275 3584 2650 3584 
Q 3113 3584 3367 3334 
Q 3622 3084 3622 2631 
Q 3622 2519 3608 2391 
Q 3594 2263 3566 2113 
z
" transform="scale(0.015625)"/>
      <path id="DejaVuSans-Oblique-61" d="M 3438 1997 
L 3047 0 
L 2472 0 
L 2578 531 
Q 2325 219 2001 64 
Q 1678 -91 1281 -91 
Q 834 -91 548 182 
Q 263 456 263 884 
Q 263 1497 752 1853 
Q 1241 2209 2100 2209 
L 2900 2209 
L 2931 2363 
Q 2938 2388 2941 2417 
Q 2944 2447 2944 2509 
Q 2944 2788 2717 2942 
Q 2491 3097 2081 3097 
Q 1800 3097 1504 3025 
Q 1209 2953 897 2809 
L 997 3341 
Q 1322 3463 1633 3523 
Q 1944 3584 2234 3584 
Q 2853 3584 3176 3315 
Q 3500 3047 3500 2534 
Q 3500 2431 3484 2292 
Q 3469 2153 3438 1997 
z
M 2816 1759 
L 2241 1759 
Q 1534 1759 1195 1570 
Q 856 1381 856 984 
Q 856 709 1029 553 
Q 1203 397 1509 397 
Q 1978 397 2328 733 
Q 2678 1069 2791 1631 
L 2816 1759 
z
" transform="scale(0.015625)"/>
      <path id="DejaVuSans-Oblique-66" d="M 3059 4863 
L 2969 4384 
L 2419 4384 
Q 2106 4384 1964 4261 
Q 1822 4138 1753 3809 
L 1691 3500 
L 2638 3500 
L 2553 3053 
L 1606 3053 
L 1013 0 
L 434 0 
L 1031 3053 
L 481 3053 
L 563 3500 
L 1113 3500 
L 1159 3744 
Q 1278 4363 1576 4613 
Q 1875 4863 2516 4863 
L 3059 4863 
z
" transform="scale(0.015625)"/>
     </defs>
     <use xlink:href="#DejaVuSans-Oblique-43"/>
     <use xlink:href="#DejaVuSans-Oblique-65" transform="translate(69.824219 0)"/>
     <use xlink:href="#DejaVuSans-Oblique-6e" transform="translate(131.347656 0)"/>
     <use xlink:href="#DejaVuSans-Oblique-74" transform="translate(194.726562 0)"/>
     <use xlink:href="#DejaVuSans-Oblique-72" transform="translate(233.935547 0)"/>
     <use xlink:href="#DejaVuSans-Oblique-65" transform="translate(275.048828 0)"/>
     <use xlink:href="#DejaVuSans-Oblique-2d" transform="translate(336.572266 0)"/>
     <use xlink:href="#DejaVuSans-Oblique-50" transform="translate(372.65625 0)"/>
     <use xlink:href="#DejaVuSans-Oblique-6f" transform="translate(432.958984 0)"/>
     <use xlink:href="#DejaVuSans-Oblique-69" transform="translate(494.140625 0)"/>
     <use xlink:href="#DejaVuSans-Oblique-6e" transform="translate(521.923828 0)"/>
     <use xlink:href="#DejaVuSans-Oblique-74" transform="translate(585.302734 0)"/>
     <use xlink:href="#DejaVuSans-Oblique-2d" transform="translate(624.511719 0)"/>
     <use xlink:href="#DejaVuSans-Oblique-45" transform="translate(660.595703 0)"/>
     <use xlink:href="#DejaVuSans-Oblique-69" transform="translate(723.779297 0)"/>
     <use xlink:href="#DejaVuSans-Oblique-67" transform="translate(751.5625 0)"/>
     <use xlink:href="#DejaVuSans-Oblique-65" transform="translate(815.039062 0)"/>
     <use xlink:href="#DejaVuSans-Oblique-6e" transform="translate(876.5625 0)"/>
     <use xlink:href="#DejaVuSans-Oblique-73" transform="translate(939.941406 0)"/>
     <use xlink:href="#DejaVuSans-Oblique-63" transform="translate(992.041016 0)"/>
     <use xlink:href="#DejaVuSans-Oblique-68" transform="translate(1047.021484 0)"/>
     <use xlink:href="#DejaVuSans-Oblique-61" transform="translate(1110.400391 0)"/>
     <use xlink:href="#DejaVuSans-Oblique-66" transform="translate(1171.679688 0)"/>
     <use xlink:href="#DejaVuSans-Oblique-74" transform="translate(1206.884766 0)"/>
    </g>
   </g>
   <g id="text_12">
    <!-- Reachability (unbeschränkt) -->
    <g style="fill: #1a4f8a" transform="translate(406.2495 321.645625) scale(0.08 -0.08)">
     <defs>
      <path id="DejaVuSans-Oblique-52" d="M 1613 4147 
L 1294 2491 
L 2106 2491 
Q 2584 2491 2879 2755 
Q 3175 3019 3175 3444 
Q 3175 3784 2976 3965 
Q 2778 4147 2406 4147 
L 1613 4147 
z
M 2772 2241 
Q 2972 2194 3105 2009 
Q 3238 1825 3413 1275 
L 3809 0 
L 3144 0 
L 2778 1197 
Q 2638 1659 2453 1815 
Q 2269 1972 1888 1972 
L 1191 1972 
L 806 0 
L 172 0 
L 1081 4666 
L 2503 4666 
Q 3150 4666 3495 4373 
Q 3841 4081 3841 3531 
Q 3841 3044 3547 2687 
Q 3253 2331 2772 2241 
z
" transform="scale(0.015625)"/>
      <path id="DejaVuSans-Oblique-62" d="M 3169 2138 
Q 3169 2591 2961 2847 
Q 2753 3103 2388 3103 
Q 2122 3103 1889 2973 
Q 1656 2844 1484 2597 
Q 1303 2338 1198 1995 
Q 1094 1653 1094 1313 
Q 1094 881 1298 636 
Q 1503 391 1863 391 
Q 2134 391 2365 517 
Q 2597 644 2772 891 
Q 2950 1147 3059 1487 
Q 3169 1828 3169 2138 
z
M 1381 2969 
Q 1594 3256 1914 3420 
Q 2234 3584 2584 3584 
Q 3122 3584 3439 3221 
Q 3756 2859 3756 2241 
Q 3756 1734 3570 1259 
Q 3384 784 3041 416 
Q 2816 172 2522 40 
Q 2228 -91 1906 -91 
Q 1566 -91 1316 65 
Q 1066 222 909 531 
L 806 0 
L 231 0 
L 1178 4863 
L 1753 4863 
L 1381 2969 
z
" transform="scale(0.015625)"/>
      <path id="DejaVuSans-Oblique-6c" d="M 1172 4863 
L 1747 4863 
L 800 0 
L 225 0 
L 1172 4863 
z
" transform="scale(0.015625)"/>
      <path id="DejaVuSans-Oblique-79" d="M 1588 -325 
Q 1188 -997 936 -1164 
Q 684 -1331 294 -1331 
L -159 -1331 
L -63 -850 
L 269 -850 
Q 509 -850 678 -719 
Q 847 -588 1056 -206 
L 1234 128 
L 459 3500 
L 1069 3500 
L 1650 819 
L 3256 3500 
L 3859 3500 
L 1588 -325 
z
" transform="scale(0.015625)"/>
      <path id="DejaVuSans-Oblique-28" d="M 2731 4856 
Q 1903 3822 1495 2892 
Q 1088 1963 1088 1100 
Q 1088 606 1206 120 
Q 1325 -366 1563 -844 
L 1063 -844 
Q 775 -306 634 201 
Q 494 709 494 1197 
Q 494 2125 923 3036 
Q 1353 3947 2222 4856 
L 2731 4856 
z
" transform="scale(0.015625)"/>
      <path id="DejaVuSans-Oblique-75" d="M 428 1388 
L 838 3500 
L 1416 3500 
L 1006 1409 
Q 975 1256 961 1147 
Q 947 1038 947 966 
Q 947 700 1109 554 
Q 1272 409 1569 409 
Q 2031 409 2368 721 
Q 2706 1034 2809 1563 
L 3194 3500 
L 3769 3500 
L 3091 0 
L 2516 0 
L 2631 550 
Q 2388 244 2052 76 
Q 1716 -91 1338 -91 
Q 878 -91 622 161 
Q 366 413 366 863 
Q 366 956 381 1097 
Q 397 1238 428 1388 
z
" transform="scale(0.015625)"/>
      <path id="DejaVuSans-Oblique-e4" d="M 3438 1997 
L 3047 0 
L 2472 0 
L 2578 531 
Q 2325 219 2001 64 
Q 1678 -91 1281 -91 
Q 834 -91 548 182 
Q 263 456 263 884 
Q 263 1497 752 1853 
Q 1241 2209 2100 2209 
L 2900 2209 
L 2931 2363 
Q 2938 2388 2941 2417 
Q 2944 2447 2944 2509 
Q 2944 2788 2717 2942 
Q 2491 3097 2081 3097 
Q 1800 3097 1504 3025 
Q 1209 2953 897 2809 
L 997 3341 
Q 1322 3463 1633 3523 
Q 1944 3584 2234 3584 
Q 2853 3584 3176 3315 
Q 3500 3047 3500 2534 
Q 3500 2431 3484 2292 
Q 3469 2153 3438 1997 
z
M 2816 1759 
L 2241 1759 
Q 1534 1759 1195 1570 
Q 856 1381 856 984 
Q 856 709 1029 553 
Q 1203 397 1509 397 
Q 1978 397 2328 733 
Q 2678 1069 2791 1631 
L 2816 1759 
z
M 1612 4850 
L 2253 4850 
L 2125 4219 
L 1490 4219 
L 1612 4850 
z
M 2834 4850 
L 3468 4850 
L 3346 4219 
L 2712 4219 
L 2834 4850 
z
" transform="scale(0.015625)"/>
      <path id="DejaVuSans-Oblique-29" d="M -397 -844 
Q 434 191 840 1120 
Q 1247 2050 1247 2913 
Q 1247 3406 1130 3892 
Q 1013 4378 775 4856 
L 1275 4856 
Q 1563 4316 1703 3812 
Q 1844 3309 1844 2822 
Q 1844 1891 1411 973 
Q 978 56 116 -844 
L -397 -844 
z
" transform="scale(0.015625)"/>
     </defs>
     <use xlink:href="#DejaVuSans-Oblique-52"/>
     <use xlink:href="#DejaVuSans-Oblique-65" transform="translate(69.482422 0)"/>
     <use xlink:href="#DejaVuSans-Oblique-61" transform="translate(131.005859 0)"/>
     <use xlink:href="#DejaVuSans-Oblique-63" transform="translate(192.285156 0)"/>
     <use xlink:href="#DejaVuSans-Oblique-68" transform="translate(247.265625 0)"/>
     <use xlink:href="#DejaVuSans-Oblique-61" transform="translate(310.644531 0)"/>
     <use xlink:href="#DejaVuSans-Oblique-62" transform="translate(371.923828 0)"/>
     <use xlink:href="#DejaVuSans-Oblique-69" transform="translate(435.400391 0)"/>
     <use xlink:href="#DejaVuSans-Oblique-6c" transform="translate(463.183594 0)"/>
     <use xlink:href="#DejaVuSans-Oblique-69" transform="translate(490.966797 0)"/>
     <use xlink:href="#DejaVuSans-Oblique-74" transform="translate(518.75 0)"/>
     <use xlink:href="#DejaVuSans-Oblique-79" transform="translate(557.958984 0)"/>
     <use xlink:href="#DejaVuSans-Oblique-20" transform="translate(617.138672 0)"/>
     <use xlink:href="#DejaVuSans-Oblique-28" transform="translate(648.925781 0)"/>
     <use xlink:href="#DejaVuSans-Oblique-75" transform="translate(687.939453 0)"/>
     <use xlink:href="#DejaVuSans-Oblique-6e" transform="translate(751.318359 0)"/>
     <use xlink:href="#DejaVuSans-Oblique-62" transform="translate(814.697266 0)"/>
     <use xlink:href="#DejaVuSans-Oblique-65" transform="translate(878.173828 0)"/>
     <use xlink:href="#DejaVuSans-Oblique-73" transform="translate(939.697266 0)"/>
     <use xlink:href="#DejaVuSans-Oblique-63" transform="translate(991.796875 0)"/>
     <use xlink:href="#DejaVuSans-Oblique-68" transform="translate(1046.777344 0)"/>
     <use xlink:href="#DejaVuSans-Oblique-72" transform="translate(1110.15625 0)"/>
     <use xlink:href="#DejaVuSans-Oblique-e4" transform="translate(1151.269531 0)"/>
     <use xlink:href="#DejaVuSans-Oblique-6e" transform="translate(1212.548828 0)"/>
     <use xlink:href="#DejaVuSans-Oblique-6b" transform="translate(1275.927734 0)"/>
     <use xlink:href="#DejaVuSans-Oblique-74" transform="translate(1333.837891 0)"/>
     <use xlink:href="#DejaVuSans-Oblique-29" transform="translate(1373.046875 0)"/>
    </g>
   </g>
   <g id="text_13">
    <!-- alle Pfadlängen $n \in \mathbf{N}$ -->
    <g style="fill: #1a4f8a" transform="translate(419.652 301.445398) scale(0.08 -0.08)">
     <defs>
      <path id="DejaVuSans-Oblique-64" d="M 2675 525 
Q 2444 222 2128 65 
Q 1813 -91 1428 -91 
Q 903 -91 598 267 
Q 294 625 294 1247 
Q 294 1766 478 2236 
Q 663 2706 1013 3078 
Q 1244 3325 1534 3454 
Q 1825 3584 2144 3584 
Q 2481 3584 2739 3421 
Q 2997 3259 3138 2956 
L 3513 4863 
L 4091 4863 
L 3144 0 
L 2566 0 
L 2675 525 
z
M 891 1350 
Q 891 897 1095 644 
Q 1300 391 1663 391 
Q 1931 391 2161 520 
Q 2391 650 2566 903 
Q 2750 1166 2856 1509 
Q 2963 1853 2963 2188 
Q 2963 2622 2758 2865 
Q 2553 3109 2194 3109 
Q 1922 3109 1687 2981 
Q 1453 2853 1288 2613 
Q 1106 2353 998 2009 
Q 891 1666 891 1350 
z
" transform="scale(0.015625)"/>
      <path id="DejaVuSans-2208" d="M 1072 1959 
Q 1094 1728 1291 1353 
Q 1522 919 1959 675 
Q 2388 438 2850 434 
L 5028 434 
L 5028 -63 
L 2850 -63 
Q 2250 -63 1695 246 
Q 1141 556 844 1106 
Q 547 1656 547 2241 
Q 547 2819 844 3369 
Q 1141 3919 1695 4231 
Q 2250 4544 2850 4544 
L 5028 4544 
L 5028 4047 
L 2850 4047 
Q 2388 4044 1959 3803 
Q 1525 3556 1291 3125 
Q 1091 2750 1063 2459 
L 5028 2459 
L 5028 1959 
L 1072 1959 
z
" transform="scale(0.015625)"/>
     </defs>
     <use xlink:href="#DejaVuSans-Oblique-61" transform="translate(0 0.015625)"/>
     <use xlink:href="#DejaVuSans-Oblique-6c" transform="translate(61.279297 0.015625)"/>
     <use xlink:href="#DejaVuSans-Oblique-6c" transform="translate(89.0625 0.015625)"/>
     <use xlink:href="#DejaVuSans-Oblique-65" transform="translate(116.845703 0.015625)"/>
     <use xlink:href="#DejaVuSans-Oblique-20" transform="translate(178.369141 0.015625)"/>
     <use xlink:href="#DejaVuSans-Oblique-50" transform="translate(210.15625 0.015625)"/>
     <use xlink:href="#DejaVuSans-Oblique-66" transform="translate(270.458984 0.015625)"/>
     <use xlink:href="#DejaVuSans-Oblique-61" transform="translate(305.664062 0.015625)"/>
     <use xlink:href="#DejaVuSans-Oblique-64" transform="translate(366.943359 0.015625)"/>
     <use xlink:href="#DejaVuSans-Oblique-6c" transform="translate(430.419922 0.015625)"/>
     <use xlink:href="#DejaVuSans-Oblique-e4" transform="translate(458.203125 0.015625)"/>
     <use xlink:href="#DejaVuSans-Oblique-6e" transform="translate(519.482422 0.015625)"/>
     <use xlink:href="#DejaVuSans-Oblique-67" transform="translate(582.861328 0.015625)"/>
     <use xlink:href="#DejaVuSans-Oblique-65" transform="translate(646.337891 0.015625)"/>
     <use xlink:href="#DejaVuSans-Oblique-6e" transform="translate(707.861328 0.015625)"/>
     <use xlink:href="#DejaVuSans-Oblique-20" transform="translate(771.240234 0.015625)"/>
     <use xlink:href="#DejaVuSans-Oblique-6e" transform="translate(803.027344 0.015625)"/>
     <use xlink:href="#DejaVuSans-2208" transform="translate(885.888672 0.015625)"/>
     <use xlink:href="#DejaVuSans-Bold-4e" transform="translate(992.480469 0.015625)"/>
    </g>
   </g>
   <g id="text_14">
    <!-- ∪_n φ_n  —  unendliche Disjunktionen -->
    <g style="fill: #1c3a5e; opacity: 0.9" transform="translate(288.481875 96.04892) scale(0.08 -0.08)">
     <defs>
      <path id="DejaVuSans-Oblique-222a" d="M 825 1856 
L 825 3706 
L 1363 3706 
L 1363 1934 
Q 1363 1172 1594 842 
Q 1825 513 2344 513 
Q 2859 513 3090 842 
Q 3322 1172 3322 1934 
L 3322 3706 
L 3859 3706 
L 3859 1856 
Q 3859 931 3476 465 
Q 3094 0 2344 0 
Q 1591 0 1208 465 
Q 825 931 825 1856 
z
" transform="scale(0.015625)"/>
      <path id="DejaVuSans-Oblique-5f" d="M 3263 -1063 
L 3263 -1509 
L -63 -1509 
L -63 -1063 
L 3263 -1063 
z
" transform="scale(0.015625)"/>
      <path id="DejaVuSans-Oblique-3c6" d="M 2969 3034 
Q 2766 3034 2675 2581 
L 2259 438 
Q 2553 438 2916 763 
Q 3244 1053 3375 1750 
Q 3497 2400 3300 2750 
Q 3138 3034 2969 3034 
z
M 3063 3525 
Q 3513 3525 3819 3113 
Q 4147 2672 3981 1750 
Q 3828 903 3291 400 
Q 2784 -75 2159 -75 
L 1916 -1331 
L 1344 -1331 
L 1588 -78 
Q 963 -78 641 400 
Q 309 888 475 1747 
Q 647 2641 1166 3097 
Q 1556 3438 2084 3525 
L 1984 3016 
Q 1766 2944 1538 2700 
Q 1194 2341 1081 1747 
Q 963 1116 1156 756 
Q 1334 434 1688 434 
L 2103 2581 
Q 2288 3525 3063 3525 
z
" transform="scale(0.015625)"/>
      <path id="DejaVuSans-Oblique-2014" d="M 356 1978 
L 6131 1978 
L 6044 1528 
L 269 1528 
L 356 1978 
z
" transform="scale(0.015625)"/>
      <path id="DejaVuSans-Oblique-44" d="M 1081 4666 
L 2438 4666 
Q 3519 4666 4070 4208 
Q 4622 3750 4622 2847 
Q 4622 2250 4412 1698 
Q 4203 1147 3834 769 
Q 3463 381 2891 190 
Q 2319 0 1538 0 
L 172 0 
L 1081 4666 
z
M 1613 4147 
L 909 519 
L 1734 519 
Q 2794 519 3375 1128 
Q 3956 1738 3956 2847 
Q 3956 3519 3581 3833 
Q 3206 4147 2406 4147 
L 1613 4147 
z
" transform="scale(0.015625)"/>
      <path id="DejaVuSans-Oblique-6a" d="M 928 3500 
L 1503 3500 
L 813 -63 
L 809 -78 
Q 694 -675 544 -897 
Q 403 -1106 132 -1218 
Q -138 -1331 -506 -1331 
L -722 -1331 
L -628 -844 
L -481 -844 
Q -144 -844 -1 -703 
Q 141 -563 238 -63 
L 928 3500 
z
M 1197 4863 
L 1772 4863 
L 1631 4134 
L 1056 4134 
L 1197 4863 
z
" transform="scale(0.015625)"/>
     </defs>
     <use xlink:href="#DejaVuSans-Oblique-222a"/>
     <use xlink:href="#DejaVuSans-Oblique-5f" transform="translate(73.193359 0)"/>
     <use xlink:href="#DejaVuSans-Oblique-6e" transform="translate(123.193359 0)"/>
     <use xlink:href="#DejaVuSans-Oblique-20" transform="translate(186.572266 0)"/>
     <use xlink:href="#DejaVuSans-Oblique-3c6" transform="translate(218.359375 0)"/>
     <use xlink:href="#DejaVuSans-Oblique-5f" transform="translate(284.326172 0)"/>
     <use xlink:href="#DejaVuSans-Oblique-6e" transform="translate(334.326172 0)"/>
     <use xlink:href="#DejaVuSans-Oblique-20" transform="translate(397.705078 0)"/>
     <use xlink:href="#DejaVuSans-Oblique-20" transform="translate(429.492188 0)"/>
     <use xlink:href="#DejaVuSans-Oblique-2014" transform="translate(461.279297 0)"/>
     <use xlink:href="#DejaVuSans-Oblique-20" transform="translate(561.279297 0)"/>
     <use xlink:href="#DejaVuSans-Oblique-20" transform="translate(593.066406 0)"/>
     <use xlink:href="#DejaVuSans-Oblique-75" transform="translate(624.853516 0)"/>
     <use xlink:href="#DejaVuSans-Oblique-6e" transform="translate(688.232422 0)"/>
     <use xlink:href="#DejaVuSans-Oblique-65" transform="translate(751.611328 0)"/>
     <use xlink:href="#DejaVuSans-Oblique-6e" transform="translate(813.134766 0)"/>
     <use xlink:href="#DejaVuSans-Oblique-64" transform="translate(876.513672 0)"/>
     <use xlink:href="#DejaVuSans-Oblique-6c" transform="translate(939.990234 0)"/>
     <use xlink:href="#DejaVuSans-Oblique-69" transform="translate(967.773438 0)"/>
     <use xlink:href="#DejaVuSans-Oblique-63" transform="translate(995.556641 0)"/>
     <use xlink:href="#DejaVuSans-Oblique-68" transform="translate(1050.537109 0)"/>
     <use xlink:href="#DejaVuSans-Oblique-65" transform="translate(1113.916016 0)"/>
     <use xlink:href="#DejaVuSans-Oblique-20" transform="translate(1175.439453 0)"/>
     <use xlink:href="#DejaVuSans-Oblique-44" transform="translate(1207.226562 0)"/>
     <use xlink:href="#DejaVuSans-Oblique-69" transform="translate(1284.228516 0)"/>
     <use xlink:href="#DejaVuSans-Oblique-73" transform="translate(1312.011719 0)"/>
     <use xlink:href="#DejaVuSans-Oblique-6a" transform="translate(1364.111328 0)"/>
     <use xlink:href="#DejaVuSans-Oblique-75" transform="translate(1391.894531 0)"/>
     <use xlink:href="#DejaVuSans-Oblique-6e" transform="translate(1455.273438 0)"/>
     <use xlink:href="#DejaVuSans-Oblique-6b" transform="translate(1518.652344 0)"/>
     <use xlink:href="#DejaVuSans-Oblique-74" transform="translate(1576.5625 0)"/>
     <use xlink:href="#DejaVuSans-Oblique-69" transform="translate(1615.771484 0)"/>
     <use xlink:href="#DejaVuSans-Oblique-6f" transform="translate(1643.554688 0)"/>
     <use xlink:href="#DejaVuSans-Oblique-6e" transform="translate(1704.736328 0)"/>
     <use xlink:href="#DejaVuSans-Oblique-65" transform="translate(1768.115234 0)"/>
     <use xlink:href="#DejaVuSans-Oblique-6e" transform="translate(1829.638672 0)"/>
    </g>
   </g>
   <g id="text_15">
    <!-- Primalität des Grades -->
    <g style="fill: #1c3a5e; opacity: 0.9" transform="translate(149.60875 97.506352) scale(0.08 -0.08)">
     <defs>
      <path id="DejaVuSans-Oblique-6d" d="M 5747 2113 
L 5338 0 
L 4763 0 
L 5166 2094 
Q 5191 2228 5203 2325 
Q 5216 2422 5216 2491 
Q 5216 2772 5059 2928 
Q 4903 3084 4622 3084 
Q 4203 3084 3875 2770 
Q 3547 2456 3450 1953 
L 3066 0 
L 2491 0 
L 2900 2094 
Q 2925 2209 2937 2307 
Q 2950 2406 2950 2484 
Q 2950 2769 2794 2926 
Q 2638 3084 2363 3084 
Q 1938 3084 1609 2770 
Q 1281 2456 1184 1953 
L 800 0 
L 225 0 
L 909 3500 
L 1484 3500 
L 1375 2956 
Q 1609 3263 1923 3423 
Q 2238 3584 2597 3584 
Q 2978 3584 3223 3384 
Q 3469 3184 3519 2828 
Q 3781 3197 4126 3390 
Q 4472 3584 4856 3584 
Q 5306 3584 5551 3325 
Q 5797 3066 5797 2591 
Q 5797 2488 5784 2364 
Q 5772 2241 5747 2113 
z
" transform="scale(0.015625)"/>
      <path id="DejaVuSans-Oblique-47" d="M 3494 697 
L 3738 1919 
L 2700 1919 
L 2797 2438 
L 4453 2438 
L 4050 384 
Q 3634 156 3143 32 
Q 2653 -91 2156 -91 
Q 1278 -91 783 396 
Q 288 884 288 1753 
Q 288 2475 589 3126 
Q 891 3778 1422 4213 
Q 1756 4484 2153 4617 
Q 2550 4750 3034 4750 
Q 3472 4750 3873 4639 
Q 4275 4528 4641 4306 
L 4513 3634 
Q 4231 3928 3853 4083 
Q 3475 4238 3047 4238 
Q 2550 4238 2172 4048 
Q 1794 3859 1497 3463 
Q 1244 3125 1098 2667 
Q 953 2209 953 1734 
Q 953 1081 1287 751 
Q 1622 422 2284 422 
Q 2616 422 2925 492 
Q 3234 563 3494 697 
z
" transform="scale(0.015625)"/>
     </defs>
     <use xlink:href="#DejaVuSans-Oblique-50"/>
     <use xlink:href="#DejaVuSans-Oblique-72" transform="translate(60.302734 0)"/>
     <use xlink:href="#DejaVuSans-Oblique-69" transform="translate(101.416016 0)"/>
     <use xlink:href="#DejaVuSans-Oblique-6d" transform="translate(129.199219 0)"/>
     <use xlink:href="#DejaVuSans-Oblique-61" transform="translate(226.611328 0)"/>
     <use xlink:href="#DejaVuSans-Oblique-6c" transform="translate(287.890625 0)"/>
     <use xlink:href="#DejaVuSans-Oblique-69" transform="translate(315.673828 0)"/>
     <use xlink:href="#DejaVuSans-Oblique-74" transform="translate(343.457031 0)"/>
     <use xlink:href="#DejaVuSans-Oblique-e4" transform="translate(382.666016 0)"/>
     <use xlink:href="#DejaVuSans-Oblique-74" transform="translate(443.945312 0)"/>
     <use xlink:href="#DejaVuSans-Oblique-20" transform="translate(483.154297 0)"/>
     <use xlink:href="#DejaVuSans-Oblique-64" transform="translate(514.941406 0)"/>
     <use xlink:href="#DejaVuSans-Oblique-65" transform="translate(578.417969 0)"/>
     <use xlink:href="#DejaVuSans-Oblique-73" transform="translate(639.941406 0)"/>
     <use xlink:href="#DejaVuSans-Oblique-20" transform="translate(692.041016 0)"/>
     <use xlink:href="#DejaVuSans-Oblique-47" transform="translate(723.828125 0)"/>
     <use xlink:href="#DejaVuSans-Oblique-72" transform="translate(801.318359 0)"/>
     <use xlink:href="#DejaVuSans-Oblique-61" transform="translate(842.431641 0)"/>
     <use xlink:href="#DejaVuSans-Oblique-64" transform="translate(903.710938 0)"/>
     <use xlink:href="#DejaVuSans-Oblique-65" transform="translate(967.1875 0)"/>
     <use xlink:href="#DejaVuSans-Oblique-73" transform="translate(1028.710938 0)"/>
    </g>
   </g>
   <g id="text_16">
    <!-- unentscheidbare Grapheigenschaften -->
    <g style="fill: #1c3a5e; opacity: 0.9" transform="translate(467.14875 97.506352) scale(0.08 -0.08)">
     <defs>
      <path id="DejaVuSans-Oblique-70" d="M 3175 2156 
Q 3175 2616 2975 2859 
Q 2775 3103 2400 3103 
Q 2144 3103 1911 2972 
Q 1678 2841 1497 2591 
Q 1319 2344 1212 1994 
Q 1106 1644 1106 1300 
Q 1106 863 1306 627 
Q 1506 391 1875 391 
Q 2147 391 2380 519 
Q 2613 647 2778 891 
Q 2956 1147 3065 1494 
Q 3175 1841 3175 2156 
z
M 1394 2969 
Q 1625 3272 1939 3428 
Q 2253 3584 2638 3584 
Q 3175 3584 3472 3232 
Q 3769 2881 3769 2247 
Q 3769 1728 3584 1258 
Q 3400 788 3053 416 
Q 2822 169 2531 39 
Q 2241 -91 1919 -91 
Q 1547 -91 1294 64 
Q 1041 219 916 525 
L 556 -1331 
L -19 -1331 
L 922 3500 
L 1497 3500 
L 1394 2969 
z
" transform="scale(0.015625)"/>
     </defs>
     <use xlink:href="#DejaVuSans-Oblique-75"/>
     <use xlink:href="#DejaVuSans-Oblique-6e" transform="translate(63.378906 0)"/>
     <use xlink:href="#DejaVuSans-Oblique-65" transform="translate(126.757812 0)"/>
     <use xlink:href="#DejaVuSans-Oblique-6e" transform="translate(188.28125 0)"/>
     <use xlink:href="#DejaVuSans-Oblique-74" transform="translate(251.660156 0)"/>
     <use xlink:href="#DejaVuSans-Oblique-73" transform="translate(290.869141 0)"/>
     <use xlink:href="#DejaVuSans-Oblique-63" transform="translate(342.96875 0)"/>
     <use xlink:href="#DejaVuSans-Oblique-68" transform="translate(397.949219 0)"/>
     <use xlink:href="#DejaVuSans-Oblique-65" transform="translate(461.328125 0)"/>
     <use xlink:href="#DejaVuSans-Oblique-69" transform="translate(522.851562 0)"/>
     <use xlink:href="#DejaVuSans-Oblique-64" transform="translate(550.634766 0)"/>
     <use xlink:href="#DejaVuSans-Oblique-62" transform="translate(614.111328 0)"/>
     <use xlink:href="#DejaVuSans-Oblique-61" transform="translate(677.587891 0)"/>
     <use xlink:href="#DejaVuSans-Oblique-72" transform="translate(738.867188 0)"/>
     <use xlink:href="#DejaVuSans-Oblique-65" transform="translate(779.980469 0)"/>
     <use xlink:href="#DejaVuSans-Oblique-20" transform="translate(841.503906 0)"/>
     <use xlink:href="#DejaVuSans-Oblique-47" transform="translate(873.291016 0)"/>
     <use xlink:href="#DejaVuSans-Oblique-72" transform="translate(950.78125 0)"/>
     <use xlink:href="#DejaVuSans-Oblique-61" transform="translate(991.894531 0)"/>
     <use xlink:href="#DejaVuSans-Oblique-70" transform="translate(1053.173828 0)"/>
     <use xlink:href="#DejaVuSans-Oblique-68" transform="translate(1116.650391 0)"/>
     <use xlink:href="#DejaVuSans-Oblique-65" transform="translate(1180.029297 0)"/>
     <use xlink:href="#DejaVuSans-Oblique-69" transform="translate(1241.552734 0)"/>
     <use xlink:href="#DejaVuSans-Oblique-67" transform="translate(1269.335938 0)"/>
     <use xlink:href="#DejaVuSans-Oblique-65" transform="translate(1332.8125 0)"/>
     <use xlink:href="#DejaVuSans-Oblique-6e" transform="translate(1394.335938 0)"/>
     <use xlink:href="#DejaVuSans-Oblique-73" transform="translate(1457.714844 0)"/>
     <use xlink:href="#DejaVuSans-Oblique-63" transform="translate(1509.814453 0)"/>
     <use xlink:href="#DejaVuSans-Oblique-68" transform="translate(1564.794922 0)"/>
     <use xlink:href="#DejaVuSans-Oblique-61" transform="translate(1628.173828 0)"/>
     <use xlink:href="#DejaVuSans-Oblique-66" transform="translate(1689.453125 0)"/>
     <use xlink:href="#DejaVuSans-Oblique-74" transform="translate(1724.658203 0)"/>
     <use xlink:href="#DejaVuSans-Oblique-65" transform="translate(1763.867188 0)"/>
     <use xlink:href="#DejaVuSans-Oblique-6e" transform="translate(1825.390625 0)"/>
    </g>
   </g>
   <g id="text_17">
    <!-- ⊊ -->
    <g style="fill: #1a4f8a" transform="translate(572.752344 358.477398) scale(0.22 -0.22)">
     <defs>
      <path id="DejaVuSans-Bold-228a" d="M 3450 653 
L 4725 653 
L 4725 0 
L 2869 0 
L 2316 -622 
L 1869 -225 
L 2069 0 
L 800 0 
L 800 653 
L 2650 653 
L 2975 1019 
L 2163 1019 
Q 1519 1019 1081 1463 
Q 638 1913 638 2544 
Q 638 3175 1081 3625 
Q 1519 4069 2156 4069 
L 4725 4069 
L 4725 3366 
L 2156 3366 
Q 1813 3366 1575 3125 
Q 1338 2884 1338 2544 
Q 1338 2197 1575 1963 
Q 1819 1722 2156 1722 
L 4725 1722 
L 4725 1019 
L 3494 1019 
L 3650 878 
L 3450 653 
z
" transform="scale(0.015625)"/>
     </defs>
     <use xlink:href="#DejaVuSans-Bold-228a"/>
    </g>
   </g>
   <g id="text_18">
    <!-- ⊊ -->
    <g style="fill: #1c3a5e" transform="translate(647.722344 358.477398) scale(0.22 -0.22)">
     <use xlink:href="#DejaVuSans-Bold-228a"/>
    </g>
   </g>
  </g>
  <g id="text_19">
   <!-- Ausdrucksstärke-Hierarchie:  GML  ⊊  GMSC  ⊊  ω-GML -->
   <g style="fill: #1c3a5e" transform="translate(180.059062 16.318125) scale(0.12 -0.12)">
    <defs>
     <path id="DejaVuSans-Bold-41" d="M 3419 850 
L 1538 850 
L 1241 0 
L 31 0 
L 1759 4666 
L 3194 4666 
L 4922 0 
L 3713 0 
L 3419 850 
z
M 1838 1716 
L 3116 1716 
L 2478 3572 
L 1838 1716 
z
" transform="scale(0.015625)"/>
     <path id="DejaVuSans-Bold-75" d="M 500 1363 
L 500 3500 
L 1625 3500 
L 1625 3150 
Q 1625 2866 1622 2436 
Q 1619 2006 1619 1863 
Q 1619 1441 1641 1255 
Q 1663 1069 1716 984 
Q 1784 875 1895 815 
Q 2006 756 2150 756 
Q 2500 756 2700 1025 
Q 2900 1294 2900 1772 
L 2900 3500 
L 4019 3500 
L 4019 0 
L 2900 0 
L 2900 506 
Q 2647 200 2364 54 
Q 2081 -91 1741 -91 
Q 1134 -91 817 281 
Q 500 653 500 1363 
z
" transform="scale(0.015625)"/>
     <path id="DejaVuSans-Bold-73" d="M 3272 3391 
L 3272 2541 
Q 2913 2691 2578 2766 
Q 2244 2841 1947 2841 
Q 1628 2841 1473 2761 
Q 1319 2681 1319 2516 
Q 1319 2381 1436 2309 
Q 1553 2238 1856 2203 
L 2053 2175 
Q 2913 2066 3209 1816 
Q 3506 1566 3506 1031 
Q 3506 472 3093 190 
Q 2681 -91 1863 -91 
Q 1516 -91 1145 -36 
Q 775 19 384 128 
L 384 978 
Q 719 816 1070 734 
Q 1422 653 1784 653 
Q 2113 653 2278 743 
Q 2444 834 2444 1013 
Q 2444 1163 2330 1236 
Q 2216 1309 1875 1350 
L 1678 1375 
Q 931 1469 631 1722 
Q 331 1975 331 2491 
Q 331 3047 712 3315 
Q 1094 3584 1881 3584 
Q 2191 3584 2531 3537 
Q 2872 3491 3272 3391 
z
" transform="scale(0.015625)"/>
     <path id="DejaVuSans-Bold-64" d="M 2919 2988 
L 2919 4863 
L 4044 4863 
L 4044 0 
L 2919 0 
L 2919 506 
Q 2688 197 2409 53 
Q 2131 -91 1766 -91 
Q 1119 -91 703 423 
Q 288 938 288 1747 
Q 288 2556 703 3070 
Q 1119 3584 1766 3584 
Q 2128 3584 2408 3439 
Q 2688 3294 2919 2988 
z
M 2181 722 
Q 2541 722 2730 984 
Q 2919 1247 2919 1747 
Q 2919 2247 2730 2509 
Q 2541 2772 2181 2772 
Q 1825 2772 1636 2509 
Q 1447 2247 1447 1747 
Q 1447 1247 1636 984 
Q 1825 722 2181 722 
z
" transform="scale(0.015625)"/>
     <path id="DejaVuSans-Bold-63" d="M 3366 3391 
L 3366 2478 
Q 3138 2634 2908 2709 
Q 2678 2784 2431 2784 
Q 1963 2784 1702 2511 
Q 1441 2238 1441 1747 
Q 1441 1256 1702 982 
Q 1963 709 2431 709 
Q 2694 709 2930 787 
Q 3166 866 3366 1019 
L 3366 103 
Q 3103 6 2833 -42 
Q 2563 -91 2291 -91 
Q 1344 -91 809 395 
Q 275 881 275 1747 
Q 275 2613 809 3098 
Q 1344 3584 2291 3584 
Q 2566 3584 2833 3536 
Q 3100 3488 3366 3391 
z
" transform="scale(0.015625)"/>
     <path id="DejaVuSans-Bold-6b" d="M 538 4863 
L 1656 4863 
L 1656 2216 
L 2944 3500 
L 4244 3500 
L 2534 1894 
L 4378 0 
L 3022 0 
L 1656 1459 
L 1656 0 
L 538 0 
L 538 4863 
z
" transform="scale(0.015625)"/>
     <path id="DejaVuSans-Bold-74" d="M 1759 4494 
L 1759 3500 
L 2913 3500 
L 2913 2700 
L 1759 2700 
L 1759 1216 
Q 1759 972 1856 886 
Q 1953 800 2241 800 
L 2816 800 
L 2816 0 
L 1856 0 
Q 1194 0 917 276 
Q 641 553 641 1216 
L 641 2700 
L 84 2700 
L 84 3500 
L 641 3500 
L 641 4494 
L 1759 4494 
z
" transform="scale(0.015625)"/>
     <path id="DejaVuSans-Bold-e4" d="M 2106 1575 
Q 1756 1575 1579 1456 
Q 1403 1338 1403 1106 
Q 1403 894 1545 773 
Q 1688 653 1941 653 
Q 2256 653 2472 879 
Q 2688 1106 2688 1447 
L 2688 1575 
L 2106 1575 
z
M 3816 1997 
L 3816 0 
L 2688 0 
L 2688 519 
Q 2463 200 2181 54 
Q 1900 -91 1497 -91 
Q 953 -91 614 226 
Q 275 544 275 1050 
Q 275 1666 698 1953 
Q 1122 2241 2028 2241 
L 2688 2241 
L 2688 2328 
Q 2688 2594 2478 2717 
Q 2269 2841 1825 2841 
Q 1466 2841 1156 2769 
Q 847 2697 581 2553 
L 581 3406 
Q 941 3494 1303 3539 
Q 1666 3584 2028 3584 
Q 2975 3584 3395 3211 
Q 3816 2838 3816 1997 
z
M 1200 4953 
L 1934 4953 
L 1934 4184 
L 1200 4184 
L 1200 4953 
z
M 2434 4953 
L 3168 4953 
L 3168 4184 
L 2434 4184 
L 2434 4953 
z
" transform="scale(0.015625)"/>
     <path id="DejaVuSans-Bold-48" d="M 588 4666 
L 1791 4666 
L 1791 2888 
L 3566 2888 
L 3566 4666 
L 4769 4666 
L 4769 0 
L 3566 0 
L 3566 1978 
L 1791 1978 
L 1791 0 
L 588 0 
L 588 4666 
z
" transform="scale(0.015625)"/>
     <path id="DejaVuSans-Bold-69" d="M 538 3500 
L 1656 3500 
L 1656 0 
L 538 0 
L 538 3500 
z
M 538 4863 
L 1656 4863 
L 1656 3950 
L 538 3950 
L 538 4863 
z
" transform="scale(0.015625)"/>
     <path id="DejaVuSans-Bold-61" d="M 2106 1575 
Q 1756 1575 1579 1456 
Q 1403 1338 1403 1106 
Q 1403 894 1545 773 
Q 1688 653 1941 653 
Q 2256 653 2472 879 
Q 2688 1106 2688 1447 
L 2688 1575 
L 2106 1575 
z
M 3816 1997 
L 3816 0 
L 2688 0 
L 2688 519 
Q 2463 200 2181 54 
Q 1900 -91 1497 -91 
Q 953 -91 614 226 
Q 275 544 275 1050 
Q 275 1666 698 1953 
Q 1122 2241 2028 2241 
L 2688 2241 
L 2688 2328 
Q 2688 2594 2478 2717 
Q 2269 2841 1825 2841 
Q 1466 2841 1156 2769 
Q 847 2697 581 2553 
L 581 3406 
Q 941 3494 1303 3539 
Q 1666 3584 2028 3584 
Q 2975 3584 3395 3211 
Q 3816 2838 3816 1997 
z
" transform="scale(0.015625)"/>
     <path id="DejaVuSans-Bold-68" d="M 4056 2131 
L 4056 0 
L 2931 0 
L 2931 347 
L 2931 1625 
Q 2931 2084 2911 2256 
Q 2891 2428 2841 2509 
Q 2775 2619 2662 2680 
Q 2550 2741 2406 2741 
Q 2056 2741 1856 2470 
Q 1656 2200 1656 1722 
L 1656 0 
L 538 0 
L 538 4863 
L 1656 4863 
L 1656 2988 
Q 1909 3294 2193 3439 
Q 2478 3584 2822 3584 
Q 3428 3584 3742 3212 
Q 4056 2841 4056 2131 
z
" transform="scale(0.015625)"/>
     <path id="DejaVuSans-Bold-3a" d="M 716 3500 
L 1844 3500 
L 1844 2291 
L 716 2291 
L 716 3500 
z
M 716 1209 
L 1844 1209 
L 1844 0 
L 716 0 
L 716 1209 
z
" transform="scale(0.015625)"/>
    </defs>
    <use xlink:href="#DejaVuSans-Bold-41"/>
    <use xlink:href="#DejaVuSans-Bold-75" transform="translate(77.392578 0)"/>
    <use xlink:href="#DejaVuSans-Bold-73" transform="translate(148.583984 0)"/>
    <use xlink:href="#DejaVuSans-Bold-64" transform="translate(208.105469 0)"/>
    <use xlink:href="#DejaVuSans-Bold-72" transform="translate(279.6875 0)"/>
    <use xlink:href="#DejaVuSans-Bold-75" transform="translate(329.003906 0)"/>
    <use xlink:href="#DejaVuSans-Bold-63" transform="translate(400.195312 0)"/>
    <use xlink:href="#DejaVuSans-Bold-6b" transform="translate(459.472656 0)"/>
    <use xlink:href="#DejaVuSans-Bold-73" transform="translate(525.976562 0)"/>
    <use xlink:href="#DejaVuSans-Bold-73" transform="translate(585.498047 0)"/>
    <use xlink:href="#DejaVuSans-Bold-74" transform="translate(645.019531 0)"/>
    <use xlink:href="#DejaVuSans-Bold-e4" transform="translate(692.822266 0)"/>
    <use xlink:href="#DejaVuSans-Bold-72" transform="translate(760.302734 0)"/>
    <use xlink:href="#DejaVuSans-Bold-6b" transform="translate(809.619141 0)"/>
    <use xlink:href="#DejaVuSans-Bold-65" transform="translate(873.498047 0)"/>
    <use xlink:href="#DejaVuSans-Bold-2d" transform="translate(941.320312 0)"/>
    <use xlink:href="#DejaVuSans-Bold-48" transform="translate(982.824219 0)"/>
    <use xlink:href="#DejaVuSans-Bold-69" transform="translate(1066.515625 0)"/>
    <use xlink:href="#DejaVuSans-Bold-65" transform="translate(1100.792969 0)"/>
    <use xlink:href="#DejaVuSans-Bold-72" transform="translate(1168.615234 0)"/>
    <use xlink:href="#DejaVuSans-Bold-61" transform="translate(1217.931641 0)"/>
    <use xlink:href="#DejaVuSans-Bold-72" transform="translate(1285.412109 0)"/>
    <use xlink:href="#DejaVuSans-Bold-63" transform="translate(1334.728516 0)"/>
    <use xlink:href="#DejaVuSans-Bold-68" transform="translate(1394.005859 0)"/>
    <use xlink:href="#DejaVuSans-Bold-69" transform="translate(1465.197266 0)"/>
    <use xlink:href="#DejaVuSans-Bold-65" transform="translate(1499.474609 0)"/>
    <use xlink:href="#DejaVuSans-Bold-3a" transform="translate(1567.296875 0)"/>
    <use xlink:href="#DejaVuSans-Bold-20" transform="translate(1607.287109 0)"/>
    <use xlink:href="#DejaVuSans-Bold-20" transform="translate(1642.101562 0)"/>
    <use xlink:href="#DejaVuSans-Bold-47" transform="translate(1676.916016 0)"/>
    <use xlink:href="#DejaVuSans-Bold-4d" transform="translate(1758.996094 0)"/>
    <use xlink:href="#DejaVuSans-Bold-4c" transform="translate(1858.507812 0)"/>
    <use xlink:href="#DejaVuSans-Bold-20" transform="translate(1922.228516 0)"/>
    <use xlink:href="#DejaVuSans-Bold-20" transform="translate(1957.042969 0)"/>
    <use xlink:href="#DejaVuSans-Bold-228a" transform="translate(1991.857422 0)"/>
    <use xlink:href="#DejaVuSans-Bold-20" transform="translate(2075.646484 0)"/>
    <use xlink:href="#DejaVuSans-Bold-20" transform="translate(2110.460938 0)"/>
    <use xlink:href="#DejaVuSans-Bold-47" transform="translate(2145.275391 0)"/>
    <use xlink:href="#DejaVuSans-Bold-4d" transform="translate(2227.355469 0)"/>
    <use xlink:href="#DejaVuSans-Bold-53" transform="translate(2326.867188 0)"/>
    <use xlink:href="#DejaVuSans-Bold-43" transform="translate(2398.888672 0)"/>
    <use xlink:href="#DejaVuSans-Bold-20" transform="translate(2472.277344 0)"/>
    <use xlink:href="#DejaVuSans-Bold-20" transform="translate(2507.091797 0)"/>
    <use xlink:href="#DejaVuSans-Bold-228a" transform="translate(2541.90625 0)"/>
    <use xlink:href="#DejaVuSans-Bold-20" transform="translate(2625.695312 0)"/>
    <use xlink:href="#DejaVuSans-Bold-20" transform="translate(2660.509766 0)"/>
    <use xlink:href="#DejaVuSans-Bold-3c9" transform="translate(2695.324219 0)"/>
    <use xlink:href="#DejaVuSans-Bold-2d" transform="translate(2782.238281 0)"/>
    <use xlink:href="#DejaVuSans-Bold-47" transform="translate(2823.742188 0)"/>
    <use xlink:href="#DejaVuSans-Bold-4d" transform="translate(2905.822266 0)"/>
    <use xlink:href="#DejaVuSans-Bold-4c" transform="translate(3005.333984 0)"/>
   </g>
  </g>
 </g>
 <defs>
  <clipPath id="p08ef3a78c5">
   <rect x="7.2" y="23.278125" width="714" height="370.2"/>
  </clipPath>
 </defs>
</svg>
