<?xml version="1.0" encoding="utf-8" standalone="no"?>
<!DOCTYPE svg PUBLIC "-//W3C//DTD SVG 1.1//EN"
  "http://www.w3.org/Graphics/SVG/1.1/DTD/svg11.dtd">
<svg xmlns:xlink="http://www.w3.org/1999/xlink" width="386.863637pt" height="275.074849pt" viewBox="0 0 386.863637 275.074849" xmlns="http://www.w3.org/2000/svg" version="1.1">
 <metadata>
  <rdf:RDF xmlns:dc="http://purl.org/dc/elements/1.1/" xmlns:cc="http://creativecommons.org/ns#" xmlns:rdf="http://www.w3.org/1999/02/22-rdf-syntax-ns#">
   <cc:Work>
    <dc:type rdf:resource="http://purl.org/dc/dcmitype/StillImage"/>
    <dc:date>2026-06-06T18:16:59.066439</dc:date>
    <dc:format>image/svg+xml</dc:format>
    <dc:creator>
     <cc:Agent>
      <dc:title>Matplotlib v3.10.9, https://matplotlib.org/</dc:title>
     </cc:Agent>
    </dc:creator>
   </cc:Work>
  </rdf:RDF>
 </metadata>
 <defs>
  <style type="text/css">*{stroke-linejoin: round; stroke-linecap: butt}</style>
 </defs>
 <g id="figure_1">
  <g id="patch_1">
   <path d="M 0 275.074849 
L 386.863637 275.074849 
L 386.863637 0 
L 0 0 
z
" style="fill: #f7f4ef"/>
  </g>
  <g id="axes_1">
   <g id="patch_2">
    <path d="M 7.2 220.565164 
L 109.417143 220.565164 
L 109.417143 85.394638 
L 7.2 85.394638 
z
" clip-path="url(#p7fbe48d90d)" style="fill: #1a4f8a; opacity: 0.07; stroke: #1a4f8a; stroke-linejoin: miter"/>
   </g>
   <g id="line2d_1">
    <path d="M 12.168889 220.565164 
L 111.387583 220.565164 
L 111.387583 220.565164 
" clip-path="url(#p7fbe48d90d)" style="fill: none; stroke: #1a4f8a; stroke-width: 2.8; stroke-linecap: round"/>
   </g>
   <g id="line2d_2">
    <path d="M 111.556609 220.551641 
L 210.775303 85.597495 
L 210.775303 85.597495 
" clip-path="url(#p7fbe48d90d)" style="fill: none; stroke: #1a4f8a; stroke-width: 2.8; stroke-linecap: round"/>
   </g>
   <g id="line2d_3">
    <path d="M 210.94433 85.394638 
L 350.053333 85.394638 
L 350.053333 85.394638 
" clip-path="url(#p7fbe48d90d)" style="fill: none; stroke: #1e6b3c; stroke-width: 2.8; stroke-linecap: round"/>
   </g>
   <g id="line2d_4">
    <path d="M 210.924444 220.565164 
L 210.924444 85.394638 
" clip-path="url(#p7fbe48d90d)" style="fill: none; stroke-dasharray: 3.33,1.44; stroke-dashoffset: 0; stroke: #8fa3bb; stroke-opacity: 0.7; stroke-width: 0.9"/>
   </g>
   <g id="line2d_5">
    <path d="M 111.546667 85.394638 
L 210.924444 85.394638 
" clip-path="url(#p7fbe48d90d)" style="fill: none; stroke-dasharray: 3.33,1.44; stroke-dashoffset: 0; stroke: #8fa3bb; stroke-opacity: 0.7; stroke-width: 0.9"/>
   </g>
   <g id="patch_3">
    <path d="M 9.199846 220.565164 
Q 183.595871 220.565164 356.538452 220.565164 
" style="fill: none; stroke: #1c3a5e; stroke-width: 1.3; stroke-linecap: round"/>
    <path d="M 352.538452 218.565164 
L 356.538452 220.565164 
L 352.538452 222.565164 
" style="fill: none; stroke: #1c3a5e; stroke-width: 1.3; stroke-linecap: round"/>
   </g>
   <g id="patch_4">
    <path d="M 111.546667 265.87233 
Q 111.546667 139.462818 111.546667 14.50675 
" style="fill: none; stroke: #1c3a5e; stroke-width: 1.3; stroke-linecap: round"/>
    <path d="M 109.546667 18.50675 
L 111.546667 14.50675 
L 113.546667 18.50675 
" style="fill: none; stroke: #1c3a5e; stroke-width: 1.3; stroke-linecap: round"/>
   </g>
   <g id="text_1">
    <!-- $x$ -->
    <g style="fill: #1c3a5e" transform="translate(365.953778 224.428289) scale(0.14 -0.14)">
     <defs>
      <path id="DejaVuSans-Oblique-78" d="M 3841 3500 
L 2234 1784 
L 3219 0 
L 2559 0 
L 1819 1388 
L 531 0 
L -166 0 
L 1556 1844 
L 641 3500 
L 1300 3500 
L 1972 2234 
L 3144 3500 
L 3841 3500 
z
" transform="scale(0.015625)"/>
     </defs>
     <use xlink:href="#DejaVuSans-Oblique-78" transform="translate(0 0.3125)"/>
    </g>
   </g>
   <g id="text_2">
    <!-- $y$ -->
    <g style="fill: #1c3a5e" transform="translate(117.509333 17.809375) scale(0.14 -0.14)">
     <defs>
      <path id="DejaVuSans-Oblique-79" d="M 1588 -325 
Q 1188 -997 936 -1164 
Q 684 -1331 294 -1331 
L -159 -1331 
L -63 -850 
L 269 -850 
Q 509 -850 678 -719 
Q 847 -588 1056 -206 
L 1234 128 
L 459 3500 
L 1069 3500 
L 1650 819 
L 3256 3500 
L 3859 3500 
L 1588 -325 
z
" transform="scale(0.015625)"/>
     </defs>
     <use xlink:href="#DejaVuSans-Oblique-79" transform="translate(0 0.3125)"/>
    </g>
   </g>
   <g id="text_3">
    <!-- $1$ -->
    <g style="fill: #1c3a5e" transform="translate(207.084444 244.895859) scale(0.12 -0.12)">
     <defs>
      <path id="DejaVuSans-31" d="M 794 531 
L 1825 531 
L 1825 4091 
L 703 3866 
L 703 4441 
L 1819 4666 
L 2450 4666 
L 2450 531 
L 3481 531 
L 3481 0 
L 794 0 
L 794 531 
z
" transform="scale(0.015625)"/>
     </defs>
     <use xlink:href="#DejaVuSans-31" transform="translate(0 0.09375)"/>
    </g>
   </g>
   <g id="text_4">
    <!-- $1$ -->
    <g style="fill: #1c3a5e" transform="translate(90.947556 88.705888) scale(0.12 -0.12)">
     <use xlink:href="#DejaVuSans-31" transform="translate(0 0.09375)"/>
    </g>
   </g>
   <g id="text_5">
    <!-- ReLU* -->
    <g style="fill: #1a4f8a" transform="translate(285.457778 123.242386) scale(0.13 -0.13)">
     <defs>
      <path id="DejaVuSans-Bold-52" d="M 2297 2597 
Q 2675 2597 2839 2737 
Q 3003 2878 3003 3200 
Q 3003 3519 2839 3656 
Q 2675 3794 2297 3794 
L 1791 3794 
L 1791 2597 
L 2297 2597 
z
M 1791 1766 
L 1791 0 
L 588 0 
L 588 4666 
L 2425 4666 
Q 3347 4666 3776 4356 
Q 4206 4047 4206 3378 
Q 4206 2916 3982 2619 
Q 3759 2322 3309 2181 
Q 3556 2125 3751 1926 
Q 3947 1728 4147 1325 
L 4800 0 
L 3519 0 
L 2950 1159 
Q 2778 1509 2601 1637 
Q 2425 1766 2131 1766 
L 1791 1766 
z
" transform="scale(0.015625)"/>
      <path id="DejaVuSans-Bold-65" d="M 4031 1759 
L 4031 1441 
L 1416 1441 
Q 1456 1047 1700 850 
Q 1944 653 2381 653 
Q 2734 653 3104 758 
Q 3475 863 3866 1075 
L 3866 213 
Q 3469 63 3072 -14 
Q 2675 -91 2278 -91 
Q 1328 -91 801 392 
Q 275 875 275 1747 
Q 275 2603 792 3093 
Q 1309 3584 2216 3584 
Q 3041 3584 3536 3087 
Q 4031 2591 4031 1759 
z
M 2881 2131 
Q 2881 2450 2695 2645 
Q 2509 2841 2209 2841 
Q 1884 2841 1681 2658 
Q 1478 2475 1428 2131 
L 2881 2131 
z
" transform="scale(0.015625)"/>
      <path id="DejaVuSans-Bold-4c" d="M 588 4666 
L 1791 4666 
L 1791 909 
L 3903 909 
L 3903 0 
L 588 0 
L 588 4666 
z
" transform="scale(0.015625)"/>
      <path id="DejaVuSans-Bold-55" d="M 588 4666 
L 1791 4666 
L 1791 1869 
Q 1791 1291 1980 1042 
Q 2169 794 2597 794 
Q 3028 794 3217 1042 
Q 3406 1291 3406 1869 
L 3406 4666 
L 4609 4666 
L 4609 1869 
Q 4609 878 4112 393 
Q 3616 -91 2597 -91 
Q 1581 -91 1084 393 
Q 588 878 588 1869 
L 588 4666 
z
" transform="scale(0.015625)"/>
      <path id="DejaVuSans-Bold-2a" d="M 3219 3803 
L 2188 3263 
L 3219 2719 
L 2981 2278 
L 1941 2853 
L 1941 1778 
L 1409 1778 
L 1409 2853 
L 366 2278 
L 128 2719 
L 1172 3263 
L 128 3803 
L 366 4244 
L 1409 3675 
L 1409 4750 
L 1941 4750 
L 1941 3675 
L 2981 4244 
L 3219 3803 
z
" transform="scale(0.015625)"/>
     </defs>
     <use xlink:href="#DejaVuSans-Bold-52"/>
     <use xlink:href="#DejaVuSans-Bold-65" transform="translate(77.001953 0)"/>
     <use xlink:href="#DejaVuSans-Bold-4c" transform="translate(144.824219 0)"/>
     <use xlink:href="#DejaVuSans-Bold-55" transform="translate(204.919922 0)"/>
     <use xlink:href="#DejaVuSans-Bold-2a" transform="translate(286.121094 0)"/>
    </g>
   </g>
   <g id="text_6">
    <!-- = min(1, max(0, x)) -->
    <g style="fill: #8fa3bb" transform="translate(285.457778 147.57308) scale(0.095 -0.095)">
     <defs>
      <path id="DejaVuSans-Oblique-3d" d="M 678 2906 
L 4684 2906 
L 4684 2381 
L 678 2381 
L 678 2906 
z
M 678 1631 
L 4684 1631 
L 4684 1100 
L 678 1100 
L 678 1631 
z
" transform="scale(0.015625)"/>
      <path id="DejaVuSans-Oblique-20" transform="scale(0.015625)"/>
      <path id="DejaVuSans-Oblique-6d" d="M 5747 2113 
L 5338 0 
L 4763 0 
L 5166 2094 
Q 5191 2228 5203 2325 
Q 5216 2422 5216 2491 
Q 5216 2772 5059 2928 
Q 4903 3084 4622 3084 
Q 4203 3084 3875 2770 
Q 3547 2456 3450 1953 
L 3066 0 
L 2491 0 
L 2900 2094 
Q 2925 2209 2937 2307 
Q 2950 2406 2950 2484 
Q 2950 2769 2794 2926 
Q 2638 3084 2363 3084 
Q 1938 3084 1609 2770 
Q 1281 2456 1184 1953 
L 800 0 
L 225 0 
L 909 3500 
L 1484 3500 
L 1375 2956 
Q 1609 3263 1923 3423 
Q 2238 3584 2597 3584 
Q 2978 3584 3223 3384 
Q 3469 3184 3519 2828 
Q 3781 3197 4126 3390 
Q 4472 3584 4856 3584 
Q 5306 3584 5551 3325 
Q 5797 3066 5797 2591 
Q 5797 2488 5784 2364 
Q 5772 2241 5747 2113 
z
" transform="scale(0.015625)"/>
      <path id="DejaVuSans-Oblique-69" d="M 1172 4863 
L 1747 4863 
L 1606 4134 
L 1031 4134 
L 1172 4863 
z
M 909 3500 
L 1484 3500 
L 800 0 
L 225 0 
L 909 3500 
z
" transform="scale(0.015625)"/>
      <path id="DejaVuSans-Oblique-6e" d="M 3566 2113 
L 3156 0 
L 2578 0 
L 2988 2091 
Q 3016 2238 3031 2350 
Q 3047 2463 3047 2528 
Q 3047 2791 2881 2937 
Q 2716 3084 2419 3084 
Q 1956 3084 1622 2776 
Q 1288 2469 1184 1941 
L 800 0 
L 225 0 
L 903 3500 
L 1478 3500 
L 1363 2950 
Q 1603 3253 1940 3418 
Q 2278 3584 2650 3584 
Q 3113 3584 3367 3334 
Q 3622 3084 3622 2631 
Q 3622 2519 3608 2391 
Q 3594 2263 3566 2113 
z
" transform="scale(0.015625)"/>
      <path id="DejaVuSans-Oblique-28" d="M 2731 4856 
Q 1903 3822 1495 2892 
Q 1088 1963 1088 1100 
Q 1088 606 1206 120 
Q 1325 -366 1563 -844 
L 1063 -844 
Q 775 -306 634 201 
Q 494 709 494 1197 
Q 494 2125 923 3036 
Q 1353 3947 2222 4856 
L 2731 4856 
z
" transform="scale(0.015625)"/>
      <path id="DejaVuSans-Oblique-31" d="M 416 531 
L 1447 531 
L 2144 4122 
L 978 3897 
L 1088 4441 
L 2247 4666 
L 2881 4666 
L 2075 531 
L 3103 531 
L 3003 0 
L 313 0 
L 416 531 
z
" transform="scale(0.015625)"/>
      <path id="DejaVuSans-Oblique-2c" d="M 575 794 
L 1234 794 
L 1131 256 
L 422 -744 
L 19 -744 
L 469 256 
L 575 794 
z
" transform="scale(0.015625)"/>
      <path id="DejaVuSans-Oblique-61" d="M 3438 1997 
L 3047 0 
L 2472 0 
L 2578 531 
Q 2325 219 2001 64 
Q 1678 -91 1281 -91 
Q 834 -91 548 182 
Q 263 456 263 884 
Q 263 1497 752 1853 
Q 1241 2209 2100 2209 
L 2900 2209 
L 2931 2363 
Q 2938 2388 2941 2417 
Q 2944 2447 2944 2509 
Q 2944 2788 2717 2942 
Q 2491 3097 2081 3097 
Q 1800 3097 1504 3025 
Q 1209 2953 897 2809 
L 997 3341 
Q 1322 3463 1633 3523 
Q 1944 3584 2234 3584 
Q 2853 3584 3176 3315 
Q 3500 3047 3500 2534 
Q 3500 2431 3484 2292 
Q 3469 2153 3438 1997 
z
M 2816 1759 
L 2241 1759 
Q 1534 1759 1195 1570 
Q 856 1381 856 984 
Q 856 709 1029 553 
Q 1203 397 1509 397 
Q 1978 397 2328 733 
Q 2678 1069 2791 1631 
L 2816 1759 
z
" transform="scale(0.015625)"/>
      <path id="DejaVuSans-Oblique-30" d="M 2444 4750 
Q 3078 4750 3414 4328 
Q 3750 3906 3750 3116 
Q 3750 2516 3592 1923 
Q 3434 1331 3150 863 
Q 2859 394 2467 151 
Q 2075 -91 1600 -91 
Q 988 -91 653 334 
Q 319 759 319 1544 
Q 319 2138 480 2733 
Q 641 3328 928 3794 
Q 1216 4263 1602 4506 
Q 1988 4750 2444 4750 
z
M 2406 4250 
Q 2169 4250 1955 4123 
Q 1741 3997 1569 3750 
Q 1281 3338 1111 2720 
Q 941 2103 941 1453 
Q 941 938 1123 673 
Q 1306 409 1663 409 
Q 1913 409 2125 536 
Q 2338 663 2509 909 
Q 2794 1319 2961 1936 
Q 3128 2553 3128 3206 
Q 3128 3722 2945 3986 
Q 2763 4250 2406 4250 
z
" transform="scale(0.015625)"/>
      <path id="DejaVuSans-Oblique-29" d="M -397 -844 
Q 434 191 840 1120 
Q 1247 2050 1247 2913 
Q 1247 3406 1130 3892 
Q 1013 4378 775 4856 
L 1275 4856 
Q 1563 4316 1703 3812 
Q 1844 3309 1844 2822 
Q 1844 1891 1411 973 
Q 978 56 116 -844 
L -397 -844 
z
" transform="scale(0.015625)"/>
     </defs>
     <use xlink:href="#DejaVuSans-Oblique-3d"/>
     <use xlink:href="#DejaVuSans-Oblique-20" transform="translate(83.789062 0)"/>
     <use xlink:href="#DejaVuSans-Oblique-6d" transform="translate(115.576172 0)"/>
     <use xlink:href="#DejaVuSans-Oblique-69" transform="translate(212.988281 0)"/>
     <use xlink:href="#DejaVuSans-Oblique-6e" transform="translate(240.771484 0)"/>
     <use xlink:href="#DejaVuSans-Oblique-28" transform="translate(304.150391 0)"/>
     <use xlink:href="#DejaVuSans-Oblique-31" transform="translate(343.164062 0)"/>
     <use xlink:href="#DejaVuSans-Oblique-2c" transform="translate(406.787109 0)"/>
     <use xlink:href="#DejaVuSans-Oblique-20" transform="translate(438.574219 0)"/>
     <use xlink:href="#DejaVuSans-Oblique-6d" transform="translate(470.361328 0)"/>
     <use xlink:href="#DejaVuSans-Oblique-61" transform="translate(567.773438 0)"/>
     <use xlink:href="#DejaVuSans-Oblique-78" transform="translate(629.052734 0)"/>
     <use xlink:href="#DejaVuSans-Oblique-28" transform="translate(688.232422 0)"/>
     <use xlink:href="#DejaVuSans-Oblique-30" transform="translate(727.246094 0)"/>
     <use xlink:href="#DejaVuSans-Oblique-2c" transform="translate(790.869141 0)"/>
     <use xlink:href="#DejaVuSans-Oblique-20" transform="translate(822.65625 0)"/>
     <use xlink:href="#DejaVuSans-Oblique-78" transform="translate(854.443359 0)"/>
     <use xlink:href="#DejaVuSans-Oblique-29" transform="translate(913.623047 0)"/>
     <use xlink:href="#DejaVuSans-Oblique-29" transform="translate(952.636719 0)"/>
    </g>
   </g>
   <g id="line2d_6">
    <defs>
     <path id="ma5bfed3fdd" d="M 0 4 
C 1.060812 4 2.078319 3.578535 2.828427 2.828427 
C 3.578535 2.078319 4 1.060812 4 0 
C 4 -1.060812 3.578535 -2.078319 2.828427 -2.828427 
C 2.078319 -3.578535 1.060812 -4 0 -4 
C -1.060812 -4 -2.078319 -3.578535 -2.828427 -2.828427 
C -3.578535 -2.078319 -4 -1.060812 -4 0 
C -4 1.060812 -3.578535 2.078319 -2.828427 2.828427 
C -2.078319 3.578535 -1.060812 4 0 4 
z
" style="stroke: #1a4f8a"/>
    </defs>
    <g clip-path="url(#p7fbe48d90d)">
     <use xlink:href="#ma5bfed3fdd" x="111.546667" y="220.565164" style="fill: #1a4f8a; stroke: #1a4f8a"/>
    </g>
   </g>
   <g id="line2d_7">
    <defs>
     <path id="mf63a9625fb" d="M 0 4 
C 1.060812 4 2.078319 3.578535 2.828427 2.828427 
C 3.578535 2.078319 4 1.060812 4 0 
C 4 -1.060812 3.578535 -2.078319 2.828427 -2.828427 
C 2.078319 -3.578535 1.060812 -4 0 -4 
C -1.060812 -4 -2.078319 -3.578535 -2.828427 -2.828427 
C -3.578535 -2.078319 -4 -1.060812 -4 0 
C -4 1.060812 -3.578535 2.078319 -2.828427 2.828427 
C -2.078319 3.578535 -1.060812 4 0 4 
z
" style="stroke: #1e6b3c"/>
    </defs>
    <g clip-path="url(#p7fbe48d90d)">
     <use xlink:href="#mf63a9625fb" x="210.924444" y="85.394638" style="fill: #1e6b3c; stroke: #1e6b3c"/>
    </g>
   </g>
  </g>
 </g>
 <defs>
  <clipPath id="p7fbe48d90d">
   <rect x="7.2" y="11.050849" width="357.76" height="256.824"/>
  </clipPath>
 </defs>
</svg>
